<?xml version="1.0" encoding="utf-8" standalone="no"?>
<!DOCTYPE svg PUBLIC "-//W3C//DTD SVG 1.1//EN"
  "http://www.w3.org/Graphics/SVG/1.1/DTD/svg11.dtd">
<!-- Created with matplotlib (https://matplotlib.org/) -->
<svg height="315.84575pt" version="1.1" viewBox="0 0 333.371375 315.84575" width="333.371375pt" xmlns="http://www.w3.org/2000/svg" xmlns:xlink="http://www.w3.org/1999/xlink">
 <defs>
  <style type="text/css">
*{stroke-linecap:butt;stroke-linejoin:round;}
  </style>
 </defs>
 <g id="figure_1">
  <g id="patch_1">
   <path d="M -0 315.84575 
L 333.371375 315.84575 
L 333.371375 0 
L -0 0 
z
" style="fill:#ffffff;"/>
  </g>
  <g id="axes_1">
   <g id="patch_2">
    <path d="M 60.059375 273.312 
L 326.171375 273.312 
L 326.171375 7.2 
L 60.059375 7.2 
z
" style="fill:#ffffff;"/>
   </g>
   <g id="patch_3">
    <path clip-path="url(#p8ef3bf8b68)" d="M 187.982155 142.064225 
L 194.888621 142.064225 
L 194.888621 134.931407 
L 187.982155 134.931407 
L 187.982155 142.064225 
z
" style="fill:none;stroke:#808080;stroke-linejoin:miter;"/>
   </g>
   <g id="matplotlib.axis_1">
    <g id="xtick_1">
     <g id="line2d_1">
      <path clip-path="url(#p8ef3bf8b68)" d="M 76.32762 273.312 
L 76.32762 7.2 
" style="fill:none;stroke:#b0b0b0;stroke-linecap:square;stroke-width:0.8;"/>
     </g>
     <g id="line2d_2">
      <defs>
       <path d="M 0 0 
L 0 3.5 
" id="m045076a803" style="stroke:#000000;stroke-width:0.8;"/>
      </defs>
      <g>
       <use style="stroke:#000000;stroke-width:0.8;" x="76.32762" xlink:href="#m045076a803" y="273.312"/>
      </g>
     </g>
     <g id="text_1">
      <!-- −1.0 -->
      <defs>
       <path d="M 10.59375 35.5 
L 73.1875 35.5 
L 73.1875 27.203125 
L 10.59375 27.203125 
z
" id="DejaVuSans-8722"/>
       <path d="M 12.40625 8.296875 
L 28.515625 8.296875 
L 28.515625 63.921875 
L 10.984375 60.40625 
L 10.984375 69.390625 
L 28.421875 72.90625 
L 38.28125 72.90625 
L 38.28125 8.296875 
L 54.390625 8.296875 
L 54.390625 0 
L 12.40625 0 
z
" id="DejaVuSans-49"/>
       <path d="M 10.6875 12.40625 
L 21 12.40625 
L 21 0 
L 10.6875 0 
z
" id="DejaVuSans-46"/>
       <path d="M 31.78125 66.40625 
Q 24.171875 66.40625 20.328125 58.90625 
Q 16.5 51.421875 16.5 36.375 
Q 16.5 21.390625 20.328125 13.890625 
Q 24.171875 6.390625 31.78125 6.390625 
Q 39.453125 6.390625 43.28125 13.890625 
Q 47.125 21.390625 47.125 36.375 
Q 47.125 51.421875 43.28125 58.90625 
Q 39.453125 66.40625 31.78125 66.40625 
z
M 31.78125 74.21875 
Q 44.046875 74.21875 50.515625 64.515625 
Q 56.984375 54.828125 56.984375 36.375 
Q 56.984375 17.96875 50.515625 8.265625 
Q 44.046875 -1.421875 31.78125 -1.421875 
Q 19.53125 -1.421875 13.0625 8.265625 
Q 6.59375 17.96875 6.59375 36.375 
Q 6.59375 54.828125 13.0625 64.515625 
Q 19.53125 74.21875 31.78125 74.21875 
z
" id="DejaVuSans-48"/>
      </defs>
      <g transform="translate(61.757933 289.430125)scale(0.12 -0.12)">
       <use xlink:href="#DejaVuSans-8722"/>
       <use x="83.789062" xlink:href="#DejaVuSans-49"/>
       <use x="147.412109" xlink:href="#DejaVuSans-46"/>
       <use x="179.199219" xlink:href="#DejaVuSans-48"/>
      </g>
     </g>
    </g>
    <g id="xtick_2">
     <g id="line2d_3">
      <path clip-path="url(#p8ef3bf8b68)" d="M 133.881504 273.312 
L 133.881504 7.2 
" style="fill:none;stroke:#b0b0b0;stroke-linecap:square;stroke-width:0.8;"/>
     </g>
     <g id="line2d_4">
      <g>
       <use style="stroke:#000000;stroke-width:0.8;" x="133.881504" xlink:href="#m045076a803" y="273.312"/>
      </g>
     </g>
     <g id="text_2">
      <!-- −0.5 -->
      <defs>
       <path d="M 10.796875 72.90625 
L 49.515625 72.90625 
L 49.515625 64.59375 
L 19.828125 64.59375 
L 19.828125 46.734375 
Q 21.96875 47.46875 24.109375 47.828125 
Q 26.265625 48.1875 28.421875 48.1875 
Q 40.625 48.1875 47.75 41.5 
Q 54.890625 34.8125 54.890625 23.390625 
Q 54.890625 11.625 47.5625 5.09375 
Q 40.234375 -1.421875 26.90625 -1.421875 
Q 22.3125 -1.421875 17.546875 -0.640625 
Q 12.796875 0.140625 7.71875 1.703125 
L 7.71875 11.625 
Q 12.109375 9.234375 16.796875 8.0625 
Q 21.484375 6.890625 26.703125 6.890625 
Q 35.15625 6.890625 40.078125 11.328125 
Q 45.015625 15.765625 45.015625 23.390625 
Q 45.015625 31 40.078125 35.4375 
Q 35.15625 39.890625 26.703125 39.890625 
Q 22.75 39.890625 18.8125 39.015625 
Q 14.890625 38.140625 10.796875 36.28125 
z
" id="DejaVuSans-53"/>
      </defs>
      <g transform="translate(119.311817 289.430125)scale(0.12 -0.12)">
       <use xlink:href="#DejaVuSans-8722"/>
       <use x="83.789062" xlink:href="#DejaVuSans-48"/>
       <use x="147.412109" xlink:href="#DejaVuSans-46"/>
       <use x="179.199219" xlink:href="#DejaVuSans-53"/>
      </g>
     </g>
    </g>
    <g id="xtick_3">
     <g id="line2d_5">
      <path clip-path="url(#p8ef3bf8b68)" d="M 191.435388 273.312 
L 191.435388 7.2 
" style="fill:none;stroke:#b0b0b0;stroke-linecap:square;stroke-width:0.8;"/>
     </g>
     <g id="line2d_6">
      <g>
       <use style="stroke:#000000;stroke-width:0.8;" x="191.435388" xlink:href="#m045076a803" y="273.312"/>
      </g>
     </g>
     <g id="text_3">
      <!-- 0.0 -->
      <g transform="translate(181.893513 289.430125)scale(0.12 -0.12)">
       <use xlink:href="#DejaVuSans-48"/>
       <use x="63.623047" xlink:href="#DejaVuSans-46"/>
       <use x="95.410156" xlink:href="#DejaVuSans-48"/>
      </g>
     </g>
    </g>
    <g id="xtick_4">
     <g id="line2d_7">
      <path clip-path="url(#p8ef3bf8b68)" d="M 248.989272 273.312 
L 248.989272 7.2 
" style="fill:none;stroke:#b0b0b0;stroke-linecap:square;stroke-width:0.8;"/>
     </g>
     <g id="line2d_8">
      <g>
       <use style="stroke:#000000;stroke-width:0.8;" x="248.989272" xlink:href="#m045076a803" y="273.312"/>
      </g>
     </g>
     <g id="text_4">
      <!-- 0.5 -->
      <g transform="translate(239.447397 289.430125)scale(0.12 -0.12)">
       <use xlink:href="#DejaVuSans-48"/>
       <use x="63.623047" xlink:href="#DejaVuSans-46"/>
       <use x="95.410156" xlink:href="#DejaVuSans-53"/>
      </g>
     </g>
    </g>
    <g id="xtick_5">
     <g id="line2d_9">
      <path clip-path="url(#p8ef3bf8b68)" d="M 306.543156 273.312 
L 306.543156 7.2 
" style="fill:none;stroke:#b0b0b0;stroke-linecap:square;stroke-width:0.8;"/>
     </g>
     <g id="line2d_10">
      <g>
       <use style="stroke:#000000;stroke-width:0.8;" x="306.543156" xlink:href="#m045076a803" y="273.312"/>
      </g>
     </g>
     <g id="text_5">
      <!-- 1.0 -->
      <g transform="translate(297.001281 289.430125)scale(0.12 -0.12)">
       <use xlink:href="#DejaVuSans-49"/>
       <use x="63.623047" xlink:href="#DejaVuSans-46"/>
       <use x="95.410156" xlink:href="#DejaVuSans-48"/>
      </g>
     </g>
    </g>
    <g id="text_6">
     <!-- $x_1'$ [mm] -->
     <defs>
      <path d="M 60.015625 54.6875 
L 34.90625 27.875 
L 50.296875 0 
L 39.984375 0 
L 28.421875 21.6875 
L 8.296875 0 
L -2.59375 0 
L 24.3125 28.8125 
L 10.015625 54.6875 
L 20.3125 54.6875 
L 30.8125 34.90625 
L 49.125 54.6875 
z
" id="DejaVuSans-Oblique-120"/>
      <path d="M 3.515625 5.421875 
Q 2.875 5.609375 2.875 6.390625 
L 15.09375 51.8125 
Q 15.671875 53.65625 17.078125 54.78125 
Q 18.5 55.90625 20.3125 55.90625 
Q 22.65625 55.90625 24.4375 54.359375 
Q 26.21875 52.828125 26.21875 50.484375 
Q 26.21875 49.46875 25.6875 48.1875 
L 7.625 4.984375 
Q 7.28125 4.296875 6.6875 4.296875 
Q 6.15625 4.296875 5 4.78125 
Q 3.859375 5.28125 3.515625 5.421875 
z
" id="Cmsy10-48"/>
      <path id="DejaVuSans-32"/>
      <path d="M 8.59375 75.984375 
L 29.296875 75.984375 
L 29.296875 69 
L 17.578125 69 
L 17.578125 -6.203125 
L 29.296875 -6.203125 
L 29.296875 -13.1875 
L 8.59375 -13.1875 
z
" id="DejaVuSans-91"/>
      <path d="M 52 44.1875 
Q 55.375 50.25 60.0625 53.125 
Q 64.75 56 71.09375 56 
Q 79.640625 56 84.28125 50.015625 
Q 88.921875 44.046875 88.921875 33.015625 
L 88.921875 0 
L 79.890625 0 
L 79.890625 32.71875 
Q 79.890625 40.578125 77.09375 44.375 
Q 74.3125 48.1875 68.609375 48.1875 
Q 61.625 48.1875 57.5625 43.546875 
Q 53.515625 38.921875 53.515625 30.90625 
L 53.515625 0 
L 44.484375 0 
L 44.484375 32.71875 
Q 44.484375 40.625 41.703125 44.40625 
Q 38.921875 48.1875 33.109375 48.1875 
Q 26.21875 48.1875 22.15625 43.53125 
Q 18.109375 38.875 18.109375 30.90625 
L 18.109375 0 
L 9.078125 0 
L 9.078125 54.6875 
L 18.109375 54.6875 
L 18.109375 46.1875 
Q 21.1875 51.21875 25.484375 53.609375 
Q 29.78125 56 35.6875 56 
Q 41.65625 56 45.828125 52.96875 
Q 50 49.953125 52 44.1875 
z
" id="DejaVuSans-109"/>
      <path d="M 30.421875 75.984375 
L 30.421875 -13.1875 
L 9.71875 -13.1875 
L 9.71875 -6.203125 
L 21.390625 -6.203125 
L 21.390625 69 
L 9.71875 69 
L 9.71875 75.984375 
z
" id="DejaVuSans-93"/>
     </defs>
     <g transform="translate(168.395375 305.28575)scale(0.12 -0.12)">
      <use transform="translate(0 0.584375)" xlink:href="#DejaVuSans-Oblique-120"/>
      <use transform="translate(63.645833 38.865625)scale(0.7)" xlink:href="#Cmsy10-48"/>
      <use transform="translate(59.179688 -26.759375)scale(0.7)" xlink:href="#DejaVuSans-49"/>
      <use transform="translate(106.450195 0.584375)" xlink:href="#DejaVuSans-32"/>
      <use transform="translate(138.237305 0.584375)" xlink:href="#DejaVuSans-91"/>
      <use transform="translate(177.250977 0.584375)" xlink:href="#DejaVuSans-109"/>
      <use transform="translate(274.663086 0.584375)" xlink:href="#DejaVuSans-109"/>
      <use transform="translate(372.075195 0.584375)" xlink:href="#DejaVuSans-93"/>
     </g>
    </g>
   </g>
   <g id="matplotlib.axis_2">
    <g id="ytick_1">
     <g id="line2d_11">
      <path clip-path="url(#p8ef3bf8b68)" d="M 60.059375 257.378121 
L 326.171375 257.378121 
" style="fill:none;stroke:#b0b0b0;stroke-linecap:square;stroke-width:0.8;"/>
     </g>
     <g id="line2d_12">
      <defs>
       <path d="M 0 0 
L -3.5 0 
" id="m9e8ac89ac0" style="stroke:#000000;stroke-width:0.8;"/>
      </defs>
      <g>
       <use style="stroke:#000000;stroke-width:0.8;" x="60.059375" xlink:href="#m9e8ac89ac0" y="257.378121"/>
      </g>
     </g>
     <g id="text_7">
      <!-- −1.0 -->
      <g transform="translate(23.92 261.937183)scale(0.12 -0.12)">
       <use xlink:href="#DejaVuSans-8722"/>
       <use x="83.789062" xlink:href="#DejaVuSans-49"/>
       <use x="147.412109" xlink:href="#DejaVuSans-46"/>
       <use x="179.199219" xlink:href="#DejaVuSans-48"/>
      </g>
     </g>
    </g>
    <g id="ytick_2">
     <g id="line2d_13">
      <path clip-path="url(#p8ef3bf8b68)" d="M 60.059375 197.937969 
L 326.171375 197.937969 
" style="fill:none;stroke:#b0b0b0;stroke-linecap:square;stroke-width:0.8;"/>
     </g>
     <g id="line2d_14">
      <g>
       <use style="stroke:#000000;stroke-width:0.8;" x="60.059375" xlink:href="#m9e8ac89ac0" y="197.937969"/>
      </g>
     </g>
     <g id="text_8">
      <!-- −0.5 -->
      <g transform="translate(23.92 202.497031)scale(0.12 -0.12)">
       <use xlink:href="#DejaVuSans-8722"/>
       <use x="83.789062" xlink:href="#DejaVuSans-48"/>
       <use x="147.412109" xlink:href="#DejaVuSans-46"/>
       <use x="179.199219" xlink:href="#DejaVuSans-53"/>
      </g>
     </g>
    </g>
    <g id="ytick_3">
     <g id="line2d_15">
      <path clip-path="url(#p8ef3bf8b68)" d="M 60.059375 138.497816 
L 326.171375 138.497816 
" style="fill:none;stroke:#b0b0b0;stroke-linecap:square;stroke-width:0.8;"/>
     </g>
     <g id="line2d_16">
      <g>
       <use style="stroke:#000000;stroke-width:0.8;" x="60.059375" xlink:href="#m9e8ac89ac0" y="138.497816"/>
      </g>
     </g>
     <g id="text_9">
      <!-- 0.0 -->
      <g transform="translate(33.975625 143.056879)scale(0.12 -0.12)">
       <use xlink:href="#DejaVuSans-48"/>
       <use x="63.623047" xlink:href="#DejaVuSans-46"/>
       <use x="95.410156" xlink:href="#DejaVuSans-48"/>
      </g>
     </g>
    </g>
    <g id="ytick_4">
     <g id="line2d_17">
      <path clip-path="url(#p8ef3bf8b68)" d="M 60.059375 79.057664 
L 326.171375 79.057664 
" style="fill:none;stroke:#b0b0b0;stroke-linecap:square;stroke-width:0.8;"/>
     </g>
     <g id="line2d_18">
      <g>
       <use style="stroke:#000000;stroke-width:0.8;" x="60.059375" xlink:href="#m9e8ac89ac0" y="79.057664"/>
      </g>
     </g>
     <g id="text_10">
      <!-- 0.5 -->
      <g transform="translate(33.975625 83.616726)scale(0.12 -0.12)">
       <use xlink:href="#DejaVuSans-48"/>
       <use x="63.623047" xlink:href="#DejaVuSans-46"/>
       <use x="95.410156" xlink:href="#DejaVuSans-53"/>
      </g>
     </g>
    </g>
    <g id="ytick_5">
     <g id="line2d_19">
      <path clip-path="url(#p8ef3bf8b68)" d="M 60.059375 19.617511 
L 326.171375 19.617511 
" style="fill:none;stroke:#b0b0b0;stroke-linecap:square;stroke-width:0.8;"/>
     </g>
     <g id="line2d_20">
      <g>
       <use style="stroke:#000000;stroke-width:0.8;" x="60.059375" xlink:href="#m9e8ac89ac0" y="19.617511"/>
      </g>
     </g>
     <g id="text_11">
      <!-- 1.0 -->
      <g transform="translate(33.975625 24.176574)scale(0.12 -0.12)">
       <use xlink:href="#DejaVuSans-49"/>
       <use x="63.623047" xlink:href="#DejaVuSans-46"/>
       <use x="95.410156" xlink:href="#DejaVuSans-48"/>
      </g>
     </g>
    </g>
    <g id="text_12">
     <!-- $x_2'$ [mm] -->
     <defs>
      <path d="M 19.1875 8.296875 
L 53.609375 8.296875 
L 53.609375 0 
L 7.328125 0 
L 7.328125 8.296875 
Q 12.9375 14.109375 22.625 23.890625 
Q 32.328125 33.6875 34.8125 36.53125 
Q 39.546875 41.84375 41.421875 45.53125 
Q 43.3125 49.21875 43.3125 52.78125 
Q 43.3125 58.59375 39.234375 62.25 
Q 35.15625 65.921875 28.609375 65.921875 
Q 23.96875 65.921875 18.8125 64.3125 
Q 13.671875 62.703125 7.8125 59.421875 
L 7.8125 69.390625 
Q 13.765625 71.78125 18.9375 73 
Q 24.125 74.21875 28.421875 74.21875 
Q 39.75 74.21875 46.484375 68.546875 
Q 53.21875 62.890625 53.21875 53.421875 
Q 53.21875 48.921875 51.53125 44.890625 
Q 49.859375 40.875 45.40625 35.40625 
Q 44.1875 33.984375 37.640625 27.21875 
Q 31.109375 20.453125 19.1875 8.296875 
z
" id="DejaVuSans-50"/>
     </defs>
     <g transform="translate(16.56 164.976)rotate(-90)scale(0.12 -0.12)">
      <use transform="translate(0 0.584375)" xlink:href="#DejaVuSans-Oblique-120"/>
      <use transform="translate(63.645833 38.865625)scale(0.7)" xlink:href="#Cmsy10-48"/>
      <use transform="translate(59.179688 -26.759375)scale(0.7)" xlink:href="#DejaVuSans-50"/>
      <use transform="translate(106.450195 0.584375)" xlink:href="#DejaVuSans-32"/>
      <use transform="translate(138.237305 0.584375)" xlink:href="#DejaVuSans-91"/>
      <use transform="translate(177.250977 0.584375)" xlink:href="#DejaVuSans-109"/>
      <use transform="translate(274.663086 0.584375)" xlink:href="#DejaVuSans-109"/>
      <use transform="translate(372.075195 0.584375)" xlink:href="#DejaVuSans-93"/>
     </g>
    </g>
   </g>
   <g id="line2d_21">
    <defs>
     <path d="M 0 1 
C 0.265203 1 0.51958 0.894634 0.707107 0.707107 
C 0.894634 0.51958 1 0.265203 1 0 
C 1 -0.265203 0.894634 -0.51958 0.707107 -0.707107 
C 0.51958 -0.894634 0.265203 -1 0 -1 
C -0.265203 -1 -0.51958 -0.894634 -0.707107 -0.707107 
C -0.894634 -0.51958 -1 -0.265203 -1 0 
C -1 0.265203 -0.894634 0.51958 -0.707107 0.707107 
C -0.51958 0.894634 -0.265203 1 0 1 
z
" id="m078ae52737" style="stroke:#000000;"/>
    </defs>
    <g clip-path="url(#p8ef3bf8b68)">
     <use style="stroke:#000000;" x="191.435388" xlink:href="#m078ae52737" y="138.497816"/>
    </g>
   </g>
   <g id="line2d_22">
    <defs>
     <path d="M 0 1 
C 0.265203 1 0.51958 0.894634 0.707107 0.707107 
C 0.894634 0.51958 1 0.265203 1 0 
C 1 -0.265203 0.894634 -0.51958 0.707107 -0.707107 
C 0.51958 -0.894634 0.265203 -1 0 -1 
C -0.265203 -1 -0.51958 -0.894634 -0.707107 -0.707107 
C -0.894634 -0.51958 -1 -0.265203 -1 0 
C -1 0.265203 -0.894634 0.51958 -0.707107 0.707107 
C -0.51958 0.894634 -0.265203 1 0 1 
z
" id="m6ff87d7ef1" style="stroke:#008000;"/>
    </defs>
    <g clip-path="url(#p8ef3bf8b68)">
     <use style="fill:#008000;stroke:#008000;" x="189.461884" xlink:href="#m6ff87d7ef1" y="136.746795"/>
    </g>
   </g>
   <g id="line2d_23">
    <path clip-path="url(#p8ef3bf8b68)" d="M 306.543156 138.497816 
L 306.311407 130.957961 
L 305.617092 123.448467 
L 304.463009 115.999571 
L 302.853802 108.641267 
L 300.795954 101.403185 
L 298.297749 94.31447 
L 295.369246 87.403666 
L 292.022239 80.6986 
L 288.270204 74.226271 
L 284.12825 68.012741 
L 279.613054 62.083029 
L 274.742798 56.461013 
L 269.537092 51.16933 
L 264.016898 46.229288 
L 258.204444 41.660779 
L 252.123135 37.482198 
L 245.797457 33.710372 
L 239.252883 30.360487 
L 232.515764 27.446034 
L 225.61323 24.978747 
L 218.573073 22.968561 
L 211.423642 21.42357 
L 204.193726 20.349997 
L 196.912436 19.752162 
L 189.609092 19.632475 
L 182.313102 19.991417 
L 175.053845 20.827542 
L 167.86055 22.137483 
L 160.762182 23.915967 
L 153.787325 26.155831 
L 146.964063 28.848057 
L 140.319871 31.981803 
L 133.881504 35.544452 
L 127.674886 39.521658 
L 121.725009 43.897406 
L 116.055831 48.654076 
L 110.69018 53.772516 
L 105.649661 59.232114 
L 100.954571 65.010888 
L 96.623815 71.085567 
L 92.674832 77.431691 
L 89.123524 84.023708 
L 85.984188 90.835072 
L 83.269468 97.838357 
L 80.990294 105.005364 
L 79.155843 112.307233 
L 77.773502 119.714562 
L 76.848837 127.197525 
L 76.385572 134.72599 
L 76.385572 142.269643 
L 76.848837 149.798108 
L 77.773502 157.28107 
L 79.155843 164.688399 
L 80.990294 171.990268 
L 83.269468 179.157275 
L 85.984188 186.16056 
L 89.123524 192.971925 
L 92.674832 199.563941 
L 96.623815 205.910066 
L 100.954571 211.984745 
L 105.649661 217.763518 
L 110.69018 223.223116 
L 116.055831 228.341556 
L 121.725009 233.098226 
L 127.674886 237.473974 
L 133.881504 241.45118 
L 140.319871 245.013829 
L 146.964063 248.147576 
L 153.787325 250.839801 
L 160.762182 253.079666 
L 167.86055 254.858149 
L 175.053845 256.168091 
L 182.313102 257.004216 
L 189.609092 257.363157 
L 196.912436 257.24347 
L 204.193726 256.645636 
L 211.423642 255.572062 
L 218.573073 254.027072 
L 225.61323 252.016886 
L 232.515764 249.549598 
L 239.252883 246.635145 
L 245.797457 243.285261 
L 252.123135 239.513434 
L 258.204444 235.334854 
L 264.016898 230.766344 
L 269.537092 225.826302 
L 274.742798 220.534619 
L 279.613054 214.912603 
L 284.12825 208.982891 
L 288.270204 202.769361 
L 292.022239 196.297032 
L 295.369246 189.591966 
L 298.297749 182.681162 
L 300.795954 175.592447 
L 302.853802 168.354365 
L 304.463009 160.996062 
L 305.617092 153.547166 
L 306.311407 146.037671 
L 306.543156 138.497816 
L 306.543156 138.497816 
" style="fill:none;stroke:#000000;stroke-linecap:square;stroke-width:0.5;"/>
   </g>
   <g id="line2d_24">
    <path clip-path="url(#p8ef3bf8b68)" d="M 313.98552 143.348535 
L 313.552404 135.673145 
L 312.635513 128.01618 
L 311.238538 120.408471 
L 309.367104 112.880653 
L 307.028748 105.463036 
L 304.232885 98.18549 
L 300.990772 91.077318 
L 297.315466 84.167142 
L 293.221764 77.482788 
L 288.726151 71.05117 
L 283.846729 64.898187 
L 278.603146 59.048614 
L 273.016516 53.526006 
L 267.109334 48.3526 
L 260.905386 43.549228 
L 254.429653 39.135231 
L 247.708212 35.128383 
L 240.768126 31.544818 
L 233.637342 28.398965 
L 226.344571 25.703493 
L 218.919181 23.469254 
L 211.391069 21.705246 
L 203.79055 20.41857 
L 196.148227 19.614409 
L 188.494874 19.296 
L 180.861308 19.464625 
L 173.278266 20.119606 
L 165.776284 21.258305 
L 158.385568 22.876137 
L 151.135879 24.966587 
L 144.056408 27.521238 
L 137.175663 30.529803 
L 130.521348 33.980169 
L 124.12026 37.85844 
L 117.998173 42.149002 
L 112.179738 46.834577 
L 106.688384 51.896298 
L 101.546223 57.313784 
L 96.77396 63.06522 
L 92.390812 69.127447 
L 88.414429 75.476055 
L 84.860821 82.08548 
L 81.744298 88.929108 
L 79.077408 95.979383 
L 76.870892 103.207915 
L 75.133632 110.585598 
L 73.872626 118.082725 
L 73.092949 125.669106 
L 72.797743 133.314195 
L 72.988195 140.987207 
L 73.663539 148.657246 
L 74.821055 156.293428 
L 76.456082 163.865003 
L 78.562037 171.341485 
L 81.13044 178.692767 
L 84.150949 185.889249 
L 87.6114 192.901954 
L 91.497861 199.702643 
L 95.794682 206.263932 
L 100.48456 212.559402 
L 105.548612 218.563703 
L 110.966447 224.252658 
L 116.716248 229.603358 
L 122.774863 234.59426 
L 129.117897 239.205266 
L 135.719807 243.417809 
L 142.554012 247.214928 
L 149.592991 250.581331 
L 156.808401 253.503465 
L 164.171188 255.969562 
L 171.651705 257.969693 
L 179.219831 259.495803 
L 186.845091 260.541748 
L 194.496781 261.103316 
L 202.144091 261.178245 
L 209.756227 260.766235 
L 217.302538 259.868943 
L 224.752638 258.489984 
L 232.076528 256.634909 
L 239.244717 254.311188 
L 246.228341 251.528179 
L 252.99928 248.297087 
L 259.530269 244.630923 
L 265.795011 240.544449 
L 271.768279 236.05412 
L 277.426022 231.178017 
L 282.745458 225.935774 
L 287.705167 220.3485 
L 292.285178 214.438693 
L 296.467049 208.23015 
L 300.233941 201.74787 
L 303.570687 195.017955 
L 306.463849 188.067504 
L 308.90178 180.924505 
L 310.874661 173.617718 
L 312.374549 166.176567 
L 313.395405 158.631015 
L 313.933117 151.011443 
L 313.98552 143.348535 
L 313.98552 143.348535 
" style="fill:none;stroke:#0000ff;stroke-linecap:square;"/>
   </g>
   <g id="line2d_25">
    <defs>
     <path d="M 0 1 
C 0.265203 1 0.51958 0.894634 0.707107 0.707107 
C 0.894634 0.51958 1 0.265203 1 0 
C 1 -0.265203 0.894634 -0.51958 0.707107 -0.707107 
C 0.51958 -0.894634 0.265203 -1 0 -1 
C -0.265203 -1 -0.51958 -0.894634 -0.707107 -0.707107 
C -0.894634 -0.51958 -1 -0.265203 -1 0 
C -1 0.265203 -0.894634 0.51958 -0.707107 0.707107 
C -0.51958 0.894634 -0.265203 1 0 1 
z
" id="m72589944d4" style="stroke:#ff0000;"/>
    </defs>
    <g clip-path="url(#p8ef3bf8b68)">
     <use style="fill:#ff0000;stroke:#ff0000;" x="314.075375" xlink:href="#m72589944d4" y="143.966337"/>
     <use style="fill:#ff0000;stroke:#ff0000;" x="313.349811" xlink:href="#m72589944d4" y="135.81473"/>
     <use style="fill:#ff0000;stroke:#ff0000;" x="312.880417" xlink:href="#m72589944d4" y="128.061196"/>
     <use style="fill:#ff0000;stroke:#ff0000;" x="311.743759" xlink:href="#m72589944d4" y="120.255489"/>
     <use style="fill:#ff0000;stroke:#ff0000;" x="309.752457" xlink:href="#m72589944d4" y="113.231317"/>
     <use style="fill:#ff0000;stroke:#ff0000;" x="307.42906" xlink:href="#m72589944d4" y="106.200746"/>
     <use style="fill:#ff0000;stroke:#ff0000;" x="304.698551" xlink:href="#m72589944d4" y="99.127897"/>
     <use style="fill:#ff0000;stroke:#ff0000;" x="301.436169" xlink:href="#m72589944d4" y="92.123868"/>
     <use style="fill:#ff0000;stroke:#ff0000;" x="297.581351" xlink:href="#m72589944d4" y="85.099068"/>
     <use style="fill:#ff0000;stroke:#ff0000;" x="293.060172" xlink:href="#m72589944d4" y="78.042843"/>
     <use style="fill:#ff0000;stroke:#ff0000;" x="289.424926" xlink:href="#m72589944d4" y="71.344964"/>
     <use style="fill:#ff0000;stroke:#ff0000;" x="284.387066" xlink:href="#m72589944d4" y="65.009789"/>
     <use style="fill:#ff0000;stroke:#ff0000;" x="279.132892" xlink:href="#m72589944d4" y="58.338684"/>
     <use style="fill:#ff0000;stroke:#ff0000;" x="273.614213" xlink:href="#m72589944d4" y="52.576329"/>
     <use style="fill:#ff0000;stroke:#ff0000;" x="267.629224" xlink:href="#m72589944d4" y="47.929914"/>
     <use style="fill:#ff0000;stroke:#ff0000;" x="261.24583" xlink:href="#m72589944d4" y="43.549997"/>
     <use style="fill:#ff0000;stroke:#ff0000;" x="254.686579" xlink:href="#m72589944d4" y="39.528104"/>
     <use style="fill:#ff0000;stroke:#ff0000;" x="247.92466" xlink:href="#m72589944d4" y="34.91567"/>
     <use style="fill:#ff0000;stroke:#ff0000;" x="241.172036" xlink:href="#m72589944d4" y="30.818897"/>
     <use style="fill:#ff0000;stroke:#ff0000;" x="234.399213" xlink:href="#m72589944d4" y="27.984494"/>
     <use style="fill:#ff0000;stroke:#ff0000;" x="227.53864" xlink:href="#m72589944d4" y="25.748475"/>
     <use style="fill:#ff0000;stroke:#ff0000;" x="220.451703" xlink:href="#m72589944d4" y="23.653035"/>
     <use style="fill:#ff0000;stroke:#ff0000;" x="212.708901" xlink:href="#m72589944d4" y="21.875734"/>
     <use style="fill:#ff0000;stroke:#ff0000;" x="204.499819" xlink:href="#m72589944d4" y="20.959375"/>
     <use style="fill:#ff0000;stroke:#ff0000;" x="196.428905" xlink:href="#m72589944d4" y="19.915381"/>
     <use style="fill:#ff0000;stroke:#ff0000;" x="188.849917" xlink:href="#m72589944d4" y="19.631037"/>
     <use style="fill:#ff0000;stroke:#ff0000;" x="181.03053" xlink:href="#m72589944d4" y="19.58306"/>
     <use style="fill:#ff0000;stroke:#ff0000;" x="173.366145" xlink:href="#m72589944d4" y="19.819642"/>
     <use style="fill:#ff0000;stroke:#ff0000;" x="166.08214" xlink:href="#m72589944d4" y="20.90434"/>
     <use style="fill:#ff0000;stroke:#ff0000;" x="158.669403" xlink:href="#m72589944d4" y="22.696423"/>
     <use style="fill:#ff0000;stroke:#ff0000;" x="151.403138" xlink:href="#m72589944d4" y="24.898166"/>
     <use style="fill:#ff0000;stroke:#ff0000;" x="144.082645" xlink:href="#m72589944d4" y="27.591072"/>
     <use style="fill:#ff0000;stroke:#ff0000;" x="137.416545" xlink:href="#m72589944d4" y="30.429349"/>
     <use style="fill:#ff0000;stroke:#ff0000;" x="131.339691" xlink:href="#m72589944d4" y="33.448385"/>
     <use style="fill:#ff0000;stroke:#ff0000;" x="124.946226" xlink:href="#m72589944d4" y="37.168621"/>
     <use style="fill:#ff0000;stroke:#ff0000;" x="118.331553" xlink:href="#m72589944d4" y="41.710621"/>
     <use style="fill:#ff0000;stroke:#ff0000;" x="112.716415" xlink:href="#m72589944d4" y="46.557771"/>
     <use style="fill:#ff0000;stroke:#ff0000;" x="107.328926" xlink:href="#m72589944d4" y="52.066797"/>
     <use style="fill:#ff0000;stroke:#ff0000;" x="102.311321" xlink:href="#m72589944d4" y="57.862237"/>
     <use style="fill:#ff0000;stroke:#ff0000;" x="97.400776" xlink:href="#m72589944d4" y="63.549472"/>
     <use style="fill:#ff0000;stroke:#ff0000;" x="92.270332" xlink:href="#m72589944d4" y="69.791902"/>
     <use style="fill:#ff0000;stroke:#ff0000;" x="87.971301" xlink:href="#m72589944d4" y="76.266039"/>
     <use style="fill:#ff0000;stroke:#ff0000;" x="84.256573" xlink:href="#m72589944d4" y="82.884826"/>
     <use style="fill:#ff0000;stroke:#ff0000;" x="81.120186" xlink:href="#m72589944d4" y="89.516136"/>
     <use style="fill:#ff0000;stroke:#ff0000;" x="78.766899" xlink:href="#m72589944d4" y="96.232986"/>
     <use style="fill:#ff0000;stroke:#ff0000;" x="76.620841" xlink:href="#m72589944d4" y="103.292724"/>
     <use style="fill:#ff0000;stroke:#ff0000;" x="74.765961" xlink:href="#m72589944d4" y="110.503252"/>
     <use style="fill:#ff0000;stroke:#ff0000;" x="73.14186" xlink:href="#m72589944d4" y="117.947796"/>
     <use style="fill:#ff0000;stroke:#ff0000;" x="72.155375" xlink:href="#m72589944d4" y="125.823165"/>
     <use style="fill:#ff0000;stroke:#ff0000;" x="72.362644" xlink:href="#m72589944d4" y="133.125192"/>
     <use style="fill:#ff0000;stroke:#ff0000;" x="72.626935" xlink:href="#m72589944d4" y="141.098263"/>
     <use style="fill:#ff0000;stroke:#ff0000;" x="73.570231" xlink:href="#m72589944d4" y="149.302379"/>
     <use style="fill:#ff0000;stroke:#ff0000;" x="74.939848" xlink:href="#m72589944d4" y="157.18813"/>
     <use style="fill:#ff0000;stroke:#ff0000;" x="76.04994" xlink:href="#m72589944d4" y="165.188591"/>
     <use style="fill:#ff0000;stroke:#ff0000;" x="78.707516" xlink:href="#m72589944d4" y="172.510867"/>
     <use style="fill:#ff0000;stroke:#ff0000;" x="81.653465" xlink:href="#m72589944d4" y="179.753652"/>
     <use style="fill:#ff0000;stroke:#ff0000;" x="84.689394" xlink:href="#m72589944d4" y="186.794279"/>
     <use style="fill:#ff0000;stroke:#ff0000;" x="87.990241" xlink:href="#m72589944d4" y="193.313087"/>
     <use style="fill:#ff0000;stroke:#ff0000;" x="91.654623" xlink:href="#m72589944d4" y="199.624724"/>
     <use style="fill:#ff0000;stroke:#ff0000;" x="96.609586" xlink:href="#m72589944d4" y="205.85679"/>
     <use style="fill:#ff0000;stroke:#ff0000;" x="102.390157" xlink:href="#m72589944d4" y="211.813085"/>
     <use style="fill:#ff0000;stroke:#ff0000;" x="107.208428" xlink:href="#m72589944d4" y="218.266679"/>
     <use style="fill:#ff0000;stroke:#ff0000;" x="111.615806" xlink:href="#m72589944d4" y="224.741668"/>
     <use style="fill:#ff0000;stroke:#ff0000;" x="116.687487" xlink:href="#m72589944d4" y="229.875614"/>
     <use style="fill:#ff0000;stroke:#ff0000;" x="122.173905" xlink:href="#m72589944d4" y="234.728821"/>
     <use style="fill:#ff0000;stroke:#ff0000;" x="129.188072" xlink:href="#m72589944d4" y="239.677488"/>
     <use style="fill:#ff0000;stroke:#ff0000;" x="135.802348" xlink:href="#m72589944d4" y="243.940212"/>
     <use style="fill:#ff0000;stroke:#ff0000;" x="142.176759" xlink:href="#m72589944d4" y="248.313272"/>
     <use style="fill:#ff0000;stroke:#ff0000;" x="148.840431" xlink:href="#m72589944d4" y="251.726462"/>
     <use style="fill:#ff0000;stroke:#ff0000;" x="155.989729" xlink:href="#m72589944d4" y="253.988588"/>
     <use style="fill:#ff0000;stroke:#ff0000;" x="163.232962" xlink:href="#m72589944d4" y="256.242758"/>
     <use style="fill:#ff0000;stroke:#ff0000;" x="170.511522" xlink:href="#m72589944d4" y="257.947853"/>
     <use style="fill:#ff0000;stroke:#ff0000;" x="178.001055" xlink:href="#m72589944d4" y="259.771605"/>
     <use style="fill:#ff0000;stroke:#ff0000;" x="185.596773" xlink:href="#m72589944d4" y="260.764274"/>
     <use style="fill:#ff0000;stroke:#ff0000;" x="193.571052" xlink:href="#m72589944d4" y="261.216"/>
     <use style="fill:#ff0000;stroke:#ff0000;" x="201.36835" xlink:href="#m72589944d4" y="261.161725"/>
     <use style="fill:#ff0000;stroke:#ff0000;" x="208.870059" xlink:href="#m72589944d4" y="260.950554"/>
     <use style="fill:#ff0000;stroke:#ff0000;" x="216.353577" xlink:href="#m72589944d4" y="260.052686"/>
     <use style="fill:#ff0000;stroke:#ff0000;" x="223.855703" xlink:href="#m72589944d4" y="258.724941"/>
     <use style="fill:#ff0000;stroke:#ff0000;" x="231.267702" xlink:href="#m72589944d4" y="256.377799"/>
     <use style="fill:#ff0000;stroke:#ff0000;" x="238.343289" xlink:href="#m72589944d4" y="254.104713"/>
     <use style="fill:#ff0000;stroke:#ff0000;" x="245.216999" xlink:href="#m72589944d4" y="251.733786"/>
     <use style="fill:#ff0000;stroke:#ff0000;" x="251.683337" xlink:href="#m72589944d4" y="248.278692"/>
     <use style="fill:#ff0000;stroke:#ff0000;" x="258.144652" xlink:href="#m72589944d4" y="244.664108"/>
     <use style="fill:#ff0000;stroke:#ff0000;" x="264.373272" xlink:href="#m72589944d4" y="241.241708"/>
     <use style="fill:#ff0000;stroke:#ff0000;" x="270.914057" xlink:href="#m72589944d4" y="237.113728"/>
     <use style="fill:#ff0000;stroke:#ff0000;" x="277.361856" xlink:href="#m72589944d4" y="231.956471"/>
     <use style="fill:#ff0000;stroke:#ff0000;" x="282.607289" xlink:href="#m72589944d4" y="227.264849"/>
     <use style="fill:#ff0000;stroke:#ff0000;" x="287.929683" xlink:href="#m72589944d4" y="222.089073"/>
     <use style="fill:#ff0000;stroke:#ff0000;" x="292.999748" xlink:href="#m72589944d4" y="215.712486"/>
     <use style="fill:#ff0000;stroke:#ff0000;" x="297.404999" xlink:href="#m72589944d4" y="208.57745"/>
     <use style="fill:#ff0000;stroke:#ff0000;" x="300.672978" xlink:href="#m72589944d4" y="202.001967"/>
     <use style="fill:#ff0000;stroke:#ff0000;" x="304.423326" xlink:href="#m72589944d4" y="195.11472"/>
     <use style="fill:#ff0000;stroke:#ff0000;" x="307.400782" xlink:href="#m72589944d4" y="188.38617"/>
     <use style="fill:#ff0000;stroke:#ff0000;" x="309.246742" xlink:href="#m72589944d4" y="181.601096"/>
     <use style="fill:#ff0000;stroke:#ff0000;" x="310.794252" xlink:href="#m72589944d4" y="173.791742"/>
     <use style="fill:#ff0000;stroke:#ff0000;" x="311.918487" xlink:href="#m72589944d4" y="166.113765"/>
     <use style="fill:#ff0000;stroke:#ff0000;" x="312.548005" xlink:href="#m72589944d4" y="159.208646"/>
     <use style="fill:#ff0000;stroke:#ff0000;" x="313.093223" xlink:href="#m72589944d4" y="151.891394"/>
     <use style="fill:#ff0000;stroke:#ff0000;" x="314.075375" xlink:href="#m72589944d4" y="143.966337"/>
    </g>
   </g>
   <g id="patch_4">
    <path d="M 60.059375 273.312 
L 60.059375 7.2 
" style="fill:none;stroke:#000000;stroke-linecap:square;stroke-linejoin:miter;stroke-width:0.8;"/>
   </g>
   <g id="patch_5">
    <path d="M 326.171375 273.312 
L 326.171375 7.2 
" style="fill:none;stroke:#000000;stroke-linecap:square;stroke-linejoin:miter;stroke-width:0.8;"/>
   </g>
   <g id="patch_6">
    <path d="M 60.059375 273.312 
L 326.171375 273.312 
" style="fill:none;stroke:#000000;stroke-linecap:square;stroke-linejoin:miter;stroke-width:0.8;"/>
   </g>
   <g id="patch_7">
    <path d="M 60.059375 7.2 
L 326.171375 7.2 
" style="fill:none;stroke:#000000;stroke-linecap:square;stroke-linejoin:miter;stroke-width:0.8;"/>
   </g>
   <g id="legend_1">
    <g id="patch_8">
     <path d="M 119.547875 128.559825 
L 266.682875 128.559825 
Q 269.082875 128.559825 269.082875 126.159825 
L 269.082875 74.518575 
Q 269.082875 72.118575 266.682875 72.118575 
L 119.547875 72.118575 
Q 117.147875 72.118575 117.147875 74.518575 
L 117.147875 126.159825 
Q 117.147875 128.559825 119.547875 128.559825 
z
" style="fill:#ffffff;opacity:0.2;stroke:#cccccc;stroke-linejoin:miter;"/>
    </g>
    <g id="line2d_26">
     <path d="M 121.947875 81.8367 
L 145.947875 81.8367 
" style="fill:none;stroke:#000000;stroke-linecap:square;stroke-width:0.5;"/>
    </g>
    <g id="line2d_27"/>
    <g id="text_13">
     <!-- undeformed -->
     <defs>
      <path d="M 8.5 21.578125 
L 8.5 54.6875 
L 17.484375 54.6875 
L 17.484375 21.921875 
Q 17.484375 14.15625 20.5 10.265625 
Q 23.53125 6.390625 29.59375 6.390625 
Q 36.859375 6.390625 41.078125 11.03125 
Q 45.3125 15.671875 45.3125 23.6875 
L 45.3125 54.6875 
L 54.296875 54.6875 
L 54.296875 0 
L 45.3125 0 
L 45.3125 8.40625 
Q 42.046875 3.421875 37.71875 1 
Q 33.40625 -1.421875 27.6875 -1.421875 
Q 18.265625 -1.421875 13.375 4.4375 
Q 8.5 10.296875 8.5 21.578125 
z
M 31.109375 56 
z
" id="DejaVuSans-117"/>
      <path d="M 54.890625 33.015625 
L 54.890625 0 
L 45.90625 0 
L 45.90625 32.71875 
Q 45.90625 40.484375 42.875 44.328125 
Q 39.84375 48.1875 33.796875 48.1875 
Q 26.515625 48.1875 22.3125 43.546875 
Q 18.109375 38.921875 18.109375 30.90625 
L 18.109375 0 
L 9.078125 0 
L 9.078125 54.6875 
L 18.109375 54.6875 
L 18.109375 46.1875 
Q 21.34375 51.125 25.703125 53.5625 
Q 30.078125 56 35.796875 56 
Q 45.21875 56 50.046875 50.171875 
Q 54.890625 44.34375 54.890625 33.015625 
z
" id="DejaVuSans-110"/>
      <path d="M 45.40625 46.390625 
L 45.40625 75.984375 
L 54.390625 75.984375 
L 54.390625 0 
L 45.40625 0 
L 45.40625 8.203125 
Q 42.578125 3.328125 38.25 0.953125 
Q 33.9375 -1.421875 27.875 -1.421875 
Q 17.96875 -1.421875 11.734375 6.484375 
Q 5.515625 14.40625 5.515625 27.296875 
Q 5.515625 40.1875 11.734375 48.09375 
Q 17.96875 56 27.875 56 
Q 33.9375 56 38.25 53.625 
Q 42.578125 51.265625 45.40625 46.390625 
z
M 14.796875 27.296875 
Q 14.796875 17.390625 18.875 11.75 
Q 22.953125 6.109375 30.078125 6.109375 
Q 37.203125 6.109375 41.296875 11.75 
Q 45.40625 17.390625 45.40625 27.296875 
Q 45.40625 37.203125 41.296875 42.84375 
Q 37.203125 48.484375 30.078125 48.484375 
Q 22.953125 48.484375 18.875 42.84375 
Q 14.796875 37.203125 14.796875 27.296875 
z
" id="DejaVuSans-100"/>
      <path d="M 56.203125 29.59375 
L 56.203125 25.203125 
L 14.890625 25.203125 
Q 15.484375 15.921875 20.484375 11.0625 
Q 25.484375 6.203125 34.421875 6.203125 
Q 39.59375 6.203125 44.453125 7.46875 
Q 49.3125 8.734375 54.109375 11.28125 
L 54.109375 2.78125 
Q 49.265625 0.734375 44.1875 -0.34375 
Q 39.109375 -1.421875 33.890625 -1.421875 
Q 20.796875 -1.421875 13.15625 6.1875 
Q 5.515625 13.8125 5.515625 26.8125 
Q 5.515625 40.234375 12.765625 48.109375 
Q 20.015625 56 32.328125 56 
Q 43.359375 56 49.78125 48.890625 
Q 56.203125 41.796875 56.203125 29.59375 
z
M 47.21875 32.234375 
Q 47.125 39.59375 43.09375 43.984375 
Q 39.0625 48.390625 32.421875 48.390625 
Q 24.90625 48.390625 20.390625 44.140625 
Q 15.875 39.890625 15.1875 32.171875 
z
" id="DejaVuSans-101"/>
      <path d="M 37.109375 75.984375 
L 37.109375 68.5 
L 28.515625 68.5 
Q 23.6875 68.5 21.796875 66.546875 
Q 19.921875 64.59375 19.921875 59.515625 
L 19.921875 54.6875 
L 34.71875 54.6875 
L 34.71875 47.703125 
L 19.921875 47.703125 
L 19.921875 0 
L 10.890625 0 
L 10.890625 47.703125 
L 2.296875 47.703125 
L 2.296875 54.6875 
L 10.890625 54.6875 
L 10.890625 58.5 
Q 10.890625 67.625 15.140625 71.796875 
Q 19.390625 75.984375 28.609375 75.984375 
z
" id="DejaVuSans-102"/>
      <path d="M 30.609375 48.390625 
Q 23.390625 48.390625 19.1875 42.75 
Q 14.984375 37.109375 14.984375 27.296875 
Q 14.984375 17.484375 19.15625 11.84375 
Q 23.34375 6.203125 30.609375 6.203125 
Q 37.796875 6.203125 41.984375 11.859375 
Q 46.1875 17.53125 46.1875 27.296875 
Q 46.1875 37.015625 41.984375 42.703125 
Q 37.796875 48.390625 30.609375 48.390625 
z
M 30.609375 56 
Q 42.328125 56 49.015625 48.375 
Q 55.71875 40.765625 55.71875 27.296875 
Q 55.71875 13.875 49.015625 6.21875 
Q 42.328125 -1.421875 30.609375 -1.421875 
Q 18.84375 -1.421875 12.171875 6.21875 
Q 5.515625 13.875 5.515625 27.296875 
Q 5.515625 40.765625 12.171875 48.375 
Q 18.84375 56 30.609375 56 
z
" id="DejaVuSans-111"/>
      <path d="M 41.109375 46.296875 
Q 39.59375 47.171875 37.8125 47.578125 
Q 36.03125 48 33.890625 48 
Q 26.265625 48 22.1875 43.046875 
Q 18.109375 38.09375 18.109375 28.8125 
L 18.109375 0 
L 9.078125 0 
L 9.078125 54.6875 
L 18.109375 54.6875 
L 18.109375 46.1875 
Q 20.953125 51.171875 25.484375 53.578125 
Q 30.03125 56 36.53125 56 
Q 37.453125 56 38.578125 55.875 
Q 39.703125 55.765625 41.0625 55.515625 
z
" id="DejaVuSans-114"/>
     </defs>
     <g transform="translate(155.547875 86.0367)scale(0.12 -0.12)">
      <use xlink:href="#DejaVuSans-117"/>
      <use x="63.378906" xlink:href="#DejaVuSans-110"/>
      <use x="126.757812" xlink:href="#DejaVuSans-100"/>
      <use x="190.234375" xlink:href="#DejaVuSans-101"/>
      <use x="251.757812" xlink:href="#DejaVuSans-102"/>
      <use x="286.962891" xlink:href="#DejaVuSans-111"/>
      <use x="348.144531" xlink:href="#DejaVuSans-114"/>
      <use x="389.242188" xlink:href="#DejaVuSans-109"/>
      <use x="486.654297" xlink:href="#DejaVuSans-101"/>
      <use x="548.177734" xlink:href="#DejaVuSans-100"/>
     </g>
    </g>
    <g id="line2d_28">
     <path d="M 121.947875 99.45045 
L 145.947875 99.45045 
" style="fill:none;stroke:#0000ff;stroke-linecap:square;"/>
    </g>
    <g id="line2d_29"/>
    <g id="text_14">
     <!-- deformed (model) -->
     <defs>
      <path d="M 31 75.875 
Q 24.46875 64.65625 21.28125 53.65625 
Q 18.109375 42.671875 18.109375 31.390625 
Q 18.109375 20.125 21.3125 9.0625 
Q 24.515625 -2 31 -13.1875 
L 23.1875 -13.1875 
Q 15.875 -1.703125 12.234375 9.375 
Q 8.59375 20.453125 8.59375 31.390625 
Q 8.59375 42.28125 12.203125 53.3125 
Q 15.828125 64.359375 23.1875 75.875 
z
" id="DejaVuSans-40"/>
      <path d="M 9.421875 75.984375 
L 18.40625 75.984375 
L 18.40625 0 
L 9.421875 0 
z
" id="DejaVuSans-108"/>
      <path d="M 8.015625 75.875 
L 15.828125 75.875 
Q 23.140625 64.359375 26.78125 53.3125 
Q 30.421875 42.28125 30.421875 31.390625 
Q 30.421875 20.453125 26.78125 9.375 
Q 23.140625 -1.703125 15.828125 -13.1875 
L 8.015625 -13.1875 
Q 14.5 -2 17.703125 9.0625 
Q 20.90625 20.125 20.90625 31.390625 
Q 20.90625 42.671875 17.703125 53.65625 
Q 14.5 64.65625 8.015625 75.875 
z
" id="DejaVuSans-41"/>
     </defs>
     <g transform="translate(155.547875 103.65045)scale(0.12 -0.12)">
      <use xlink:href="#DejaVuSans-100"/>
      <use x="63.476562" xlink:href="#DejaVuSans-101"/>
      <use x="125" xlink:href="#DejaVuSans-102"/>
      <use x="160.205078" xlink:href="#DejaVuSans-111"/>
      <use x="221.386719" xlink:href="#DejaVuSans-114"/>
      <use x="262.484375" xlink:href="#DejaVuSans-109"/>
      <use x="359.896484" xlink:href="#DejaVuSans-101"/>
      <use x="421.419922" xlink:href="#DejaVuSans-100"/>
      <use x="484.896484" xlink:href="#DejaVuSans-32"/>
      <use x="516.683594" xlink:href="#DejaVuSans-40"/>
      <use x="555.697266" xlink:href="#DejaVuSans-109"/>
      <use x="653.109375" xlink:href="#DejaVuSans-111"/>
      <use x="714.291016" xlink:href="#DejaVuSans-100"/>
      <use x="777.767578" xlink:href="#DejaVuSans-101"/>
      <use x="839.291016" xlink:href="#DejaVuSans-108"/>
      <use x="867.074219" xlink:href="#DejaVuSans-41"/>
     </g>
    </g>
    <g id="line2d_30"/>
    <g id="line2d_31">
     <g>
      <use style="fill:#ff0000;stroke:#ff0000;" x="133.947875" xlink:href="#m72589944d4" y="117.0642"/>
     </g>
    </g>
    <g id="text_15">
     <!-- deformed (data) -->
     <defs>
      <path d="M 34.28125 27.484375 
Q 23.390625 27.484375 19.1875 25 
Q 14.984375 22.515625 14.984375 16.5 
Q 14.984375 11.71875 18.140625 8.90625 
Q 21.296875 6.109375 26.703125 6.109375 
Q 34.1875 6.109375 38.703125 11.40625 
Q 43.21875 16.703125 43.21875 25.484375 
L 43.21875 27.484375 
z
M 52.203125 31.203125 
L 52.203125 0 
L 43.21875 0 
L 43.21875 8.296875 
Q 40.140625 3.328125 35.546875 0.953125 
Q 30.953125 -1.421875 24.3125 -1.421875 
Q 15.921875 -1.421875 10.953125 3.296875 
Q 6 8.015625 6 15.921875 
Q 6 25.140625 12.171875 29.828125 
Q 18.359375 34.515625 30.609375 34.515625 
L 43.21875 34.515625 
L 43.21875 35.40625 
Q 43.21875 41.609375 39.140625 45 
Q 35.0625 48.390625 27.6875 48.390625 
Q 23 48.390625 18.546875 47.265625 
Q 14.109375 46.140625 10.015625 43.890625 
L 10.015625 52.203125 
Q 14.9375 54.109375 19.578125 55.046875 
Q 24.21875 56 28.609375 56 
Q 40.484375 56 46.34375 49.84375 
Q 52.203125 43.703125 52.203125 31.203125 
z
" id="DejaVuSans-97"/>
      <path d="M 18.3125 70.21875 
L 18.3125 54.6875 
L 36.8125 54.6875 
L 36.8125 47.703125 
L 18.3125 47.703125 
L 18.3125 18.015625 
Q 18.3125 11.328125 20.140625 9.421875 
Q 21.96875 7.515625 27.59375 7.515625 
L 36.8125 7.515625 
L 36.8125 0 
L 27.59375 0 
Q 17.1875 0 13.234375 3.875 
Q 9.28125 7.765625 9.28125 18.015625 
L 9.28125 47.703125 
L 2.6875 47.703125 
L 2.6875 54.6875 
L 9.28125 54.6875 
L 9.28125 70.21875 
z
" id="DejaVuSans-116"/>
     </defs>
     <g transform="translate(155.547875 121.2642)scale(0.12 -0.12)">
      <use xlink:href="#DejaVuSans-100"/>
      <use x="63.476562" xlink:href="#DejaVuSans-101"/>
      <use x="125" xlink:href="#DejaVuSans-102"/>
      <use x="160.205078" xlink:href="#DejaVuSans-111"/>
      <use x="221.386719" xlink:href="#DejaVuSans-114"/>
      <use x="262.484375" xlink:href="#DejaVuSans-109"/>
      <use x="359.896484" xlink:href="#DejaVuSans-101"/>
      <use x="421.419922" xlink:href="#DejaVuSans-100"/>
      <use x="484.896484" xlink:href="#DejaVuSans-32"/>
      <use x="516.683594" xlink:href="#DejaVuSans-40"/>
      <use x="555.697266" xlink:href="#DejaVuSans-100"/>
      <use x="619.173828" xlink:href="#DejaVuSans-97"/>
      <use x="680.453125" xlink:href="#DejaVuSans-116"/>
      <use x="719.662109" xlink:href="#DejaVuSans-97"/>
      <use x="780.941406" xlink:href="#DejaVuSans-41"/>
     </g>
    </g>
   </g>
  </g>
  <g id="axes_2">
   <g id="patch_9">
    <path d="M 203.437615 207.640786 
L 258.689344 207.640786 
L 258.689344 150.57824 
L 203.437615 150.57824 
z
" style="fill:#ffffff;"/>
   </g>
   <g id="patch_10">
    <path d="M 203.437615 207.640786 
L 187.982155 142.064225 
" style="fill:none;stroke:#808080;stroke-linejoin:miter;"/>
   </g>
   <g id="patch_11">
    <path d="M 258.689344 150.57824 
L 194.888621 134.931407 
" style="fill:none;stroke:#808080;stroke-linejoin:miter;"/>
   </g>
   <g id="matplotlib.axis_3">
    <g id="xtick_6">
     <g id="line2d_32">
      <g>
       <use style="stroke:#000000;stroke-width:0.8;" x="208.041926" xlink:href="#m045076a803" y="207.640786"/>
      </g>
     </g>
     <g id="text_16">
      <!-- −2.5 -->
      <g transform="translate(195.900519 222.239224)scale(0.1 -0.1)">
       <use xlink:href="#DejaVuSans-8722"/>
       <use x="83.789062" xlink:href="#DejaVuSans-50"/>
       <use x="147.412109" xlink:href="#DejaVuSans-46"/>
       <use x="179.199219" xlink:href="#DejaVuSans-53"/>
      </g>
     </g>
    </g>
    <g id="xtick_7">
     <g id="line2d_33">
      <g>
       <use style="stroke:#000000;stroke-width:0.8;" x="231.063479" xlink:href="#m045076a803" y="207.640786"/>
      </g>
     </g>
     <g id="text_17">
      <!-- 0.0 -->
      <g transform="translate(223.111917 222.239224)scale(0.1 -0.1)">
       <use xlink:href="#DejaVuSans-48"/>
       <use x="63.623047" xlink:href="#DejaVuSans-46"/>
       <use x="95.410156" xlink:href="#DejaVuSans-48"/>
      </g>
     </g>
    </g>
    <g id="xtick_8">
     <g id="line2d_34">
      <g>
       <use style="stroke:#000000;stroke-width:0.8;" x="254.085033" xlink:href="#m045076a803" y="207.640786"/>
      </g>
     </g>
     <g id="text_18">
      <!-- 2.5 -->
      <g transform="translate(246.13347 222.239224)scale(0.1 -0.1)">
       <use xlink:href="#DejaVuSans-50"/>
       <use x="63.623047" xlink:href="#DejaVuSans-46"/>
       <use x="95.410156" xlink:href="#DejaVuSans-53"/>
      </g>
     </g>
    </g>
    <g id="text_19">
     <!-- 1e−2 -->
     <g transform="translate(231.431531 234.917349)scale(0.1 -0.1)">
      <use xlink:href="#DejaVuSans-49"/>
      <use x="63.623047" xlink:href="#DejaVuSans-101"/>
      <use x="125.146484" xlink:href="#DejaVuSans-8722"/>
      <use x="208.935547" xlink:href="#DejaVuSans-50"/>
     </g>
    </g>
   </g>
   <g id="matplotlib.axis_4">
    <g id="ytick_6">
     <g id="line2d_35">
      <g>
       <use style="stroke:#000000;stroke-width:0.8;" x="203.437615" xlink:href="#m9e8ac89ac0" y="202.885574"/>
      </g>
     </g>
     <g id="text_20">
      <!-- −2.5 -->
      <g transform="translate(172.154802 206.684793)scale(0.1 -0.1)">
       <use xlink:href="#DejaVuSans-8722"/>
       <use x="83.789062" xlink:href="#DejaVuSans-50"/>
       <use x="147.412109" xlink:href="#DejaVuSans-46"/>
       <use x="179.199219" xlink:href="#DejaVuSans-53"/>
      </g>
     </g>
    </g>
    <g id="ytick_7">
     <g id="line2d_36">
      <g>
       <use style="stroke:#000000;stroke-width:0.8;" x="203.437615" xlink:href="#m9e8ac89ac0" y="179.109513"/>
      </g>
     </g>
     <g id="text_21">
      <!-- 0.0 -->
      <g transform="translate(180.53449 182.908732)scale(0.1 -0.1)">
       <use xlink:href="#DejaVuSans-48"/>
       <use x="63.623047" xlink:href="#DejaVuSans-46"/>
       <use x="95.410156" xlink:href="#DejaVuSans-48"/>
      </g>
     </g>
    </g>
    <g id="ytick_8">
     <g id="line2d_37">
      <g>
       <use style="stroke:#000000;stroke-width:0.8;" x="203.437615" xlink:href="#m9e8ac89ac0" y="155.333452"/>
      </g>
     </g>
     <g id="text_22">
      <!-- 2.5 -->
      <g transform="translate(180.53449 159.132671)scale(0.1 -0.1)">
       <use xlink:href="#DejaVuSans-50"/>
       <use x="63.623047" xlink:href="#DejaVuSans-46"/>
       <use x="95.410156" xlink:href="#DejaVuSans-53"/>
      </g>
     </g>
    </g>
    <g id="text_23">
     <!-- 1e−2 -->
     <g transform="translate(203.437615 147.57824)scale(0.1 -0.1)">
      <use xlink:href="#DejaVuSans-49"/>
      <use x="63.623047" xlink:href="#DejaVuSans-101"/>
      <use x="125.146484" xlink:href="#DejaVuSans-8722"/>
      <use x="208.935547" xlink:href="#DejaVuSans-50"/>
     </g>
    </g>
   </g>
   <g id="line2d_38">
    <defs>
     <path d="M 0 2 
C 0.530406 2 1.03916 1.789267 1.414214 1.414214 
C 1.789267 1.03916 2 0.530406 2 0 
C 2 -0.530406 1.789267 -1.03916 1.414214 -1.414214 
C 1.03916 -1.789267 0.530406 -2 0 -2 
C -0.530406 -2 -1.03916 -1.789267 -1.414214 -1.414214 
C -1.789267 -1.03916 -2 -0.530406 -2 0 
C -2 0.530406 -1.789267 1.03916 -1.414214 1.414214 
C -1.03916 1.789267 -0.530406 2 0 2 
z
" id="m6a89aad654" style="stroke:#000000;"/>
    </defs>
    <g clip-path="url(#p09b718dcbe)">
     <use style="stroke:#000000;" x="231.063479" xlink:href="#m6a89aad654" y="179.109513"/>
    </g>
   </g>
   <g id="line2d_39">
    <defs>
     <path d="M 0 2 
C 0.530406 2 1.03916 1.789267 1.414214 1.414214 
C 1.789267 1.03916 2 0.530406 2 0 
C 2 -0.530406 1.789267 -1.03916 1.414214 -1.414214 
C 1.03916 -1.789267 0.530406 -2 0 -2 
C -0.530406 -2 -1.03916 -1.789267 -1.414214 -1.414214 
C -1.789267 -1.03916 -2 -0.530406 -2 0 
C -2 0.530406 -1.789267 1.03916 -1.414214 1.414214 
C -1.03916 1.789267 -0.530406 2 0 2 
z
" id="m817a850aeb" style="stroke:#008000;"/>
    </defs>
    <g clip-path="url(#p09b718dcbe)">
     <use style="fill:#008000;stroke:#008000;" x="215.275448" xlink:href="#m817a850aeb" y="165.101341"/>
    </g>
   </g>
   <g id="patch_12">
    <path d="M 203.437615 207.640786 
L 203.437615 150.57824 
" style="fill:none;stroke:#000000;stroke-linecap:square;stroke-linejoin:miter;stroke-width:0.8;"/>
   </g>
   <g id="patch_13">
    <path d="M 258.689344 207.640786 
L 258.689344 150.57824 
" style="fill:none;stroke:#000000;stroke-linecap:square;stroke-linejoin:miter;stroke-width:0.8;"/>
   </g>
   <g id="patch_14">
    <path d="M 203.437615 207.640786 
L 258.689344 207.640786 
" style="fill:none;stroke:#000000;stroke-linecap:square;stroke-linejoin:miter;stroke-width:0.8;"/>
   </g>
   <g id="patch_15">
    <path d="M 203.437615 150.57824 
L 258.689344 150.57824 
" style="fill:none;stroke:#000000;stroke-linecap:square;stroke-linejoin:miter;stroke-width:0.8;"/>
   </g>
  </g>
 </g>
 <defs>
  <clipPath id="p8ef3bf8b68">
   <rect height="266.112" width="266.112" x="60.059375" y="7.2"/>
  </clipPath>
  <clipPath id="p09b718dcbe">
   <rect height="57.062546" width="55.251729" x="203.437615" y="150.57824"/>
  </clipPath>
 </defs>
</svg>
