<?xml version="1.0" encoding="utf-8" standalone="no"?>
<!DOCTYPE svg PUBLIC "-//W3C//DTD SVG 1.1//EN"
  "http://www.w3.org/Graphics/SVG/1.1/DTD/svg11.dtd">
<!-- Created with matplotlib (https://matplotlib.org/) -->
<svg height="346.71325pt" version="1.1" viewBox="0 0 420.8525 346.71325" width="420.8525pt" xmlns="http://www.w3.org/2000/svg" xmlns:xlink="http://www.w3.org/1999/xlink">
 <defs>
  <style type="text/css">
*{stroke-linecap:butt;stroke-linejoin:round;}
  </style>
 </defs>
 <g id="figure_1">
  <g id="patch_1">
   <path d="M 0 346.71325 
L 420.8525 346.71325 
L 420.8525 0 
L 0 0 
z
" style="fill:#ffffff;"/>
  </g>
  <g id="axes_1">
   <g id="patch_2">
    <path d="M 56.5325 305.28575 
L 413.6525 305.28575 
L 413.6525 39.17375 
L 56.5325 39.17375 
z
" style="fill:#ffffff;"/>
   </g>
   <g id="matplotlib.axis_1">
    <g id="xtick_1">
     <g id="line2d_1">
      <defs>
       <path d="M 0 0 
L 0 3.5 
" id="m152e60df31" style="stroke:#0000ff;stroke-width:0.8;"/>
      </defs>
      <g>
       <use style="fill:#0000ff;stroke:#0000ff;stroke-width:0.8;" x="72.765227" xlink:href="#m152e60df31" y="305.28575"/>
      </g>
     </g>
     <g id="text_1">
      <!-- 0 -->
      <defs>
       <path d="M 31.78125 66.40625 
Q 24.171875 66.40625 20.328125 58.90625 
Q 16.5 51.421875 16.5 36.375 
Q 16.5 21.390625 20.328125 13.890625 
Q 24.171875 6.390625 31.78125 6.390625 
Q 39.453125 6.390625 43.28125 13.890625 
Q 47.125 21.390625 47.125 36.375 
Q 47.125 51.421875 43.28125 58.90625 
Q 39.453125 66.40625 31.78125 66.40625 
z
M 31.78125 74.21875 
Q 44.046875 74.21875 50.515625 64.515625 
Q 56.984375 54.828125 56.984375 36.375 
Q 56.984375 17.96875 50.515625 8.265625 
Q 44.046875 -1.421875 31.78125 -1.421875 
Q 19.53125 -1.421875 13.0625 8.265625 
Q 6.59375 17.96875 6.59375 36.375 
Q 6.59375 54.828125 13.0625 64.515625 
Q 19.53125 74.21875 31.78125 74.21875 
z
" id="DejaVuSans-48"/>
      </defs>
      <g style="fill:#0000ff;" transform="translate(68.947727 321.403875)scale(0.12 -0.12)">
       <use xlink:href="#DejaVuSans-48"/>
      </g>
     </g>
    </g>
    <g id="xtick_2">
     <g id="line2d_2">
      <g>
       <use style="fill:#0000ff;stroke:#0000ff;stroke-width:0.8;" x="117.856136" xlink:href="#m152e60df31" y="305.28575"/>
      </g>
     </g>
     <g id="text_2">
      <!-- 50 -->
      <defs>
       <path d="M 10.796875 72.90625 
L 49.515625 72.90625 
L 49.515625 64.59375 
L 19.828125 64.59375 
L 19.828125 46.734375 
Q 21.96875 47.46875 24.109375 47.828125 
Q 26.265625 48.1875 28.421875 48.1875 
Q 40.625 48.1875 47.75 41.5 
Q 54.890625 34.8125 54.890625 23.390625 
Q 54.890625 11.625 47.5625 5.09375 
Q 40.234375 -1.421875 26.90625 -1.421875 
Q 22.3125 -1.421875 17.546875 -0.640625 
Q 12.796875 0.140625 7.71875 1.703125 
L 7.71875 11.625 
Q 12.109375 9.234375 16.796875 8.0625 
Q 21.484375 6.890625 26.703125 6.890625 
Q 35.15625 6.890625 40.078125 11.328125 
Q 45.015625 15.765625 45.015625 23.390625 
Q 45.015625 31 40.078125 35.4375 
Q 35.15625 39.890625 26.703125 39.890625 
Q 22.75 39.890625 18.8125 39.015625 
Q 14.890625 38.140625 10.796875 36.28125 
z
" id="DejaVuSans-53"/>
      </defs>
      <g style="fill:#0000ff;" transform="translate(110.221136 321.403875)scale(0.12 -0.12)">
       <use xlink:href="#DejaVuSans-53"/>
       <use x="63.623047" xlink:href="#DejaVuSans-48"/>
      </g>
     </g>
    </g>
    <g id="xtick_3">
     <g id="line2d_3">
      <g>
       <use style="fill:#0000ff;stroke:#0000ff;stroke-width:0.8;" x="162.947045" xlink:href="#m152e60df31" y="305.28575"/>
      </g>
     </g>
     <g id="text_3">
      <!-- 100 -->
      <defs>
       <path d="M 12.40625 8.296875 
L 28.515625 8.296875 
L 28.515625 63.921875 
L 10.984375 60.40625 
L 10.984375 69.390625 
L 28.421875 72.90625 
L 38.28125 72.90625 
L 38.28125 8.296875 
L 54.390625 8.296875 
L 54.390625 0 
L 12.40625 0 
z
" id="DejaVuSans-49"/>
      </defs>
      <g style="fill:#0000ff;" transform="translate(151.494545 321.403875)scale(0.12 -0.12)">
       <use xlink:href="#DejaVuSans-49"/>
       <use x="63.623047" xlink:href="#DejaVuSans-48"/>
       <use x="127.246094" xlink:href="#DejaVuSans-48"/>
      </g>
     </g>
    </g>
    <g id="xtick_4">
     <g id="line2d_4">
      <g>
       <use style="fill:#0000ff;stroke:#0000ff;stroke-width:0.8;" x="208.037955" xlink:href="#m152e60df31" y="305.28575"/>
      </g>
     </g>
     <g id="text_4">
      <!-- 150 -->
      <g style="fill:#0000ff;" transform="translate(196.585455 321.403875)scale(0.12 -0.12)">
       <use xlink:href="#DejaVuSans-49"/>
       <use x="63.623047" xlink:href="#DejaVuSans-53"/>
       <use x="127.246094" xlink:href="#DejaVuSans-48"/>
      </g>
     </g>
    </g>
    <g id="xtick_5">
     <g id="line2d_5">
      <g>
       <use style="fill:#0000ff;stroke:#0000ff;stroke-width:0.8;" x="253.128864" xlink:href="#m152e60df31" y="305.28575"/>
      </g>
     </g>
     <g id="text_5">
      <!-- 200 -->
      <defs>
       <path d="M 19.1875 8.296875 
L 53.609375 8.296875 
L 53.609375 0 
L 7.328125 0 
L 7.328125 8.296875 
Q 12.9375 14.109375 22.625 23.890625 
Q 32.328125 33.6875 34.8125 36.53125 
Q 39.546875 41.84375 41.421875 45.53125 
Q 43.3125 49.21875 43.3125 52.78125 
Q 43.3125 58.59375 39.234375 62.25 
Q 35.15625 65.921875 28.609375 65.921875 
Q 23.96875 65.921875 18.8125 64.3125 
Q 13.671875 62.703125 7.8125 59.421875 
L 7.8125 69.390625 
Q 13.765625 71.78125 18.9375 73 
Q 24.125 74.21875 28.421875 74.21875 
Q 39.75 74.21875 46.484375 68.546875 
Q 53.21875 62.890625 53.21875 53.421875 
Q 53.21875 48.921875 51.53125 44.890625 
Q 49.859375 40.875 45.40625 35.40625 
Q 44.1875 33.984375 37.640625 27.21875 
Q 31.109375 20.453125 19.1875 8.296875 
z
" id="DejaVuSans-50"/>
      </defs>
      <g style="fill:#0000ff;" transform="translate(241.676364 321.403875)scale(0.12 -0.12)">
       <use xlink:href="#DejaVuSans-50"/>
       <use x="63.623047" xlink:href="#DejaVuSans-48"/>
       <use x="127.246094" xlink:href="#DejaVuSans-48"/>
      </g>
     </g>
    </g>
    <g id="xtick_6">
     <g id="line2d_6">
      <g>
       <use style="fill:#0000ff;stroke:#0000ff;stroke-width:0.8;" x="298.219773" xlink:href="#m152e60df31" y="305.28575"/>
      </g>
     </g>
     <g id="text_6">
      <!-- 250 -->
      <g style="fill:#0000ff;" transform="translate(286.767273 321.403875)scale(0.12 -0.12)">
       <use xlink:href="#DejaVuSans-50"/>
       <use x="63.623047" xlink:href="#DejaVuSans-53"/>
       <use x="127.246094" xlink:href="#DejaVuSans-48"/>
      </g>
     </g>
    </g>
    <g id="xtick_7">
     <g id="line2d_7">
      <g>
       <use style="fill:#0000ff;stroke:#0000ff;stroke-width:0.8;" x="343.310682" xlink:href="#m152e60df31" y="305.28575"/>
      </g>
     </g>
     <g id="text_7">
      <!-- 300 -->
      <defs>
       <path d="M 40.578125 39.3125 
Q 47.65625 37.796875 51.625 33 
Q 55.609375 28.21875 55.609375 21.1875 
Q 55.609375 10.40625 48.1875 4.484375 
Q 40.765625 -1.421875 27.09375 -1.421875 
Q 22.515625 -1.421875 17.65625 -0.515625 
Q 12.796875 0.390625 7.625 2.203125 
L 7.625 11.71875 
Q 11.71875 9.328125 16.59375 8.109375 
Q 21.484375 6.890625 26.8125 6.890625 
Q 36.078125 6.890625 40.9375 10.546875 
Q 45.796875 14.203125 45.796875 21.1875 
Q 45.796875 27.640625 41.28125 31.265625 
Q 36.765625 34.90625 28.71875 34.90625 
L 20.21875 34.90625 
L 20.21875 43.015625 
L 29.109375 43.015625 
Q 36.375 43.015625 40.234375 45.921875 
Q 44.09375 48.828125 44.09375 54.296875 
Q 44.09375 59.90625 40.109375 62.90625 
Q 36.140625 65.921875 28.71875 65.921875 
Q 24.65625 65.921875 20.015625 65.03125 
Q 15.375 64.15625 9.8125 62.3125 
L 9.8125 71.09375 
Q 15.4375 72.65625 20.34375 73.4375 
Q 25.25 74.21875 29.59375 74.21875 
Q 40.828125 74.21875 47.359375 69.109375 
Q 53.90625 64.015625 53.90625 55.328125 
Q 53.90625 49.265625 50.4375 45.09375 
Q 46.96875 40.921875 40.578125 39.3125 
z
" id="DejaVuSans-51"/>
      </defs>
      <g style="fill:#0000ff;" transform="translate(331.858182 321.403875)scale(0.12 -0.12)">
       <use xlink:href="#DejaVuSans-51"/>
       <use x="63.623047" xlink:href="#DejaVuSans-48"/>
       <use x="127.246094" xlink:href="#DejaVuSans-48"/>
      </g>
     </g>
    </g>
    <g id="xtick_8">
     <g id="line2d_8">
      <g>
       <use style="fill:#0000ff;stroke:#0000ff;stroke-width:0.8;" x="388.401591" xlink:href="#m152e60df31" y="305.28575"/>
      </g>
     </g>
     <g id="text_8">
      <!-- 350 -->
      <g style="fill:#0000ff;" transform="translate(376.949091 321.403875)scale(0.12 -0.12)">
       <use xlink:href="#DejaVuSans-51"/>
       <use x="63.623047" xlink:href="#DejaVuSans-53"/>
       <use x="127.246094" xlink:href="#DejaVuSans-48"/>
      </g>
     </g>
    </g>
    <g id="text_9">
     <!-- $\theta^{\prime}$ [°] -->
     <defs>
      <path d="M 45.515625 34.671875 
L 14.453125 34.671875 
Q 12.359375 20.0625 14.5 13.875 
Q 17.1875 6.25 24.46875 6.25 
Q 31.78125 6.25 37.359375 13.921875 
Q 42.234375 20.65625 45.515625 34.671875 
z
M 47.015625 42.96875 
Q 48.34375 56.84375 46.625 61.71875 
Q 43.953125 69.4375 36.765625 69.4375 
Q 29.296875 69.4375 23.828125 61.8125 
Q 19.53125 55.671875 16.15625 42.96875 
z
M 38.1875 76.765625 
Q 49.90625 76.765625 54.59375 66.40625 
Q 59.28125 56.109375 55.71875 37.84375 
Q 52.203125 19.625 43.453125 9.28125 
Q 34.765625 -1.125 23.046875 -1.125 
Q 11.28125 -1.125 6.640625 9.28125 
Q 2 19.625 5.515625 37.84375 
Q 9.078125 56.109375 17.71875 66.40625 
Q 26.421875 76.765625 38.1875 76.765625 
z
" id="DejaVuSans-Oblique-952"/>
      <path d="M 3.515625 5.421875 
Q 2.875 5.609375 2.875 6.390625 
L 15.09375 51.8125 
Q 15.671875 53.65625 17.078125 54.78125 
Q 18.5 55.90625 20.3125 55.90625 
Q 22.65625 55.90625 24.4375 54.359375 
Q 26.21875 52.828125 26.21875 50.484375 
Q 26.21875 49.46875 25.6875 48.1875 
L 7.625 4.984375 
Q 7.28125 4.296875 6.6875 4.296875 
Q 6.15625 4.296875 5 4.78125 
Q 3.859375 5.28125 3.515625 5.421875 
z
" id="Cmsy10-48"/>
      <path id="DejaVuSans-32"/>
      <path d="M 8.59375 75.984375 
L 29.296875 75.984375 
L 29.296875 69 
L 17.578125 69 
L 17.578125 -6.203125 
L 29.296875 -6.203125 
L 29.296875 -13.1875 
L 8.59375 -13.1875 
z
" id="DejaVuSans-91"/>
      <path d="M 25 67.921875 
Q 21.09375 67.921875 18.40625 65.203125 
Q 15.71875 62.5 15.71875 58.59375 
Q 15.71875 54.734375 18.40625 52.078125 
Q 21.09375 49.421875 25 49.421875 
Q 28.90625 49.421875 31.59375 52.078125 
Q 34.28125 54.734375 34.28125 58.59375 
Q 34.28125 62.453125 31.5625 65.1875 
Q 28.859375 67.921875 25 67.921875 
z
M 25 74.21875 
Q 28.125 74.21875 31 73.015625 
Q 33.890625 71.828125 35.984375 69.578125 
Q 38.234375 67.390625 39.359375 64.59375 
Q 40.484375 61.8125 40.484375 58.59375 
Q 40.484375 52.15625 35.96875 47.6875 
Q 31.453125 43.21875 24.90625 43.21875 
Q 18.3125 43.21875 13.90625 47.609375 
Q 9.515625 52 9.515625 58.59375 
Q 9.515625 65.140625 14 69.671875 
Q 18.5 74.21875 25 74.21875 
z
" id="DejaVuSans-176"/>
      <path d="M 30.421875 75.984375 
L 30.421875 -13.1875 
L 9.71875 -13.1875 
L 9.71875 -6.203125 
L 21.390625 -6.203125 
L 21.390625 69 
L 9.71875 69 
L 9.71875 75.984375 
z
" id="DejaVuSans-93"/>
     </defs>
     <g transform="translate(220.0325 337.017625)scale(0.12 -0.12)">
      <use transform="translate(0 0.584375)" xlink:href="#DejaVuSans-Oblique-952"/>
      <use transform="translate(68.738724 38.865625)scale(0.7)" xlink:href="#Cmsy10-48"/>
      <use transform="translate(90.716263 0.584375)" xlink:href="#DejaVuSans-32"/>
      <use transform="translate(122.503372 0.584375)" xlink:href="#DejaVuSans-91"/>
      <use transform="translate(161.517044 0.584375)" xlink:href="#DejaVuSans-176"/>
      <use transform="translate(211.517044 0.584375)" xlink:href="#DejaVuSans-93"/>
     </g>
    </g>
   </g>
   <g id="matplotlib.axis_2">
    <g id="ytick_1">
     <g id="line2d_9">
      <defs>
       <path d="M 0 0 
L -3.5 0 
" id="ma7982406d7" style="stroke:#000000;stroke-width:0.8;"/>
      </defs>
      <g>
       <use style="stroke:#000000;stroke-width:0.8;" x="56.5325" xlink:href="#ma7982406d7" y="268.897439"/>
      </g>
     </g>
     <g id="text_10">
      <!-- 1.00 -->
      <defs>
       <path d="M 10.6875 12.40625 
L 21 12.40625 
L 21 0 
L 10.6875 0 
z
" id="DejaVuSans-46"/>
      </defs>
      <g transform="translate(22.81375 273.456502)scale(0.12 -0.12)">
       <use xlink:href="#DejaVuSans-49"/>
       <use x="63.623047" xlink:href="#DejaVuSans-46"/>
       <use x="95.410156" xlink:href="#DejaVuSans-48"/>
       <use x="159.033203" xlink:href="#DejaVuSans-48"/>
      </g>
     </g>
    </g>
    <g id="ytick_2">
     <g id="line2d_10">
      <g>
       <use style="stroke:#000000;stroke-width:0.8;" x="56.5325" xlink:href="#ma7982406d7" y="223.3813"/>
      </g>
     </g>
     <g id="text_11">
      <!-- 1.02 -->
      <g transform="translate(22.81375 227.940362)scale(0.12 -0.12)">
       <use xlink:href="#DejaVuSans-49"/>
       <use x="63.623047" xlink:href="#DejaVuSans-46"/>
       <use x="95.410156" xlink:href="#DejaVuSans-48"/>
       <use x="159.033203" xlink:href="#DejaVuSans-50"/>
      </g>
     </g>
    </g>
    <g id="ytick_3">
     <g id="line2d_11">
      <g>
       <use style="stroke:#000000;stroke-width:0.8;" x="56.5325" xlink:href="#ma7982406d7" y="177.86516"/>
      </g>
     </g>
     <g id="text_12">
      <!-- 1.04 -->
      <defs>
       <path d="M 37.796875 64.3125 
L 12.890625 25.390625 
L 37.796875 25.390625 
z
M 35.203125 72.90625 
L 47.609375 72.90625 
L 47.609375 25.390625 
L 58.015625 25.390625 
L 58.015625 17.1875 
L 47.609375 17.1875 
L 47.609375 0 
L 37.796875 0 
L 37.796875 17.1875 
L 4.890625 17.1875 
L 4.890625 26.703125 
z
" id="DejaVuSans-52"/>
      </defs>
      <g transform="translate(22.81375 182.424223)scale(0.12 -0.12)">
       <use xlink:href="#DejaVuSans-49"/>
       <use x="63.623047" xlink:href="#DejaVuSans-46"/>
       <use x="95.410156" xlink:href="#DejaVuSans-48"/>
       <use x="159.033203" xlink:href="#DejaVuSans-52"/>
      </g>
     </g>
    </g>
    <g id="ytick_4">
     <g id="line2d_12">
      <g>
       <use style="stroke:#000000;stroke-width:0.8;" x="56.5325" xlink:href="#ma7982406d7" y="132.349021"/>
      </g>
     </g>
     <g id="text_13">
      <!-- 1.06 -->
      <defs>
       <path d="M 33.015625 40.375 
Q 26.375 40.375 22.484375 35.828125 
Q 18.609375 31.296875 18.609375 23.390625 
Q 18.609375 15.53125 22.484375 10.953125 
Q 26.375 6.390625 33.015625 6.390625 
Q 39.65625 6.390625 43.53125 10.953125 
Q 47.40625 15.53125 47.40625 23.390625 
Q 47.40625 31.296875 43.53125 35.828125 
Q 39.65625 40.375 33.015625 40.375 
z
M 52.59375 71.296875 
L 52.59375 62.3125 
Q 48.875 64.0625 45.09375 64.984375 
Q 41.3125 65.921875 37.59375 65.921875 
Q 27.828125 65.921875 22.671875 59.328125 
Q 17.53125 52.734375 16.796875 39.40625 
Q 19.671875 43.65625 24.015625 45.921875 
Q 28.375 48.1875 33.59375 48.1875 
Q 44.578125 48.1875 50.953125 41.515625 
Q 57.328125 34.859375 57.328125 23.390625 
Q 57.328125 12.15625 50.6875 5.359375 
Q 44.046875 -1.421875 33.015625 -1.421875 
Q 20.359375 -1.421875 13.671875 8.265625 
Q 6.984375 17.96875 6.984375 36.375 
Q 6.984375 53.65625 15.1875 63.9375 
Q 23.390625 74.21875 37.203125 74.21875 
Q 40.921875 74.21875 44.703125 73.484375 
Q 48.484375 72.75 52.59375 71.296875 
z
" id="DejaVuSans-54"/>
      </defs>
      <g transform="translate(22.81375 136.908083)scale(0.12 -0.12)">
       <use xlink:href="#DejaVuSans-49"/>
       <use x="63.623047" xlink:href="#DejaVuSans-46"/>
       <use x="95.410156" xlink:href="#DejaVuSans-48"/>
       <use x="159.033203" xlink:href="#DejaVuSans-54"/>
      </g>
     </g>
    </g>
    <g id="ytick_5">
     <g id="line2d_13">
      <g>
       <use style="stroke:#000000;stroke-width:0.8;" x="56.5325" xlink:href="#ma7982406d7" y="86.832881"/>
      </g>
     </g>
     <g id="text_14">
      <!-- 1.08 -->
      <defs>
       <path d="M 31.78125 34.625 
Q 24.75 34.625 20.71875 30.859375 
Q 16.703125 27.09375 16.703125 20.515625 
Q 16.703125 13.921875 20.71875 10.15625 
Q 24.75 6.390625 31.78125 6.390625 
Q 38.8125 6.390625 42.859375 10.171875 
Q 46.921875 13.96875 46.921875 20.515625 
Q 46.921875 27.09375 42.890625 30.859375 
Q 38.875 34.625 31.78125 34.625 
z
M 21.921875 38.8125 
Q 15.578125 40.375 12.03125 44.71875 
Q 8.5 49.078125 8.5 55.328125 
Q 8.5 64.0625 14.71875 69.140625 
Q 20.953125 74.21875 31.78125 74.21875 
Q 42.671875 74.21875 48.875 69.140625 
Q 55.078125 64.0625 55.078125 55.328125 
Q 55.078125 49.078125 51.53125 44.71875 
Q 48 40.375 41.703125 38.8125 
Q 48.828125 37.15625 52.796875 32.3125 
Q 56.78125 27.484375 56.78125 20.515625 
Q 56.78125 9.90625 50.3125 4.234375 
Q 43.84375 -1.421875 31.78125 -1.421875 
Q 19.734375 -1.421875 13.25 4.234375 
Q 6.78125 9.90625 6.78125 20.515625 
Q 6.78125 27.484375 10.78125 32.3125 
Q 14.796875 37.15625 21.921875 38.8125 
z
M 18.3125 54.390625 
Q 18.3125 48.734375 21.84375 45.5625 
Q 25.390625 42.390625 31.78125 42.390625 
Q 38.140625 42.390625 41.71875 45.5625 
Q 45.3125 48.734375 45.3125 54.390625 
Q 45.3125 60.0625 41.71875 63.234375 
Q 38.140625 66.40625 31.78125 66.40625 
Q 25.390625 66.40625 21.84375 63.234375 
Q 18.3125 60.0625 18.3125 54.390625 
z
" id="DejaVuSans-56"/>
      </defs>
      <g transform="translate(22.81375 91.391943)scale(0.12 -0.12)">
       <use xlink:href="#DejaVuSans-49"/>
       <use x="63.623047" xlink:href="#DejaVuSans-46"/>
       <use x="95.410156" xlink:href="#DejaVuSans-48"/>
       <use x="159.033203" xlink:href="#DejaVuSans-56"/>
      </g>
     </g>
    </g>
    <g id="ytick_6">
     <g id="line2d_14">
      <g>
       <use style="stroke:#000000;stroke-width:0.8;" x="56.5325" xlink:href="#ma7982406d7" y="41.316741"/>
      </g>
     </g>
     <g id="text_15">
      <!-- 1.10 -->
      <g transform="translate(22.81375 45.875804)scale(0.12 -0.12)">
       <use xlink:href="#DejaVuSans-49"/>
       <use x="63.623047" xlink:href="#DejaVuSans-46"/>
       <use x="95.410156" xlink:href="#DejaVuSans-49"/>
       <use x="159.033203" xlink:href="#DejaVuSans-48"/>
      </g>
     </g>
    </g>
    <g id="text_16">
     <!-- $r_{\mathrm{deformed}}$ [mm] -->
     <defs>
      <path d="M 44.578125 46.390625 
Q 43.21875 47.125 41.453125 47.515625 
Q 39.703125 47.90625 37.703125 47.90625 
Q 30.515625 47.90625 25.140625 42.453125 
Q 19.78125 37.015625 18.015625 27.875 
L 12.5 0 
L 3.515625 0 
L 14.203125 54.6875 
L 23.1875 54.6875 
L 21.484375 46.1875 
Q 25.046875 50.921875 30 53.453125 
Q 34.96875 56 40.578125 56 
Q 42.046875 56 43.453125 55.828125 
Q 44.875 55.671875 46.296875 55.28125 
z
" id="DejaVuSans-Oblique-114"/>
      <path d="M 45.40625 46.390625 
L 45.40625 75.984375 
L 54.390625 75.984375 
L 54.390625 0 
L 45.40625 0 
L 45.40625 8.203125 
Q 42.578125 3.328125 38.25 0.953125 
Q 33.9375 -1.421875 27.875 -1.421875 
Q 17.96875 -1.421875 11.734375 6.484375 
Q 5.515625 14.40625 5.515625 27.296875 
Q 5.515625 40.1875 11.734375 48.09375 
Q 17.96875 56 27.875 56 
Q 33.9375 56 38.25 53.625 
Q 42.578125 51.265625 45.40625 46.390625 
z
M 14.796875 27.296875 
Q 14.796875 17.390625 18.875 11.75 
Q 22.953125 6.109375 30.078125 6.109375 
Q 37.203125 6.109375 41.296875 11.75 
Q 45.40625 17.390625 45.40625 27.296875 
Q 45.40625 37.203125 41.296875 42.84375 
Q 37.203125 48.484375 30.078125 48.484375 
Q 22.953125 48.484375 18.875 42.84375 
Q 14.796875 37.203125 14.796875 27.296875 
z
" id="DejaVuSans-100"/>
      <path d="M 56.203125 29.59375 
L 56.203125 25.203125 
L 14.890625 25.203125 
Q 15.484375 15.921875 20.484375 11.0625 
Q 25.484375 6.203125 34.421875 6.203125 
Q 39.59375 6.203125 44.453125 7.46875 
Q 49.3125 8.734375 54.109375 11.28125 
L 54.109375 2.78125 
Q 49.265625 0.734375 44.1875 -0.34375 
Q 39.109375 -1.421875 33.890625 -1.421875 
Q 20.796875 -1.421875 13.15625 6.1875 
Q 5.515625 13.8125 5.515625 26.8125 
Q 5.515625 40.234375 12.765625 48.109375 
Q 20.015625 56 32.328125 56 
Q 43.359375 56 49.78125 48.890625 
Q 56.203125 41.796875 56.203125 29.59375 
z
M 47.21875 32.234375 
Q 47.125 39.59375 43.09375 43.984375 
Q 39.0625 48.390625 32.421875 48.390625 
Q 24.90625 48.390625 20.390625 44.140625 
Q 15.875 39.890625 15.1875 32.171875 
z
" id="DejaVuSans-101"/>
      <path d="M 37.109375 75.984375 
L 37.109375 68.5 
L 28.515625 68.5 
Q 23.6875 68.5 21.796875 66.546875 
Q 19.921875 64.59375 19.921875 59.515625 
L 19.921875 54.6875 
L 34.71875 54.6875 
L 34.71875 47.703125 
L 19.921875 47.703125 
L 19.921875 0 
L 10.890625 0 
L 10.890625 47.703125 
L 2.296875 47.703125 
L 2.296875 54.6875 
L 10.890625 54.6875 
L 10.890625 58.5 
Q 10.890625 67.625 15.140625 71.796875 
Q 19.390625 75.984375 28.609375 75.984375 
z
" id="DejaVuSans-102"/>
      <path d="M 30.609375 48.390625 
Q 23.390625 48.390625 19.1875 42.75 
Q 14.984375 37.109375 14.984375 27.296875 
Q 14.984375 17.484375 19.15625 11.84375 
Q 23.34375 6.203125 30.609375 6.203125 
Q 37.796875 6.203125 41.984375 11.859375 
Q 46.1875 17.53125 46.1875 27.296875 
Q 46.1875 37.015625 41.984375 42.703125 
Q 37.796875 48.390625 30.609375 48.390625 
z
M 30.609375 56 
Q 42.328125 56 49.015625 48.375 
Q 55.71875 40.765625 55.71875 27.296875 
Q 55.71875 13.875 49.015625 6.21875 
Q 42.328125 -1.421875 30.609375 -1.421875 
Q 18.84375 -1.421875 12.171875 6.21875 
Q 5.515625 13.875 5.515625 27.296875 
Q 5.515625 40.765625 12.171875 48.375 
Q 18.84375 56 30.609375 56 
z
" id="DejaVuSans-111"/>
      <path d="M 41.109375 46.296875 
Q 39.59375 47.171875 37.8125 47.578125 
Q 36.03125 48 33.890625 48 
Q 26.265625 48 22.1875 43.046875 
Q 18.109375 38.09375 18.109375 28.8125 
L 18.109375 0 
L 9.078125 0 
L 9.078125 54.6875 
L 18.109375 54.6875 
L 18.109375 46.1875 
Q 20.953125 51.171875 25.484375 53.578125 
Q 30.03125 56 36.53125 56 
Q 37.453125 56 38.578125 55.875 
Q 39.703125 55.765625 41.0625 55.515625 
z
" id="DejaVuSans-114"/>
      <path d="M 52 44.1875 
Q 55.375 50.25 60.0625 53.125 
Q 64.75 56 71.09375 56 
Q 79.640625 56 84.28125 50.015625 
Q 88.921875 44.046875 88.921875 33.015625 
L 88.921875 0 
L 79.890625 0 
L 79.890625 32.71875 
Q 79.890625 40.578125 77.09375 44.375 
Q 74.3125 48.1875 68.609375 48.1875 
Q 61.625 48.1875 57.5625 43.546875 
Q 53.515625 38.921875 53.515625 30.90625 
L 53.515625 0 
L 44.484375 0 
L 44.484375 32.71875 
Q 44.484375 40.625 41.703125 44.40625 
Q 38.921875 48.1875 33.109375 48.1875 
Q 26.21875 48.1875 22.15625 43.53125 
Q 18.109375 38.875 18.109375 30.90625 
L 18.109375 0 
L 9.078125 0 
L 9.078125 54.6875 
L 18.109375 54.6875 
L 18.109375 46.1875 
Q 21.1875 51.21875 25.484375 53.609375 
Q 29.78125 56 35.6875 56 
Q 41.65625 56 45.828125 52.96875 
Q 50 49.953125 52 44.1875 
z
" id="DejaVuSans-109"/>
     </defs>
     <g transform="translate(16.318125 213.50975)rotate(-90)scale(0.12 -0.12)">
      <use transform="translate(0 0.015625)" xlink:href="#DejaVuSans-Oblique-114"/>
      <use transform="translate(41.113281 -16.390625)scale(0.7)" xlink:href="#DejaVuSans-100"/>
      <use transform="translate(85.546875 -16.390625)scale(0.7)" xlink:href="#DejaVuSans-101"/>
      <use transform="translate(128.613281 -16.390625)scale(0.7)" xlink:href="#DejaVuSans-102"/>
      <use transform="translate(153.256836 -16.390625)scale(0.7)" xlink:href="#DejaVuSans-111"/>
      <use transform="translate(196.083984 -16.390625)scale(0.7)" xlink:href="#DejaVuSans-114"/>
      <use transform="translate(224.863281 -16.390625)scale(0.7)" xlink:href="#DejaVuSans-109"/>
      <use transform="translate(293.051758 -16.390625)scale(0.7)" xlink:href="#DejaVuSans-101"/>
      <use transform="translate(336.118164 -16.390625)scale(0.7)" xlink:href="#DejaVuSans-100"/>
      <use transform="translate(383.286133 0.015625)" xlink:href="#DejaVuSans-32"/>
      <use transform="translate(415.073242 0.015625)" xlink:href="#DejaVuSans-91"/>
      <use transform="translate(454.086914 0.015625)" xlink:href="#DejaVuSans-109"/>
      <use transform="translate(551.499023 0.015625)" xlink:href="#DejaVuSans-109"/>
      <use transform="translate(648.911133 0.015625)" xlink:href="#DejaVuSans-93"/>
     </g>
    </g>
   </g>
   <g id="line2d_15">
    <path clip-path="url(#pdb5a3006dc)" d="M 72.765227 119.974915 
L 76.044566 129.711429 
L 79.323905 140.058252 
L 82.603244 150.884027 
L 85.882583 162.050047 
L 89.161921 173.412088 
L 92.44126 184.822386 
L 95.720599 196.131782 
L 98.999938 207.191981 
L 102.279277 217.857915 
L 105.558616 227.990149 
L 108.837955 237.457305 
L 112.117293 246.13842 
L 115.396632 253.925204 
L 118.675971 260.724111 
L 121.95531 266.45817 
L 125.234649 271.068506 
L 128.513988 274.5155 
L 131.793326 276.779546 
L 135.072665 277.861365 
L 138.352004 277.78187 
L 141.631343 276.581585 
L 144.910682 274.31963 
L 148.190021 271.072319 
L 151.46936 266.931409 
L 154.748698 262.00207 
L 158.028037 256.400632 
L 161.307376 250.252185 
L 164.586715 243.688092 
L 167.866054 236.843483 
L 171.145393 229.854781 
L 174.424731 222.857315 
L 177.70407 215.98305 
L 180.983409 209.358474 
L 184.262748 203.102661 
L 187.542087 197.325524 
L 190.821426 192.12627 
L 194.100764 187.592062 
L 197.380103 183.796885 
L 200.659442 180.800622 
L 203.938781 178.648325 
L 207.21812 177.369697 
L 210.497459 176.978758 
L 213.776798 177.473716 
L 217.056136 178.837022 
L 220.335475 181.035626 
L 223.614814 184.021417 
L 226.894153 187.731864 
L 230.173492 192.090854 
L 233.452831 197.009722 
L 236.732169 202.388487 
L 240.011508 208.117284 
L 243.290847 214.07799 
L 246.570186 220.146038 
L 249.849525 226.192402 
L 253.128864 232.085744 
L 256.408202 237.69468 
L 259.687541 242.890149 
L 262.96688 247.547828 
L 266.246219 251.550556 
L 269.525558 254.790698 
L 272.804897 257.172401 
L 276.084236 258.613667 
L 279.363574 259.048184 
L 282.642913 258.426865 
L 285.922252 256.719029 
L 289.201591 253.913191 
L 292.48093 250.017433 
L 295.760269 245.059352 
L 299.039607 239.085569 
L 302.318946 232.160845 
L 305.598285 224.366815 
L 308.877624 215.8004 
L 312.156963 206.571953 
L 315.436302 196.803182 
L 318.71564 186.624938 
L 321.994979 176.174899 
L 325.274318 165.595234 
L 328.553657 155.030282 
L 331.832996 144.624285 
L 335.112335 134.519234 
L 338.391674 124.852824 
L 341.671012 115.756572 
L 344.950351 107.354086 
L 348.22969 99.759505 
L 351.509029 93.07612 
L 354.788368 87.395161 
L 358.067707 82.794767 
L 361.347045 79.339117 
L 364.626384 77.077738 
L 367.905723 76.044969 
L 371.185062 76.259588 
L 374.464401 77.724598 
L 377.74374 80.427163 
L 381.023079 84.338708 
L 384.302417 89.415175 
L 387.581756 95.597433 
L 390.861095 102.811859 
L 394.140434 110.971084 
L 397.419773 119.974915 
" style="fill:none;stroke:#0000ff;stroke-linecap:square;stroke-width:2;"/>
   </g>
   <g id="line2d_16">
    <defs>
     <path d="M 0 1 
C 0.265203 1 0.51958 0.894634 0.707107 0.707107 
C 0.894634 0.51958 1 0.265203 1 0 
C 1 -0.265203 0.894634 -0.51958 0.707107 -0.707107 
C 0.51958 -0.894634 0.265203 -1 0 -1 
C -0.265203 -1 -0.51958 -0.894634 -0.707107 -0.707107 
C -0.894634 -0.51958 -1 -0.265203 -1 0 
C -1 0.265203 -0.894634 0.51958 -0.707107 0.707107 
C -0.51958 0.894634 -0.265203 1 0 1 
z
" id="mda6d2c842e" style="stroke:#ff0000;"/>
    </defs>
    <g clip-path="url(#pdb5a3006dc)">
     <use style="fill:#ff0000;stroke:#ff0000;" x="72.765227" xlink:href="#mda6d2c842e" y="117.718304"/>
     <use style="fill:#ff0000;stroke:#ff0000;" x="76.044566" xlink:href="#mda6d2c842e" y="133.77519"/>
     <use style="fill:#ff0000;stroke:#ff0000;" x="79.323905" xlink:href="#mda6d2c842e" y="135.304693"/>
     <use style="fill:#ff0000;stroke:#ff0000;" x="82.603244" xlink:href="#mda6d2c842e" y="140.576208"/>
     <use style="fill:#ff0000;stroke:#ff0000;" x="85.882583" xlink:href="#mda6d2c842e" y="155.962171"/>
     <use style="fill:#ff0000;stroke:#ff0000;" x="89.161921" xlink:href="#mda6d2c842e" y="169.498475"/>
     <use style="fill:#ff0000;stroke:#ff0000;" x="92.44126" xlink:href="#mda6d2c842e" y="181.936504"/>
     <use style="fill:#ff0000;stroke:#ff0000;" x="95.720599" xlink:href="#mda6d2c842e" y="195.652477"/>
     <use style="fill:#ff0000;stroke:#ff0000;" x="98.999938" xlink:href="#mda6d2c842e" y="210.350569"/>
     <use style="fill:#ff0000;stroke:#ff0000;" x="102.279277" xlink:href="#mda6d2c842e" y="225.990468"/>
     <use style="fill:#ff0000;stroke:#ff0000;" x="105.558616" xlink:href="#mda6d2c842e" y="219.620927"/>
     <use style="fill:#ff0000;stroke:#ff0000;" x="108.837955" xlink:href="#mda6d2c842e" y="230.287663"/>
     <use style="fill:#ff0000;stroke:#ff0000;" x="112.117293" xlink:href="#mda6d2c842e" y="229.290361"/>
     <use style="fill:#ff0000;stroke:#ff0000;" x="115.396632" xlink:href="#mda6d2c842e" y="232.690733"/>
     <use style="fill:#ff0000;stroke:#ff0000;" x="118.675971" xlink:href="#mda6d2c842e" y="247.875581"/>
     <use style="fill:#ff0000;stroke:#ff0000;" x="121.95531" xlink:href="#mda6d2c842e" y="262.405658"/>
     <use style="fill:#ff0000;stroke:#ff0000;" x="125.234649" xlink:href="#mda6d2c842e" y="274.562716"/>
     <use style="fill:#ff0000;stroke:#ff0000;" x="128.513988" xlink:href="#mda6d2c842e" y="268.868017"/>
     <use style="fill:#ff0000;stroke:#ff0000;" x="131.793326" xlink:href="#mda6d2c842e" y="260.798815"/>
     <use style="fill:#ff0000;stroke:#ff0000;" x="135.072665" xlink:href="#mda6d2c842e" y="264.912553"/>
     <use style="fill:#ff0000;stroke:#ff0000;" x="138.352004" xlink:href="#mda6d2c842e" y="271.300516"/>
     <use style="fill:#ff0000;stroke:#ff0000;" x="141.631343" xlink:href="#mda6d2c842e" y="272.536838"/>
     <use style="fill:#ff0000;stroke:#ff0000;" x="144.910682" xlink:href="#mda6d2c842e" y="272.854548"/>
     <use style="fill:#ff0000;stroke:#ff0000;" x="148.190021" xlink:href="#mda6d2c842e" y="279.808746"/>
     <use style="fill:#ff0000;stroke:#ff0000;" x="151.46936" xlink:href="#mda6d2c842e" y="272.453937"/>
     <use style="fill:#ff0000;stroke:#ff0000;" x="154.748698" xlink:href="#mda6d2c842e" y="268.582287"/>
     <use style="fill:#ff0000;stroke:#ff0000;" x="158.028037" xlink:href="#mda6d2c842e" y="258.961947"/>
     <use style="fill:#ff0000;stroke:#ff0000;" x="161.307376" xlink:href="#mda6d2c842e" y="244.850838"/>
     <use style="fill:#ff0000;stroke:#ff0000;" x="164.586715" xlink:href="#mda6d2c842e" y="238.400015"/>
     <use style="fill:#ff0000;stroke:#ff0000;" x="167.866054" xlink:href="#mda6d2c842e" y="235.124005"/>
     <use style="fill:#ff0000;stroke:#ff0000;" x="171.145393" xlink:href="#mda6d2c842e" y="230.437397"/>
     <use style="fill:#ff0000;stroke:#ff0000;" x="174.424731" xlink:href="#mda6d2c842e" y="224.289843"/>
     <use style="fill:#ff0000;stroke:#ff0000;" x="177.70407" xlink:href="#mda6d2c842e" y="216.464515"/>
     <use style="fill:#ff0000;stroke:#ff0000;" x="180.983409" xlink:href="#mda6d2c842e" y="208.9019"/>
     <use style="fill:#ff0000;stroke:#ff0000;" x="184.262748" xlink:href="#mda6d2c842e" y="201.425407"/>
     <use style="fill:#ff0000;stroke:#ff0000;" x="187.542087" xlink:href="#mda6d2c842e" y="194.785332"/>
     <use style="fill:#ff0000;stroke:#ff0000;" x="190.821426" xlink:href="#mda6d2c842e" y="195.213272"/>
     <use style="fill:#ff0000;stroke:#ff0000;" x="194.100764" xlink:href="#mda6d2c842e" y="198.880829"/>
     <use style="fill:#ff0000;stroke:#ff0000;" x="197.380103" xlink:href="#mda6d2c842e" y="202.094586"/>
     <use style="fill:#ff0000;stroke:#ff0000;" x="200.659442" xlink:href="#mda6d2c842e" y="196.275394"/>
     <use style="fill:#ff0000;stroke:#ff0000;" x="203.938781" xlink:href="#mda6d2c842e" y="183.786546"/>
     <use style="fill:#ff0000;stroke:#ff0000;" x="207.21812" xlink:href="#mda6d2c842e" y="177.474452"/>
     <use style="fill:#ff0000;stroke:#ff0000;" x="210.497459" xlink:href="#mda6d2c842e" y="173.250063"/>
     <use style="fill:#ff0000;stroke:#ff0000;" x="213.776798" xlink:href="#mda6d2c842e" y="170.625027"/>
     <use style="fill:#ff0000;stroke:#ff0000;" x="217.056136" xlink:href="#mda6d2c842e" y="174.73358"/>
     <use style="fill:#ff0000;stroke:#ff0000;" x="220.335475" xlink:href="#mda6d2c842e" y="176.760273"/>
     <use style="fill:#ff0000;stroke:#ff0000;" x="223.614814" xlink:href="#mda6d2c842e" y="176.58399"/>
     <use style="fill:#ff0000;stroke:#ff0000;" x="226.894153" xlink:href="#mda6d2c842e" y="173.055525"/>
     <use style="fill:#ff0000;stroke:#ff0000;" x="230.173492" xlink:href="#mda6d2c842e" y="173.958132"/>
     <use style="fill:#ff0000;stroke:#ff0000;" x="233.452831" xlink:href="#mda6d2c842e" y="188.259847"/>
     <use style="fill:#ff0000;stroke:#ff0000;" x="236.732169" xlink:href="#mda6d2c842e" y="195.203376"/>
     <use style="fill:#ff0000;stroke:#ff0000;" x="240.011508" xlink:href="#mda6d2c842e" y="205.219338"/>
     <use style="fill:#ff0000;stroke:#ff0000;" x="243.290847" xlink:href="#mda6d2c842e" y="213.833705"/>
     <use style="fill:#ff0000;stroke:#ff0000;" x="246.570186" xlink:href="#mda6d2c842e" y="206.885784"/>
     <use style="fill:#ff0000;stroke:#ff0000;" x="249.849525" xlink:href="#mda6d2c842e" y="222.782699"/>
     <use style="fill:#ff0000;stroke:#ff0000;" x="253.128864" xlink:href="#mda6d2c842e" y="234.969315"/>
     <use style="fill:#ff0000;stroke:#ff0000;" x="256.408202" xlink:href="#mda6d2c842e" y="240.581384"/>
     <use style="fill:#ff0000;stroke:#ff0000;" x="259.687541" xlink:href="#mda6d2c842e" y="245.984924"/>
     <use style="fill:#ff0000;stroke:#ff0000;" x="262.96688" xlink:href="#mda6d2c842e" y="250.974511"/>
     <use style="fill:#ff0000;stroke:#ff0000;" x="266.246219" xlink:href="#mda6d2c842e" y="269.243835"/>
     <use style="fill:#ff0000;stroke:#ff0000;" x="269.525558" xlink:href="#mda6d2c842e" y="293.18975"/>
     <use style="fill:#ff0000;stroke:#ff0000;" x="272.804897" xlink:href="#mda6d2c842e" y="285.272708"/>
     <use style="fill:#ff0000;stroke:#ff0000;" x="276.084236" xlink:href="#mda6d2c842e" y="260.771648"/>
     <use style="fill:#ff0000;stroke:#ff0000;" x="279.363574" xlink:href="#mda6d2c842e" y="254.701725"/>
     <use style="fill:#ff0000;stroke:#ff0000;" x="282.642913" xlink:href="#mda6d2c842e" y="249.285272"/>
     <use style="fill:#ff0000;stroke:#ff0000;" x="285.922252" xlink:href="#mda6d2c842e" y="249.840854"/>
     <use style="fill:#ff0000;stroke:#ff0000;" x="289.201591" xlink:href="#mda6d2c842e" y="245.92088"/>
     <use style="fill:#ff0000;stroke:#ff0000;" x="292.48093" xlink:href="#mda6d2c842e" y="227.804579"/>
     <use style="fill:#ff0000;stroke:#ff0000;" x="295.760269" xlink:href="#mda6d2c842e" y="219.244692"/>
     <use style="fill:#ff0000;stroke:#ff0000;" x="299.039607" xlink:href="#mda6d2c842e" y="225.376459"/>
     <use style="fill:#ff0000;stroke:#ff0000;" x="302.318946" xlink:href="#mda6d2c842e" y="222.69015"/>
     <use style="fill:#ff0000;stroke:#ff0000;" x="305.598285" xlink:href="#mda6d2c842e" y="220.871938"/>
     <use style="fill:#ff0000;stroke:#ff0000;" x="308.877624" xlink:href="#mda6d2c842e" y="207.932765"/>
     <use style="fill:#ff0000;stroke:#ff0000;" x="312.156963" xlink:href="#mda6d2c842e" y="201.229176"/>
     <use style="fill:#ff0000;stroke:#ff0000;" x="315.436302" xlink:href="#mda6d2c842e" y="195.046869"/>
     <use style="fill:#ff0000;stroke:#ff0000;" x="318.71564" xlink:href="#mda6d2c842e" y="188.267663"/>
     <use style="fill:#ff0000;stroke:#ff0000;" x="321.994979" xlink:href="#mda6d2c842e" y="175.300033"/>
     <use style="fill:#ff0000;stroke:#ff0000;" x="325.274318" xlink:href="#mda6d2c842e" y="166.116573"/>
     <use style="fill:#ff0000;stroke:#ff0000;" x="328.553657" xlink:href="#mda6d2c842e" y="155.52486"/>
     <use style="fill:#ff0000;stroke:#ff0000;" x="331.832996" xlink:href="#mda6d2c842e" y="154.578332"/>
     <use style="fill:#ff0000;stroke:#ff0000;" x="335.112335" xlink:href="#mda6d2c842e" y="145.098985"/>
     <use style="fill:#ff0000;stroke:#ff0000;" x="338.391674" xlink:href="#mda6d2c842e" y="130.204813"/>
     <use style="fill:#ff0000;stroke:#ff0000;" x="341.671012" xlink:href="#mda6d2c842e" y="128.995893"/>
     <use style="fill:#ff0000;stroke:#ff0000;" x="344.950351" xlink:href="#mda6d2c842e" y="121.845731"/>
     <use style="fill:#ff0000;stroke:#ff0000;" x="348.22969" xlink:href="#mda6d2c842e" y="105.806059"/>
     <use style="fill:#ff0000;stroke:#ff0000;" x="351.509029" xlink:href="#mda6d2c842e" y="88.427358"/>
     <use style="fill:#ff0000;stroke:#ff0000;" x="354.788368" xlink:href="#mda6d2c842e" y="77.487376"/>
     <use style="fill:#ff0000;stroke:#ff0000;" x="358.067707" xlink:href="#mda6d2c842e" y="67.413712"/>
     <use style="fill:#ff0000;stroke:#ff0000;" x="361.347045" xlink:href="#mda6d2c842e" y="54.628793"/>
     <use style="fill:#ff0000;stroke:#ff0000;" x="364.626384" xlink:href="#mda6d2c842e" y="51.26975"/>
     <use style="fill:#ff0000;stroke:#ff0000;" x="367.905723" xlink:href="#mda6d2c842e" y="56.846641"/>
     <use style="fill:#ff0000;stroke:#ff0000;" x="371.185062" xlink:href="#mda6d2c842e" y="66.309306"/>
     <use style="fill:#ff0000;stroke:#ff0000;" x="374.464401" xlink:href="#mda6d2c842e" y="61.755826"/>
     <use style="fill:#ff0000;stroke:#ff0000;" x="377.74374" xlink:href="#mda6d2c842e" y="60.981899"/>
     <use style="fill:#ff0000;stroke:#ff0000;" x="381.023079" xlink:href="#mda6d2c842e" y="73.604842"/>
     <use style="fill:#ff0000;stroke:#ff0000;" x="384.302417" xlink:href="#mda6d2c842e" y="90.029238"/>
     <use style="fill:#ff0000;stroke:#ff0000;" x="387.581756" xlink:href="#mda6d2c842e" y="104.660709"/>
     <use style="fill:#ff0000;stroke:#ff0000;" x="390.861095" xlink:href="#mda6d2c842e" y="117.572592"/>
     <use style="fill:#ff0000;stroke:#ff0000;" x="394.140434" xlink:href="#mda6d2c842e" y="125.767966"/>
     <use style="fill:#ff0000;stroke:#ff0000;" x="397.419773" xlink:href="#mda6d2c842e" y="117.718304"/>
    </g>
   </g>
   <g id="patch_3">
    <path d="M 56.5325 305.28575 
L 56.5325 39.17375 
" style="fill:none;stroke:#000000;stroke-linecap:square;stroke-linejoin:miter;stroke-width:0.8;"/>
   </g>
   <g id="patch_4">
    <path d="M 413.6525 305.28575 
L 413.6525 39.17375 
" style="fill:none;stroke:#000000;stroke-linecap:square;stroke-linejoin:miter;stroke-width:0.8;"/>
   </g>
   <g id="patch_5">
    <path d="M 56.5325 305.28575 
L 413.6525 305.28575 
" style="fill:none;stroke:#000000;stroke-linecap:square;stroke-linejoin:miter;stroke-width:0.8;"/>
   </g>
   <g id="patch_6">
    <path d="M 56.5325 39.17375 
L 413.6525 39.17375 
" style="fill:none;stroke:#000000;stroke-linecap:square;stroke-linejoin:miter;stroke-width:0.8;"/>
   </g>
   <g id="legend_1">
    <g id="patch_7">
     <path d="M 64.9325 119.22875 
L 212.4125 119.22875 
Q 214.8125 119.22875 214.8125 116.82875 
L 214.8125 47.57375 
Q 214.8125 45.17375 212.4125 45.17375 
L 64.9325 45.17375 
Q 62.5325 45.17375 62.5325 47.57375 
L 62.5325 116.82875 
Q 62.5325 119.22875 64.9325 119.22875 
z
" style="fill:#ffffff;opacity:0.7;stroke:#cccccc;stroke-linejoin:miter;"/>
    </g>
    <g id="line2d_17">
     <path d="M 67.3325 54.891875 
L 91.3325 54.891875 
" style="fill:none;stroke:#0000ff;stroke-linecap:square;stroke-width:2;"/>
    </g>
    <g id="line2d_18"/>
    <g id="text_17">
     <!-- model -->
     <defs>
      <path d="M 9.421875 75.984375 
L 18.40625 75.984375 
L 18.40625 0 
L 9.421875 0 
z
" id="DejaVuSans-108"/>
     </defs>
     <g transform="translate(100.9325 59.091875)scale(0.12 -0.12)">
      <use xlink:href="#DejaVuSans-109"/>
      <use x="97.412109" xlink:href="#DejaVuSans-111"/>
      <use x="158.59375" xlink:href="#DejaVuSans-100"/>
      <use x="222.070312" xlink:href="#DejaVuSans-101"/>
      <use x="283.59375" xlink:href="#DejaVuSans-108"/>
     </g>
    </g>
    <g id="line2d_19"/>
    <g id="line2d_20">
     <g>
      <use style="fill:#ff0000;stroke:#ff0000;" x="79.3325" xlink:href="#mda6d2c842e" y="72.505625"/>
     </g>
    </g>
    <g id="text_18">
     <!-- data -->
     <defs>
      <path d="M 34.28125 27.484375 
Q 23.390625 27.484375 19.1875 25 
Q 14.984375 22.515625 14.984375 16.5 
Q 14.984375 11.71875 18.140625 8.90625 
Q 21.296875 6.109375 26.703125 6.109375 
Q 34.1875 6.109375 38.703125 11.40625 
Q 43.21875 16.703125 43.21875 25.484375 
L 43.21875 27.484375 
z
M 52.203125 31.203125 
L 52.203125 0 
L 43.21875 0 
L 43.21875 8.296875 
Q 40.140625 3.328125 35.546875 0.953125 
Q 30.953125 -1.421875 24.3125 -1.421875 
Q 15.921875 -1.421875 10.953125 3.296875 
Q 6 8.015625 6 15.921875 
Q 6 25.140625 12.171875 29.828125 
Q 18.359375 34.515625 30.609375 34.515625 
L 43.21875 34.515625 
L 43.21875 35.40625 
Q 43.21875 41.609375 39.140625 45 
Q 35.0625 48.390625 27.6875 48.390625 
Q 23 48.390625 18.546875 47.265625 
Q 14.109375 46.140625 10.015625 43.890625 
L 10.015625 52.203125 
Q 14.9375 54.109375 19.578125 55.046875 
Q 24.21875 56 28.609375 56 
Q 40.484375 56 46.34375 49.84375 
Q 52.203125 43.703125 52.203125 31.203125 
z
" id="DejaVuSans-97"/>
      <path d="M 18.3125 70.21875 
L 18.3125 54.6875 
L 36.8125 54.6875 
L 36.8125 47.703125 
L 18.3125 47.703125 
L 18.3125 18.015625 
Q 18.3125 11.328125 20.140625 9.421875 
Q 21.96875 7.515625 27.59375 7.515625 
L 36.8125 7.515625 
L 36.8125 0 
L 27.59375 0 
Q 17.1875 0 13.234375 3.875 
Q 9.28125 7.765625 9.28125 18.015625 
L 9.28125 47.703125 
L 2.6875 47.703125 
L 2.6875 54.6875 
L 9.28125 54.6875 
L 9.28125 70.21875 
z
" id="DejaVuSans-116"/>
     </defs>
     <g transform="translate(100.9325 76.705625)scale(0.12 -0.12)">
      <use xlink:href="#DejaVuSans-100"/>
      <use x="63.476562" xlink:href="#DejaVuSans-97"/>
      <use x="124.755859" xlink:href="#DejaVuSans-116"/>
      <use x="163.964844" xlink:href="#DejaVuSans-97"/>
     </g>
    </g>
    <g id="line2d_21">
     <path d="M 67.3325 90.119375 
L 91.3325 90.119375 
" style="fill:none;stroke:#bf00bf;stroke-linecap:square;stroke-width:1.5;"/>
    </g>
    <g id="line2d_22"/>
    <g id="text_19">
     <!-- model (recentred) -->
     <defs>
      <path d="M 31 75.875 
Q 24.46875 64.65625 21.28125 53.65625 
Q 18.109375 42.671875 18.109375 31.390625 
Q 18.109375 20.125 21.3125 9.0625 
Q 24.515625 -2 31 -13.1875 
L 23.1875 -13.1875 
Q 15.875 -1.703125 12.234375 9.375 
Q 8.59375 20.453125 8.59375 31.390625 
Q 8.59375 42.28125 12.203125 53.3125 
Q 15.828125 64.359375 23.1875 75.875 
z
" id="DejaVuSans-40"/>
      <path d="M 48.78125 52.59375 
L 48.78125 44.1875 
Q 44.96875 46.296875 41.140625 47.34375 
Q 37.3125 48.390625 33.40625 48.390625 
Q 24.65625 48.390625 19.8125 42.84375 
Q 14.984375 37.3125 14.984375 27.296875 
Q 14.984375 17.28125 19.8125 11.734375 
Q 24.65625 6.203125 33.40625 6.203125 
Q 37.3125 6.203125 41.140625 7.25 
Q 44.96875 8.296875 48.78125 10.40625 
L 48.78125 2.09375 
Q 45.015625 0.34375 40.984375 -0.53125 
Q 36.96875 -1.421875 32.421875 -1.421875 
Q 20.0625 -1.421875 12.78125 6.34375 
Q 5.515625 14.109375 5.515625 27.296875 
Q 5.515625 40.671875 12.859375 48.328125 
Q 20.21875 56 33.015625 56 
Q 37.15625 56 41.109375 55.140625 
Q 45.0625 54.296875 48.78125 52.59375 
z
" id="DejaVuSans-99"/>
      <path d="M 54.890625 33.015625 
L 54.890625 0 
L 45.90625 0 
L 45.90625 32.71875 
Q 45.90625 40.484375 42.875 44.328125 
Q 39.84375 48.1875 33.796875 48.1875 
Q 26.515625 48.1875 22.3125 43.546875 
Q 18.109375 38.921875 18.109375 30.90625 
L 18.109375 0 
L 9.078125 0 
L 9.078125 54.6875 
L 18.109375 54.6875 
L 18.109375 46.1875 
Q 21.34375 51.125 25.703125 53.5625 
Q 30.078125 56 35.796875 56 
Q 45.21875 56 50.046875 50.171875 
Q 54.890625 44.34375 54.890625 33.015625 
z
" id="DejaVuSans-110"/>
      <path d="M 8.015625 75.875 
L 15.828125 75.875 
Q 23.140625 64.359375 26.78125 53.3125 
Q 30.421875 42.28125 30.421875 31.390625 
Q 30.421875 20.453125 26.78125 9.375 
Q 23.140625 -1.703125 15.828125 -13.1875 
L 8.015625 -13.1875 
Q 14.5 -2 17.703125 9.0625 
Q 20.90625 20.125 20.90625 31.390625 
Q 20.90625 42.671875 17.703125 53.65625 
Q 14.5 64.65625 8.015625 75.875 
z
" id="DejaVuSans-41"/>
     </defs>
     <g transform="translate(100.9325 94.319375)scale(0.12 -0.12)">
      <use xlink:href="#DejaVuSans-109"/>
      <use x="97.412109" xlink:href="#DejaVuSans-111"/>
      <use x="158.59375" xlink:href="#DejaVuSans-100"/>
      <use x="222.070312" xlink:href="#DejaVuSans-101"/>
      <use x="283.59375" xlink:href="#DejaVuSans-108"/>
      <use x="311.376953" xlink:href="#DejaVuSans-32"/>
      <use x="343.164062" xlink:href="#DejaVuSans-40"/>
      <use x="382.177734" xlink:href="#DejaVuSans-114"/>
      <use x="423.259766" xlink:href="#DejaVuSans-101"/>
      <use x="484.783203" xlink:href="#DejaVuSans-99"/>
      <use x="539.763672" xlink:href="#DejaVuSans-101"/>
      <use x="601.287109" xlink:href="#DejaVuSans-110"/>
      <use x="664.666016" xlink:href="#DejaVuSans-116"/>
      <use x="703.875" xlink:href="#DejaVuSans-114"/>
      <use x="744.957031" xlink:href="#DejaVuSans-101"/>
      <use x="806.480469" xlink:href="#DejaVuSans-100"/>
      <use x="869.957031" xlink:href="#DejaVuSans-41"/>
     </g>
    </g>
    <g id="line2d_23"/>
    <g id="line2d_24">
     <defs>
      <path d="M 0 1 
C 0.265203 1 0.51958 0.894634 0.707107 0.707107 
C 0.894634 0.51958 1 0.265203 1 0 
C 1 -0.265203 0.894634 -0.51958 0.707107 -0.707107 
C 0.51958 -0.894634 0.265203 -1 0 -1 
C -0.265203 -1 -0.51958 -0.894634 -0.707107 -0.707107 
C -0.894634 -0.51958 -1 -0.265203 -1 0 
C -1 0.265203 -0.894634 0.51958 -0.707107 0.707107 
C -0.51958 0.894634 -0.265203 1 0 1 
z
" id="m5d02c52c65" style="stroke:#00bfbf;"/>
     </defs>
     <g>
      <use style="fill:#00bfbf;stroke:#00bfbf;" x="79.3325" xlink:href="#m5d02c52c65" y="107.733125"/>
     </g>
    </g>
    <g id="text_20">
     <!-- data (recentred) -->
     <g transform="translate(100.9325 111.933125)scale(0.12 -0.12)">
      <use xlink:href="#DejaVuSans-100"/>
      <use x="63.476562" xlink:href="#DejaVuSans-97"/>
      <use x="124.755859" xlink:href="#DejaVuSans-116"/>
      <use x="163.964844" xlink:href="#DejaVuSans-97"/>
      <use x="225.244141" xlink:href="#DejaVuSans-32"/>
      <use x="257.03125" xlink:href="#DejaVuSans-40"/>
      <use x="296.044922" xlink:href="#DejaVuSans-114"/>
      <use x="337.126953" xlink:href="#DejaVuSans-101"/>
      <use x="398.650391" xlink:href="#DejaVuSans-99"/>
      <use x="453.630859" xlink:href="#DejaVuSans-101"/>
      <use x="515.154297" xlink:href="#DejaVuSans-110"/>
      <use x="578.533203" xlink:href="#DejaVuSans-116"/>
      <use x="617.742188" xlink:href="#DejaVuSans-114"/>
      <use x="658.824219" xlink:href="#DejaVuSans-101"/>
      <use x="720.347656" xlink:href="#DejaVuSans-100"/>
      <use x="783.824219" xlink:href="#DejaVuSans-41"/>
     </g>
    </g>
   </g>
  </g>
  <g id="axes_2">
   <g id="matplotlib.axis_3">
    <g id="xtick_9">
     <g id="line2d_25">
      <path clip-path="url(#pdb5a3006dc)" d="M 72.765227 305.28575 
L 72.765227 39.17375 
" style="fill:none;stroke:#b0b0b0;stroke-linecap:square;stroke-width:0.8;"/>
     </g>
     <g id="line2d_26">
      <defs>
       <path d="M 0 0 
L 0 -3.5 
" id="m2ed5c67ccd" style="stroke:#bf00bf;stroke-width:0.8;"/>
      </defs>
      <g>
       <use style="fill:#bf00bf;stroke:#bf00bf;stroke-width:0.8;" x="72.765227" xlink:href="#m2ed5c67ccd" y="39.17375"/>
      </g>
     </g>
     <g id="text_21">
      <!-- 0 -->
      <g style="fill:#bf00bf;" transform="translate(68.947727 29.678125)scale(0.12 -0.12)">
       <use xlink:href="#DejaVuSans-48"/>
      </g>
     </g>
    </g>
    <g id="xtick_10">
     <g id="line2d_27">
      <path clip-path="url(#pdb5a3006dc)" d="M 117.856136 305.28575 
L 117.856136 39.17375 
" style="fill:none;stroke:#b0b0b0;stroke-linecap:square;stroke-width:0.8;"/>
     </g>
     <g id="line2d_28">
      <g>
       <use style="fill:#bf00bf;stroke:#bf00bf;stroke-width:0.8;" x="117.856136" xlink:href="#m2ed5c67ccd" y="39.17375"/>
      </g>
     </g>
     <g id="text_22">
      <!-- 50 -->
      <g style="fill:#bf00bf;" transform="translate(110.221136 29.678125)scale(0.12 -0.12)">
       <use xlink:href="#DejaVuSans-53"/>
       <use x="63.623047" xlink:href="#DejaVuSans-48"/>
      </g>
     </g>
    </g>
    <g id="xtick_11">
     <g id="line2d_29">
      <path clip-path="url(#pdb5a3006dc)" d="M 162.947045 305.28575 
L 162.947045 39.17375 
" style="fill:none;stroke:#b0b0b0;stroke-linecap:square;stroke-width:0.8;"/>
     </g>
     <g id="line2d_30">
      <g>
       <use style="fill:#bf00bf;stroke:#bf00bf;stroke-width:0.8;" x="162.947045" xlink:href="#m2ed5c67ccd" y="39.17375"/>
      </g>
     </g>
     <g id="text_23">
      <!-- 100 -->
      <g style="fill:#bf00bf;" transform="translate(151.494545 29.678125)scale(0.12 -0.12)">
       <use xlink:href="#DejaVuSans-49"/>
       <use x="63.623047" xlink:href="#DejaVuSans-48"/>
       <use x="127.246094" xlink:href="#DejaVuSans-48"/>
      </g>
     </g>
    </g>
    <g id="xtick_12">
     <g id="line2d_31">
      <path clip-path="url(#pdb5a3006dc)" d="M 208.037955 305.28575 
L 208.037955 39.17375 
" style="fill:none;stroke:#b0b0b0;stroke-linecap:square;stroke-width:0.8;"/>
     </g>
     <g id="line2d_32">
      <g>
       <use style="fill:#bf00bf;stroke:#bf00bf;stroke-width:0.8;" x="208.037955" xlink:href="#m2ed5c67ccd" y="39.17375"/>
      </g>
     </g>
     <g id="text_24">
      <!-- 150 -->
      <g style="fill:#bf00bf;" transform="translate(196.585455 29.678125)scale(0.12 -0.12)">
       <use xlink:href="#DejaVuSans-49"/>
       <use x="63.623047" xlink:href="#DejaVuSans-53"/>
       <use x="127.246094" xlink:href="#DejaVuSans-48"/>
      </g>
     </g>
    </g>
    <g id="xtick_13">
     <g id="line2d_33">
      <path clip-path="url(#pdb5a3006dc)" d="M 253.128864 305.28575 
L 253.128864 39.17375 
" style="fill:none;stroke:#b0b0b0;stroke-linecap:square;stroke-width:0.8;"/>
     </g>
     <g id="line2d_34">
      <g>
       <use style="fill:#bf00bf;stroke:#bf00bf;stroke-width:0.8;" x="253.128864" xlink:href="#m2ed5c67ccd" y="39.17375"/>
      </g>
     </g>
     <g id="text_25">
      <!-- 200 -->
      <g style="fill:#bf00bf;" transform="translate(241.676364 29.678125)scale(0.12 -0.12)">
       <use xlink:href="#DejaVuSans-50"/>
       <use x="63.623047" xlink:href="#DejaVuSans-48"/>
       <use x="127.246094" xlink:href="#DejaVuSans-48"/>
      </g>
     </g>
    </g>
    <g id="xtick_14">
     <g id="line2d_35">
      <path clip-path="url(#pdb5a3006dc)" d="M 298.219773 305.28575 
L 298.219773 39.17375 
" style="fill:none;stroke:#b0b0b0;stroke-linecap:square;stroke-width:0.8;"/>
     </g>
     <g id="line2d_36">
      <g>
       <use style="fill:#bf00bf;stroke:#bf00bf;stroke-width:0.8;" x="298.219773" xlink:href="#m2ed5c67ccd" y="39.17375"/>
      </g>
     </g>
     <g id="text_26">
      <!-- 250 -->
      <g style="fill:#bf00bf;" transform="translate(286.767273 29.678125)scale(0.12 -0.12)">
       <use xlink:href="#DejaVuSans-50"/>
       <use x="63.623047" xlink:href="#DejaVuSans-53"/>
       <use x="127.246094" xlink:href="#DejaVuSans-48"/>
      </g>
     </g>
    </g>
    <g id="xtick_15">
     <g id="line2d_37">
      <path clip-path="url(#pdb5a3006dc)" d="M 343.310682 305.28575 
L 343.310682 39.17375 
" style="fill:none;stroke:#b0b0b0;stroke-linecap:square;stroke-width:0.8;"/>
     </g>
     <g id="line2d_38">
      <g>
       <use style="fill:#bf00bf;stroke:#bf00bf;stroke-width:0.8;" x="343.310682" xlink:href="#m2ed5c67ccd" y="39.17375"/>
      </g>
     </g>
     <g id="text_27">
      <!-- 300 -->
      <g style="fill:#bf00bf;" transform="translate(331.858182 29.678125)scale(0.12 -0.12)">
       <use xlink:href="#DejaVuSans-51"/>
       <use x="63.623047" xlink:href="#DejaVuSans-48"/>
       <use x="127.246094" xlink:href="#DejaVuSans-48"/>
      </g>
     </g>
    </g>
    <g id="xtick_16">
     <g id="line2d_39">
      <path clip-path="url(#pdb5a3006dc)" d="M 388.401591 305.28575 
L 388.401591 39.17375 
" style="fill:none;stroke:#b0b0b0;stroke-linecap:square;stroke-width:0.8;"/>
     </g>
     <g id="line2d_40">
      <g>
       <use style="fill:#bf00bf;stroke:#bf00bf;stroke-width:0.8;" x="388.401591" xlink:href="#m2ed5c67ccd" y="39.17375"/>
      </g>
     </g>
     <g id="text_28">
      <!-- 350 -->
      <g style="fill:#bf00bf;" transform="translate(376.949091 29.678125)scale(0.12 -0.12)">
       <use xlink:href="#DejaVuSans-51"/>
       <use x="63.623047" xlink:href="#DejaVuSans-53"/>
       <use x="127.246094" xlink:href="#DejaVuSans-48"/>
      </g>
     </g>
    </g>
    <g id="text_29">
     <!-- $\theta^{\prime}_r$ [°] -->
     <g transform="translate(219.9125 16.56)scale(0.12 -0.12)">
      <use transform="translate(0 0.584375)" xlink:href="#DejaVuSans-Oblique-952"/>
      <use transform="translate(68.738724 38.865625)scale(0.7)" xlink:href="#Cmsy10-48"/>
      <use transform="translate(61.181641 -26.759375)scale(0.7)" xlink:href="#DejaVuSans-Oblique-114"/>
      <use transform="translate(92.695312 0.584375)" xlink:href="#DejaVuSans-32"/>
      <use transform="translate(124.482422 0.584375)" xlink:href="#DejaVuSans-91"/>
      <use transform="translate(163.496094 0.584375)" xlink:href="#DejaVuSans-176"/>
      <use transform="translate(213.496094 0.584375)" xlink:href="#DejaVuSans-93"/>
     </g>
    </g>
   </g>
   <g id="line2d_41">
    <path clip-path="url(#pdb5a3006dc)" d="M 72.765227 160.033652 
L 76.044566 167.720675 
L 79.323905 175.859639 
L 82.603244 184.323561 
L 85.882583 192.979011 
L 89.161921 201.688064 
L 92.44126 210.310404 
L 95.720599 218.70557 
L 98.999938 226.735293 
L 102.279277 234.265914 
L 105.558616 241.170802 
L 108.837955 247.332744 
L 112.117293 252.646236 
L 115.396632 257.019605 
L 118.675971 260.37691 
L 121.95531 262.659551 
L 125.234649 263.827537 
L 128.513988 263.860355 
L 131.793326 262.75743 
L 135.072665 260.538132 
L 138.352004 257.24135 
L 141.631343 252.924641 
L 144.910682 247.662988 
L 148.190021 241.547205 
L 151.46936 234.682057 
L 154.748698 227.184142 
L 158.028037 219.179612 
L 161.307376 210.801788 
L 164.586715 202.188736 
L 167.866054 193.480858 
L 171.145393 184.81854 
L 174.424731 176.339903 
L 177.70407 168.178691 
L 180.983409 160.462307 
L 184.262748 153.310031 
L 187.542087 146.831413 
L 190.821426 141.124858 
L 194.100764 136.276404 
L 197.380103 132.358685 
L 200.659442 129.430079 
L 203.938781 127.53405 
L 207.21812 126.698652 
L 210.497459 126.936228 
L 213.776798 128.243269 
L 217.056136 130.600454 
L 220.335475 133.972865 
L 223.614814 138.31037 
L 226.894153 143.548191 
L 230.173492 149.607649 
L 233.452831 156.397097 
L 236.732169 163.813036 
L 240.011508 171.741428 
L 243.290847 180.05919 
L 246.570186 188.635883 
L 249.849525 197.335576 
L 253.128864 206.018876 
L 256.408202 214.545105 
L 259.687541 222.774602 
L 262.96688 230.571099 
L 266.246219 237.804148 
L 269.525558 244.351536 
L 272.804897 250.101624 
L 276.084236 254.955572 
L 279.363574 258.829351 
L 282.642913 261.655511 
L 285.922252 263.384622 
L 289.201591 263.986347 
L 292.48093 263.450115 
L 295.760269 261.785347 
L 299.039607 259.021254 
L 302.318946 255.206191 
L 305.598285 250.406607 
L 308.877624 244.705618 
L 312.156963 238.201266 
L 315.436302 231.004508 
L 318.71564 223.237011 
L 321.994979 215.028815 
L 325.274318 206.515917 
L 328.553657 197.837849 
L 331.832996 189.135293 
L 335.112335 180.547776 
L 338.391674 172.211486 
L 341.671012 164.25723 
L 344.950351 156.808563 
L 348.22969 149.980088 
L 351.509029 143.875947 
L 354.788368 138.588504 
L 358.067707 134.197211 
L 361.347045 130.76767 
L 364.626384 128.350874 
L 367.905723 126.98263 
L 371.185062 126.683166 
L 374.464401 127.456904 
L 377.74374 129.292414 
L 381.023079 132.162539 
L 384.302417 136.024694 
L 387.581756 140.821342 
L 390.861095 146.480651 
L 394.140434 152.91733 
L 397.419773 160.033652 
" style="fill:none;stroke:#bf00bf;stroke-linecap:square;stroke-width:1.5;"/>
   </g>
   <g id="line2d_42">
    <g clip-path="url(#pdb5a3006dc)">
     <use style="fill:#00bfbf;stroke:#00bfbf;" x="72.765227" xlink:href="#m5d02c52c65" y="164.506413"/>
     <use style="fill:#00bfbf;stroke:#00bfbf;" x="76.044566" xlink:href="#m5d02c52c65" y="168.759347"/>
     <use style="fill:#00bfbf;stroke:#00bfbf;" x="79.323905" xlink:href="#m5d02c52c65" y="171.121756"/>
     <use style="fill:#00bfbf;stroke:#00bfbf;" x="82.603244" xlink:href="#m5d02c52c65" y="174.476514"/>
     <use style="fill:#00bfbf;stroke:#00bfbf;" x="85.882583" xlink:href="#m5d02c52c65" y="188.369777"/>
     <use style="fill:#00bfbf;stroke:#00bfbf;" x="89.161921" xlink:href="#m5d02c52c65" y="199.405456"/>
     <use style="fill:#00bfbf;stroke:#00bfbf;" x="92.44126" xlink:href="#m5d02c52c65" y="210.392892"/>
     <use style="fill:#00bfbf;stroke:#00bfbf;" x="95.720599" xlink:href="#m5d02c52c65" y="220.7573"/>
     <use style="fill:#00bfbf;stroke:#00bfbf;" x="98.999938" xlink:href="#m5d02c52c65" y="234.307035"/>
     <use style="fill:#00bfbf;stroke:#00bfbf;" x="102.279277" xlink:href="#m5d02c52c65" y="237.208725"/>
     <use style="fill:#00bfbf;stroke:#00bfbf;" x="105.558616" xlink:href="#m5d02c52c65" y="235.330378"/>
     <use style="fill:#00bfbf;stroke:#00bfbf;" x="108.837955" xlink:href="#m5d02c52c65" y="239.100241"/>
     <use style="fill:#00bfbf;stroke:#00bfbf;" x="112.117293" xlink:href="#m5d02c52c65" y="235.013472"/>
     <use style="fill:#00bfbf;stroke:#00bfbf;" x="115.396632" xlink:href="#m5d02c52c65" y="239.401712"/>
     <use style="fill:#00bfbf;stroke:#00bfbf;" x="118.675971" xlink:href="#m5d02c52c65" y="251.102002"/>
     <use style="fill:#00bfbf;stroke:#00bfbf;" x="121.95531" xlink:href="#m5d02c52c65" y="262.011856"/>
     <use style="fill:#00bfbf;stroke:#00bfbf;" x="125.234649" xlink:href="#m5d02c52c65" y="264.411762"/>
     <use style="fill:#00bfbf;stroke:#00bfbf;" x="128.513988" xlink:href="#m5d02c52c65" y="254.219555"/>
     <use style="fill:#00bfbf;stroke:#00bfbf;" x="131.793326" xlink:href="#m5d02c52c65" y="246.284544"/>
     <use style="fill:#00bfbf;stroke:#00bfbf;" x="135.072665" xlink:href="#m5d02c52c65" y="249.483019"/>
     <use style="fill:#00bfbf;stroke:#00bfbf;" x="138.352004" xlink:href="#m5d02c52c65" y="251.27531"/>
     <use style="fill:#00bfbf;stroke:#00bfbf;" x="141.631343" xlink:href="#m5d02c52c65" y="249.27343"/>
     <use style="fill:#00bfbf;stroke:#00bfbf;" x="144.910682" xlink:href="#m5d02c52c65" y="246.195549"/>
     <use style="fill:#00bfbf;stroke:#00bfbf;" x="148.190021" xlink:href="#m5d02c52c65" y="247.238346"/>
     <use style="fill:#00bfbf;stroke:#00bfbf;" x="151.46936" xlink:href="#m5d02c52c65" y="234.763554"/>
     <use style="fill:#00bfbf;stroke:#00bfbf;" x="154.748698" xlink:href="#m5d02c52c65" y="227.900289"/>
     <use style="fill:#00bfbf;stroke:#00bfbf;" x="158.028037" xlink:href="#m5d02c52c65" y="214.709599"/>
     <use style="fill:#00bfbf;stroke:#00bfbf;" x="161.307376" xlink:href="#m5d02c52c65" y="203.182143"/>
     <use style="fill:#00bfbf;stroke:#00bfbf;" x="164.586715" xlink:href="#m5d02c52c65" y="195.5782"/>
     <use style="fill:#00bfbf;stroke:#00bfbf;" x="167.866054" xlink:href="#m5d02c52c65" y="189.440388"/>
     <use style="fill:#00bfbf;stroke:#00bfbf;" x="171.145393" xlink:href="#m5d02c52c65" y="181.716315"/>
     <use style="fill:#00bfbf;stroke:#00bfbf;" x="174.424731" xlink:href="#m5d02c52c65" y="176.442737"/>
     <use style="fill:#00bfbf;stroke:#00bfbf;" x="177.70407" xlink:href="#m5d02c52c65" y="165.480039"/>
     <use style="fill:#00bfbf;stroke:#00bfbf;" x="180.983409" xlink:href="#m5d02c52c65" y="155.261693"/>
     <use style="fill:#00bfbf;stroke:#00bfbf;" x="184.262748" xlink:href="#m5d02c52c65" y="148.811534"/>
     <use style="fill:#00bfbf;stroke:#00bfbf;" x="187.542087" xlink:href="#m5d02c52c65" y="138.355436"/>
     <use style="fill:#00bfbf;stroke:#00bfbf;" x="190.821426" xlink:href="#m5d02c52c65" y="142.248294"/>
     <use style="fill:#00bfbf;stroke:#00bfbf;" x="194.100764" xlink:href="#m5d02c52c65" y="144.190746"/>
     <use style="fill:#00bfbf;stroke:#00bfbf;" x="197.380103" xlink:href="#m5d02c52c65" y="143.864086"/>
     <use style="fill:#00bfbf;stroke:#00bfbf;" x="200.659442" xlink:href="#m5d02c52c65" y="138.762797"/>
     <use style="fill:#00bfbf;stroke:#00bfbf;" x="203.938781" xlink:href="#m5d02c52c65" y="130.179193"/>
     <use style="fill:#00bfbf;stroke:#00bfbf;" x="207.21812" xlink:href="#m5d02c52c65" y="127.433756"/>
     <use style="fill:#00bfbf;stroke:#00bfbf;" x="210.497459" xlink:href="#m5d02c52c65" y="122.745125"/>
     <use style="fill:#00bfbf;stroke:#00bfbf;" x="213.776798" xlink:href="#m5d02c52c65" y="119.136301"/>
     <use style="fill:#00bfbf;stroke:#00bfbf;" x="217.056136" xlink:href="#m5d02c52c65" y="124.180926"/>
     <use style="fill:#00bfbf;stroke:#00bfbf;" x="220.335475" xlink:href="#m5d02c52c65" y="129.032784"/>
     <use style="fill:#00bfbf;stroke:#00bfbf;" x="223.614814" xlink:href="#m5d02c52c65" y="129.561996"/>
     <use style="fill:#00bfbf;stroke:#00bfbf;" x="226.894153" xlink:href="#m5d02c52c65" y="128.736157"/>
     <use style="fill:#00bfbf;stroke:#00bfbf;" x="230.173492" xlink:href="#m5d02c52c65" y="127.159058"/>
     <use style="fill:#00bfbf;stroke:#00bfbf;" x="233.452831" xlink:href="#m5d02c52c65" y="140.849099"/>
     <use style="fill:#00bfbf;stroke:#00bfbf;" x="236.732169" xlink:href="#m5d02c52c65" y="150.61357"/>
     <use style="fill:#00bfbf;stroke:#00bfbf;" x="240.011508" xlink:href="#m5d02c52c65" y="159.310993"/>
     <use style="fill:#00bfbf;stroke:#00bfbf;" x="243.290847" xlink:href="#m5d02c52c65" y="172.922038"/>
     <use style="fill:#00bfbf;stroke:#00bfbf;" x="246.570186" xlink:href="#m5d02c52c65" y="171.628512"/>
     <use style="fill:#00bfbf;stroke:#00bfbf;" x="249.849525" xlink:href="#m5d02c52c65" y="189.059665"/>
     <use style="fill:#00bfbf;stroke:#00bfbf;" x="253.128864" xlink:href="#m5d02c52c65" y="204.229248"/>
     <use style="fill:#00bfbf;stroke:#00bfbf;" x="256.408202" xlink:href="#m5d02c52c65" y="217.109744"/>
     <use style="fill:#00bfbf;stroke:#00bfbf;" x="259.687541" xlink:href="#m5d02c52c65" y="225.124223"/>
     <use style="fill:#00bfbf;stroke:#00bfbf;" x="262.96688" xlink:href="#m5d02c52c65" y="232.801002"/>
     <use style="fill:#00bfbf;stroke:#00bfbf;" x="266.246219" xlink:href="#m5d02c52c65" y="244.152572"/>
     <use style="fill:#00bfbf;stroke:#00bfbf;" x="269.525558" xlink:href="#m5d02c52c65" y="274.505218"/>
     <use style="fill:#00bfbf;stroke:#00bfbf;" x="272.804897" xlink:href="#m5d02c52c65" y="280.943407"/>
     <use style="fill:#00bfbf;stroke:#00bfbf;" x="276.084236" xlink:href="#m5d02c52c65" y="266.197795"/>
     <use style="fill:#00bfbf;stroke:#00bfbf;" x="279.363574" xlink:href="#m5d02c52c65" y="255.792181"/>
     <use style="fill:#00bfbf;stroke:#00bfbf;" x="282.642913" xlink:href="#m5d02c52c65" y="254.004756"/>
     <use style="fill:#00bfbf;stroke:#00bfbf;" x="285.922252" xlink:href="#m5d02c52c65" y="255.185573"/>
     <use style="fill:#00bfbf;stroke:#00bfbf;" x="289.201591" xlink:href="#m5d02c52c65" y="261.380305"/>
     <use style="fill:#00bfbf;stroke:#00bfbf;" x="292.48093" xlink:href="#m5d02c52c65" y="245.391469"/>
     <use style="fill:#00bfbf;stroke:#00bfbf;" x="295.760269" xlink:href="#m5d02c52c65" y="236.94533"/>
     <use style="fill:#00bfbf;stroke:#00bfbf;" x="299.039607" xlink:href="#m5d02c52c65" y="242.934788"/>
     <use style="fill:#00bfbf;stroke:#00bfbf;" x="302.318946" xlink:href="#m5d02c52c65" y="246.862534"/>
     <use style="fill:#00bfbf;stroke:#00bfbf;" x="305.598285" xlink:href="#m5d02c52c65" y="245.8017"/>
     <use style="fill:#00bfbf;stroke:#00bfbf;" x="308.877624" xlink:href="#m5d02c52c65" y="239.047634"/>
     <use style="fill:#00bfbf;stroke:#00bfbf;" x="312.156963" xlink:href="#m5d02c52c65" y="232.458613"/>
     <use style="fill:#00bfbf;stroke:#00bfbf;" x="315.436302" xlink:href="#m5d02c52c65" y="229.67807"/>
     <use style="fill:#00bfbf;stroke:#00bfbf;" x="318.71564" xlink:href="#m5d02c52c65" y="223.495294"/>
     <use style="fill:#00bfbf;stroke:#00bfbf;" x="321.994979" xlink:href="#m5d02c52c65" y="216.604928"/>
     <use style="fill:#00bfbf;stroke:#00bfbf;" x="325.274318" xlink:href="#m5d02c52c65" y="208.801566"/>
     <use style="fill:#00bfbf;stroke:#00bfbf;" x="328.553657" xlink:href="#m5d02c52c65" y="200.694196"/>
     <use style="fill:#00bfbf;stroke:#00bfbf;" x="331.832996" xlink:href="#m5d02c52c65" y="201.275106"/>
     <use style="fill:#00bfbf;stroke:#00bfbf;" x="335.112335" xlink:href="#m5d02c52c65" y="194.643016"/>
     <use style="fill:#00bfbf;stroke:#00bfbf;" x="338.391674" xlink:href="#m5d02c52c65" y="181.01641"/>
     <use style="fill:#00bfbf;stroke:#00bfbf;" x="341.671012" xlink:href="#m5d02c52c65" y="176.824482"/>
     <use style="fill:#00bfbf;stroke:#00bfbf;" x="344.950351" xlink:href="#m5d02c52c65" y="177.389764"/>
     <use style="fill:#00bfbf;stroke:#00bfbf;" x="348.22969" xlink:href="#m5d02c52c65" y="162.799611"/>
     <use style="fill:#00bfbf;stroke:#00bfbf;" x="351.509029" xlink:href="#m5d02c52c65" y="144.97545"/>
     <use style="fill:#00bfbf;stroke:#00bfbf;" x="354.788368" xlink:href="#m5d02c52c65" y="132.536765"/>
     <use style="fill:#00bfbf;stroke:#00bfbf;" x="358.067707" xlink:href="#m5d02c52c65" y="122.366633"/>
     <use style="fill:#00bfbf;stroke:#00bfbf;" x="361.347045" xlink:href="#m5d02c52c65" y="113.261907"/>
     <use style="fill:#00bfbf;stroke:#00bfbf;" x="364.626384" xlink:href="#m5d02c52c65" y="107.206495"/>
     <use style="fill:#00bfbf;stroke:#00bfbf;" x="367.905723" xlink:href="#m5d02c52c65" y="110.944385"/>
     <use style="fill:#00bfbf;stroke:#00bfbf;" x="371.185062" xlink:href="#m5d02c52c65" y="121.878115"/>
     <use style="fill:#00bfbf;stroke:#00bfbf;" x="374.464401" xlink:href="#m5d02c52c65" y="117.929116"/>
     <use style="fill:#00bfbf;stroke:#00bfbf;" x="377.74374" xlink:href="#m5d02c52c65" y="120.191931"/>
     <use style="fill:#00bfbf;stroke:#00bfbf;" x="381.023079" xlink:href="#m5d02c52c65" y="126.227098"/>
     <use style="fill:#00bfbf;stroke:#00bfbf;" x="384.302417" xlink:href="#m5d02c52c65" y="143.599481"/>
     <use style="fill:#00bfbf;stroke:#00bfbf;" x="387.581756" xlink:href="#m5d02c52c65" y="154.716542"/>
     <use style="fill:#00bfbf;stroke:#00bfbf;" x="390.861095" xlink:href="#m5d02c52c65" y="174.205814"/>
     <use style="fill:#00bfbf;stroke:#00bfbf;" x="394.140434" xlink:href="#m5d02c52c65" y="172.340264"/>
     <use style="fill:#00bfbf;stroke:#00bfbf;" x="397.419773" xlink:href="#m5d02c52c65" y="164.506413"/>
    </g>
   </g>
   <g id="patch_8">
    <path d="M 56.5325 305.28575 
L 56.5325 39.17375 
" style="fill:none;stroke:#000000;stroke-linecap:square;stroke-linejoin:miter;stroke-width:0.8;"/>
   </g>
   <g id="patch_9">
    <path d="M 413.6525 305.28575 
L 413.6525 39.17375 
" style="fill:none;stroke:#000000;stroke-linecap:square;stroke-linejoin:miter;stroke-width:0.8;"/>
   </g>
   <g id="patch_10">
    <path d="M 56.5325 305.28575 
L 413.6525 305.28575 
" style="fill:none;stroke:#000000;stroke-linecap:square;stroke-linejoin:miter;stroke-width:0.8;"/>
   </g>
   <g id="patch_11">
    <path d="M 56.5325 39.17375 
L 413.6525 39.17375 
" style="fill:none;stroke:#000000;stroke-linecap:square;stroke-linejoin:miter;stroke-width:0.8;"/>
   </g>
  </g>
 </g>
 <defs>
  <clipPath id="pdb5a3006dc">
   <rect height="266.112" width="357.12" x="56.5325" y="39.17375"/>
  </clipPath>
 </defs>
</svg>
