<?xml version="1.0" encoding="utf-8" standalone="no"?>
<!DOCTYPE svg PUBLIC "-//W3C//DTD SVG 1.1//EN"
  "http://www.w3.org/Graphics/SVG/1.1/DTD/svg11.dtd">
<!-- Created with matplotlib (https://matplotlib.org/) -->
<svg height="313.910125pt" version="1.1" viewBox="0 0 343.925357 313.910125" width="343.925357pt" xmlns="http://www.w3.org/2000/svg" xmlns:xlink="http://www.w3.org/1999/xlink">
 <defs>
  <style type="text/css">
*{stroke-linecap:butt;stroke-linejoin:round;}
  </style>
 </defs>
 <g id="figure_1">
  <g id="patch_1">
   <path d="M 0 313.910125 
L 343.925357 313.910125 
L 343.925357 0 
L 0 0 
z
" style="fill:#ffffff;"/>
  </g>
  <g id="axes_1">
   <g id="patch_2">
    <path d="M 61.565312 273.312 
L 336.725357 273.312 
L 336.725357 7.2 
L 61.565312 7.2 
z
" style="fill:#ffffff;"/>
   </g>
   <g id="patch_3">
    <path clip-path="url(#pe99ac8cf0d)" d="M 252.77716 31.438832 
L 251.944322 36.069269 
L 250.899644 35.498953 
L 195.628792 136.741504 
L 195.106453 136.456346 
L 250.377305 35.213795 
L 249.332627 34.643479 
z
" style="fill:#ff0000;stroke:#ff0000;stroke-linejoin:miter;"/>
   </g>
   <g id="patch_4">
    <path clip-path="url(#pe99ac8cf0d)" d="M 83.69353 71.815981 
L 88.300795 72.768706 
L 87.70356 73.798232 
L 195.516931 136.341544 
L 195.218313 136.856307 
L 87.404942 74.312994 
L 86.807707 75.34252 
z
" style="fill:#ff0000;stroke:#ff0000;stroke-linejoin:miter;"/>
   </g>
   <g id="patch_5">
    <path clip-path="url(#pe99ac8cf0d)" d="M 312.348552 134.845824 
L 307.908039 136.400306 
L 307.890204 135.210225 
L 195.372081 136.896446 
L 195.363163 136.301405 
L 307.881287 134.615184 
L 307.863452 133.425102 
z
" style="stroke:#000000;stroke-linejoin:miter;"/>
   </g>
   <g id="patch_6">
    <path clip-path="url(#pe99ac8cf0d)" d="M 193.327017 15.824289 
L 194.889975 20.261826 
L 193.69993 20.281933 
L 195.665133 136.593899 
L 195.070111 136.603952 
L 193.104907 20.291987 
L 191.914862 20.312094 
z
" style="stroke:#000000;stroke-linejoin:miter;"/>
   </g>
   <g id="matplotlib.axis_1">
    <g id="xtick_1">
     <g id="line2d_1">
      <defs>
       <path d="M 0 0 
L 0 3.5 
" id="mc2d734d34d" style="stroke:#000000;stroke-width:0.8;"/>
      </defs>
      <g>
       <use style="stroke:#000000;stroke-width:0.8;" x="78.386692" xlink:href="#mc2d734d34d" y="273.312"/>
      </g>
     </g>
     <g id="text_1">
      <!-- −1.0 -->
      <defs>
       <path d="M 10.59375 35.5 
L 73.1875 35.5 
L 73.1875 27.203125 
L 10.59375 27.203125 
z
" id="DejaVuSans-8722"/>
       <path d="M 12.40625 8.296875 
L 28.515625 8.296875 
L 28.515625 63.921875 
L 10.984375 60.40625 
L 10.984375 69.390625 
L 28.421875 72.90625 
L 38.28125 72.90625 
L 38.28125 8.296875 
L 54.390625 8.296875 
L 54.390625 0 
L 12.40625 0 
z
" id="DejaVuSans-49"/>
       <path d="M 10.6875 12.40625 
L 21 12.40625 
L 21 0 
L 10.6875 0 
z
" id="DejaVuSans-46"/>
       <path d="M 31.78125 66.40625 
Q 24.171875 66.40625 20.328125 58.90625 
Q 16.5 51.421875 16.5 36.375 
Q 16.5 21.390625 20.328125 13.890625 
Q 24.171875 6.390625 31.78125 6.390625 
Q 39.453125 6.390625 43.28125 13.890625 
Q 47.125 21.390625 47.125 36.375 
Q 47.125 51.421875 43.28125 58.90625 
Q 39.453125 66.40625 31.78125 66.40625 
z
M 31.78125 74.21875 
Q 44.046875 74.21875 50.515625 64.515625 
Q 56.984375 54.828125 56.984375 36.375 
Q 56.984375 17.96875 50.515625 8.265625 
Q 44.046875 -1.421875 31.78125 -1.421875 
Q 19.53125 -1.421875 13.0625 8.265625 
Q 6.59375 17.96875 6.59375 36.375 
Q 6.59375 54.828125 13.0625 64.515625 
Q 19.53125 74.21875 31.78125 74.21875 
z
" id="DejaVuSans-48"/>
      </defs>
      <g transform="translate(66.245286 287.910437)scale(0.1 -0.1)">
       <use xlink:href="#DejaVuSans-8722"/>
       <use x="83.789062" xlink:href="#DejaVuSans-49"/>
       <use x="147.412109" xlink:href="#DejaVuSans-46"/>
       <use x="179.199219" xlink:href="#DejaVuSans-48"/>
      </g>
     </g>
    </g>
    <g id="xtick_2">
     <g id="line2d_2">
      <g>
       <use style="stroke:#000000;stroke-width:0.8;" x="137.89746" xlink:href="#mc2d734d34d" y="273.312"/>
      </g>
     </g>
     <g id="text_2">
      <!-- −0.5 -->
      <defs>
       <path d="M 10.796875 72.90625 
L 49.515625 72.90625 
L 49.515625 64.59375 
L 19.828125 64.59375 
L 19.828125 46.734375 
Q 21.96875 47.46875 24.109375 47.828125 
Q 26.265625 48.1875 28.421875 48.1875 
Q 40.625 48.1875 47.75 41.5 
Q 54.890625 34.8125 54.890625 23.390625 
Q 54.890625 11.625 47.5625 5.09375 
Q 40.234375 -1.421875 26.90625 -1.421875 
Q 22.3125 -1.421875 17.546875 -0.640625 
Q 12.796875 0.140625 7.71875 1.703125 
L 7.71875 11.625 
Q 12.109375 9.234375 16.796875 8.0625 
Q 21.484375 6.890625 26.703125 6.890625 
Q 35.15625 6.890625 40.078125 11.328125 
Q 45.015625 15.765625 45.015625 23.390625 
Q 45.015625 31 40.078125 35.4375 
Q 35.15625 39.890625 26.703125 39.890625 
Q 22.75 39.890625 18.8125 39.015625 
Q 14.890625 38.140625 10.796875 36.28125 
z
" id="DejaVuSans-53"/>
      </defs>
      <g transform="translate(125.756053 287.910437)scale(0.1 -0.1)">
       <use xlink:href="#DejaVuSans-8722"/>
       <use x="83.789062" xlink:href="#DejaVuSans-48"/>
       <use x="147.412109" xlink:href="#DejaVuSans-46"/>
       <use x="179.199219" xlink:href="#DejaVuSans-53"/>
      </g>
     </g>
    </g>
    <g id="xtick_3">
     <g id="line2d_3">
      <g>
       <use style="stroke:#000000;stroke-width:0.8;" x="197.408227" xlink:href="#mc2d734d34d" y="273.312"/>
      </g>
     </g>
     <g id="text_3">
      <!-- 0.0 -->
      <g transform="translate(189.456664 287.910437)scale(0.1 -0.1)">
       <use xlink:href="#DejaVuSans-48"/>
       <use x="63.623047" xlink:href="#DejaVuSans-46"/>
       <use x="95.410156" xlink:href="#DejaVuSans-48"/>
      </g>
     </g>
    </g>
    <g id="xtick_4">
     <g id="line2d_4">
      <g>
       <use style="stroke:#000000;stroke-width:0.8;" x="256.918994" xlink:href="#mc2d734d34d" y="273.312"/>
      </g>
     </g>
     <g id="text_4">
      <!-- 0.5 -->
      <g transform="translate(248.967432 287.910437)scale(0.1 -0.1)">
       <use xlink:href="#DejaVuSans-48"/>
       <use x="63.623047" xlink:href="#DejaVuSans-46"/>
       <use x="95.410156" xlink:href="#DejaVuSans-53"/>
      </g>
     </g>
    </g>
    <g id="xtick_5">
     <g id="line2d_5">
      <g>
       <use style="stroke:#000000;stroke-width:0.8;" x="316.429761" xlink:href="#mc2d734d34d" y="273.312"/>
      </g>
     </g>
     <g id="text_5">
      <!-- 1.0 -->
      <g transform="translate(308.478199 287.910437)scale(0.1 -0.1)">
       <use xlink:href="#DejaVuSans-49"/>
       <use x="63.623047" xlink:href="#DejaVuSans-46"/>
       <use x="95.410156" xlink:href="#DejaVuSans-48"/>
      </g>
     </g>
    </g>
    <g id="text_6">
     <!-- $x_1'$ [mm] -->
     <defs>
      <path d="M 60.015625 54.6875 
L 34.90625 27.875 
L 50.296875 0 
L 39.984375 0 
L 28.421875 21.6875 
L 8.296875 0 
L -2.59375 0 
L 24.3125 28.8125 
L 10.015625 54.6875 
L 20.3125 54.6875 
L 30.8125 34.90625 
L 49.125 54.6875 
z
" id="DejaVuSans-Oblique-120"/>
      <path d="M 3.515625 5.421875 
Q 2.875 5.609375 2.875 6.390625 
L 15.09375 51.8125 
Q 15.671875 53.65625 17.078125 54.78125 
Q 18.5 55.90625 20.3125 55.90625 
Q 22.65625 55.90625 24.4375 54.359375 
Q 26.21875 52.828125 26.21875 50.484375 
Q 26.21875 49.46875 25.6875 48.1875 
L 7.625 4.984375 
Q 7.28125 4.296875 6.6875 4.296875 
Q 6.15625 4.296875 5 4.78125 
Q 3.859375 5.28125 3.515625 5.421875 
z
" id="Cmsy10-48"/>
      <path id="DejaVuSans-32"/>
      <path d="M 8.59375 75.984375 
L 29.296875 75.984375 
L 29.296875 69 
L 17.578125 69 
L 17.578125 -6.203125 
L 29.296875 -6.203125 
L 29.296875 -13.1875 
L 8.59375 -13.1875 
z
" id="DejaVuSans-91"/>
      <path d="M 52 44.1875 
Q 55.375 50.25 60.0625 53.125 
Q 64.75 56 71.09375 56 
Q 79.640625 56 84.28125 50.015625 
Q 88.921875 44.046875 88.921875 33.015625 
L 88.921875 0 
L 79.890625 0 
L 79.890625 32.71875 
Q 79.890625 40.578125 77.09375 44.375 
Q 74.3125 48.1875 68.609375 48.1875 
Q 61.625 48.1875 57.5625 43.546875 
Q 53.515625 38.921875 53.515625 30.90625 
L 53.515625 0 
L 44.484375 0 
L 44.484375 32.71875 
Q 44.484375 40.625 41.703125 44.40625 
Q 38.921875 48.1875 33.109375 48.1875 
Q 26.21875 48.1875 22.15625 43.53125 
Q 18.109375 38.875 18.109375 30.90625 
L 18.109375 0 
L 9.078125 0 
L 9.078125 54.6875 
L 18.109375 54.6875 
L 18.109375 46.1875 
Q 21.1875 51.21875 25.484375 53.609375 
Q 29.78125 56 35.6875 56 
Q 41.65625 56 45.828125 52.96875 
Q 50 49.953125 52 44.1875 
z
" id="DejaVuSans-109"/>
      <path d="M 30.421875 75.984375 
L 30.421875 -13.1875 
L 9.71875 -13.1875 
L 9.71875 -6.203125 
L 21.390625 -6.203125 
L 21.390625 69 
L 9.71875 69 
L 9.71875 75.984375 
z
" id="DejaVuSans-93"/>
     </defs>
     <g transform="translate(174.425335 303.350125)scale(0.12 -0.12)">
      <use transform="translate(0 0.584375)" xlink:href="#DejaVuSans-Oblique-120"/>
      <use transform="translate(63.645833 38.865625)scale(0.7)" xlink:href="#Cmsy10-48"/>
      <use transform="translate(59.179688 -26.759375)scale(0.7)" xlink:href="#DejaVuSans-49"/>
      <use transform="translate(106.450195 0.584375)" xlink:href="#DejaVuSans-32"/>
      <use transform="translate(138.237305 0.584375)" xlink:href="#DejaVuSans-91"/>
      <use transform="translate(177.250977 0.584375)" xlink:href="#DejaVuSans-109"/>
      <use transform="translate(274.663086 0.584375)" xlink:href="#DejaVuSans-109"/>
      <use transform="translate(372.075195 0.584375)" xlink:href="#DejaVuSans-93"/>
     </g>
    </g>
   </g>
   <g id="matplotlib.axis_2">
    <g id="ytick_1">
     <g id="line2d_6">
      <defs>
       <path d="M 0 0 
L -3.5 0 
" id="m234027af21" style="stroke:#000000;stroke-width:0.8;"/>
      </defs>
      <g>
       <use style="stroke:#000000;stroke-width:0.8;" x="61.565312" xlink:href="#m234027af21" y="257.373562"/>
      </g>
     </g>
     <g id="text_7">
      <!-- −1.00 -->
      <g transform="translate(23.92 261.17278)scale(0.1 -0.1)">
       <use xlink:href="#DejaVuSans-8722"/>
       <use x="83.789062" xlink:href="#DejaVuSans-49"/>
       <use x="147.412109" xlink:href="#DejaVuSans-46"/>
       <use x="179.199219" xlink:href="#DejaVuSans-48"/>
       <use x="242.822266" xlink:href="#DejaVuSans-48"/>
      </g>
     </g>
    </g>
    <g id="ytick_2">
     <g id="line2d_7">
      <g>
       <use style="stroke:#000000;stroke-width:0.8;" x="61.565312" xlink:href="#m234027af21" y="227.618178"/>
      </g>
     </g>
     <g id="text_8">
      <!-- −0.75 -->
      <defs>
       <path d="M 8.203125 72.90625 
L 55.078125 72.90625 
L 55.078125 68.703125 
L 28.609375 0 
L 18.3125 0 
L 43.21875 64.59375 
L 8.203125 64.59375 
z
" id="DejaVuSans-55"/>
      </defs>
      <g transform="translate(23.92 231.417397)scale(0.1 -0.1)">
       <use xlink:href="#DejaVuSans-8722"/>
       <use x="83.789062" xlink:href="#DejaVuSans-48"/>
       <use x="147.412109" xlink:href="#DejaVuSans-46"/>
       <use x="179.199219" xlink:href="#DejaVuSans-55"/>
       <use x="242.822266" xlink:href="#DejaVuSans-53"/>
      </g>
     </g>
    </g>
    <g id="ytick_3">
     <g id="line2d_8">
      <g>
       <use style="stroke:#000000;stroke-width:0.8;" x="61.565312" xlink:href="#m234027af21" y="197.862794"/>
      </g>
     </g>
     <g id="text_9">
      <!-- −0.50 -->
      <g transform="translate(23.92 201.662013)scale(0.1 -0.1)">
       <use xlink:href="#DejaVuSans-8722"/>
       <use x="83.789062" xlink:href="#DejaVuSans-48"/>
       <use x="147.412109" xlink:href="#DejaVuSans-46"/>
       <use x="179.199219" xlink:href="#DejaVuSans-53"/>
       <use x="242.822266" xlink:href="#DejaVuSans-48"/>
      </g>
     </g>
    </g>
    <g id="ytick_4">
     <g id="line2d_9">
      <g>
       <use style="stroke:#000000;stroke-width:0.8;" x="61.565312" xlink:href="#m234027af21" y="168.107411"/>
      </g>
     </g>
     <g id="text_10">
      <!-- −0.25 -->
      <defs>
       <path d="M 19.1875 8.296875 
L 53.609375 8.296875 
L 53.609375 0 
L 7.328125 0 
L 7.328125 8.296875 
Q 12.9375 14.109375 22.625 23.890625 
Q 32.328125 33.6875 34.8125 36.53125 
Q 39.546875 41.84375 41.421875 45.53125 
Q 43.3125 49.21875 43.3125 52.78125 
Q 43.3125 58.59375 39.234375 62.25 
Q 35.15625 65.921875 28.609375 65.921875 
Q 23.96875 65.921875 18.8125 64.3125 
Q 13.671875 62.703125 7.8125 59.421875 
L 7.8125 69.390625 
Q 13.765625 71.78125 18.9375 73 
Q 24.125 74.21875 28.421875 74.21875 
Q 39.75 74.21875 46.484375 68.546875 
Q 53.21875 62.890625 53.21875 53.421875 
Q 53.21875 48.921875 51.53125 44.890625 
Q 49.859375 40.875 45.40625 35.40625 
Q 44.1875 33.984375 37.640625 27.21875 
Q 31.109375 20.453125 19.1875 8.296875 
z
" id="DejaVuSans-50"/>
      </defs>
      <g transform="translate(23.92 171.906629)scale(0.1 -0.1)">
       <use xlink:href="#DejaVuSans-8722"/>
       <use x="83.789062" xlink:href="#DejaVuSans-48"/>
       <use x="147.412109" xlink:href="#DejaVuSans-46"/>
       <use x="179.199219" xlink:href="#DejaVuSans-50"/>
       <use x="242.822266" xlink:href="#DejaVuSans-53"/>
      </g>
     </g>
    </g>
    <g id="ytick_5">
     <g id="line2d_10">
      <g>
       <use style="stroke:#000000;stroke-width:0.8;" x="61.565312" xlink:href="#m234027af21" y="138.352027"/>
      </g>
     </g>
     <g id="text_11">
      <!-- 0.00 -->
      <g transform="translate(32.299687 142.151246)scale(0.1 -0.1)">
       <use xlink:href="#DejaVuSans-48"/>
       <use x="63.623047" xlink:href="#DejaVuSans-46"/>
       <use x="95.410156" xlink:href="#DejaVuSans-48"/>
       <use x="159.033203" xlink:href="#DejaVuSans-48"/>
      </g>
     </g>
    </g>
    <g id="ytick_6">
     <g id="line2d_11">
      <g>
       <use style="stroke:#000000;stroke-width:0.8;" x="61.565312" xlink:href="#m234027af21" y="108.596644"/>
      </g>
     </g>
     <g id="text_12">
      <!-- 0.25 -->
      <g transform="translate(32.299687 112.395862)scale(0.1 -0.1)">
       <use xlink:href="#DejaVuSans-48"/>
       <use x="63.623047" xlink:href="#DejaVuSans-46"/>
       <use x="95.410156" xlink:href="#DejaVuSans-50"/>
       <use x="159.033203" xlink:href="#DejaVuSans-53"/>
      </g>
     </g>
    </g>
    <g id="ytick_7">
     <g id="line2d_12">
      <g>
       <use style="stroke:#000000;stroke-width:0.8;" x="61.565312" xlink:href="#m234027af21" y="78.84126"/>
      </g>
     </g>
     <g id="text_13">
      <!-- 0.50 -->
      <g transform="translate(32.299687 82.640479)scale(0.1 -0.1)">
       <use xlink:href="#DejaVuSans-48"/>
       <use x="63.623047" xlink:href="#DejaVuSans-46"/>
       <use x="95.410156" xlink:href="#DejaVuSans-53"/>
       <use x="159.033203" xlink:href="#DejaVuSans-48"/>
      </g>
     </g>
    </g>
    <g id="ytick_8">
     <g id="line2d_13">
      <g>
       <use style="stroke:#000000;stroke-width:0.8;" x="61.565312" xlink:href="#m234027af21" y="49.085876"/>
      </g>
     </g>
     <g id="text_14">
      <!-- 0.75 -->
      <g transform="translate(32.299687 52.885095)scale(0.1 -0.1)">
       <use xlink:href="#DejaVuSans-48"/>
       <use x="63.623047" xlink:href="#DejaVuSans-46"/>
       <use x="95.410156" xlink:href="#DejaVuSans-55"/>
       <use x="159.033203" xlink:href="#DejaVuSans-53"/>
      </g>
     </g>
    </g>
    <g id="ytick_9">
     <g id="line2d_14">
      <g>
       <use style="stroke:#000000;stroke-width:0.8;" x="61.565312" xlink:href="#m234027af21" y="19.330493"/>
      </g>
     </g>
     <g id="text_15">
      <!-- 1.00 -->
      <g transform="translate(32.299687 23.129712)scale(0.1 -0.1)">
       <use xlink:href="#DejaVuSans-49"/>
       <use x="63.623047" xlink:href="#DejaVuSans-46"/>
       <use x="95.410156" xlink:href="#DejaVuSans-48"/>
       <use x="159.033203" xlink:href="#DejaVuSans-48"/>
      </g>
     </g>
    </g>
    <g id="text_16">
     <!-- $x_2'$ [mm] -->
     <g transform="translate(16.56 164.976)rotate(-90)scale(0.12 -0.12)">
      <use transform="translate(0 0.584375)" xlink:href="#DejaVuSans-Oblique-120"/>
      <use transform="translate(63.645833 38.865625)scale(0.7)" xlink:href="#Cmsy10-48"/>
      <use transform="translate(59.179688 -26.759375)scale(0.7)" xlink:href="#DejaVuSans-50"/>
      <use transform="translate(106.450195 0.584375)" xlink:href="#DejaVuSans-32"/>
      <use transform="translate(138.237305 0.584375)" xlink:href="#DejaVuSans-91"/>
      <use transform="translate(177.250977 0.584375)" xlink:href="#DejaVuSans-109"/>
      <use transform="translate(274.663086 0.584375)" xlink:href="#DejaVuSans-109"/>
      <use transform="translate(372.075195 0.584375)" xlink:href="#DejaVuSans-93"/>
     </g>
    </g>
   </g>
   <g id="line2d_15">
    <path clip-path="url(#pe99ac8cf0d)" d="M 316.429761 138.352027 
L 316.190132 130.803215 
L 315.472211 123.284799 
L 314.278887 115.827054 
L 312.614967 108.460008 
L 310.487149 101.213328 
L 307.904003 94.116191 
L 304.875929 87.197177 
L 301.415121 80.484146 
L 297.535513 74.004127 
L 293.252729 67.783216 
L 288.584012 61.84646 
L 283.548163 56.217764 
L 278.165458 50.919795 
L 272.457573 45.973884 
L 266.44749 41.399947 
L 260.159411 37.216403 
L 253.618655 33.440095 
L 246.851559 30.086231 
L 239.885373 27.168315 
L 232.748146 24.698097 
L 225.468617 22.685523 
L 218.076099 21.138697 
L 210.600359 20.063848 
L 203.071499 19.465304 
L 195.519836 19.345474 
L 187.975775 19.704842 
L 180.469696 20.54196 
L 173.031823 21.853458 
L 165.692105 23.634055 
L 158.480096 25.87658 
L 151.424837 28.572004 
L 144.554737 31.709473 
L 137.89746 35.276355 
L 131.479811 39.258286 
L 125.327633 43.639232 
L 119.465698 48.401553 
L 113.917609 53.526073 
L 108.705709 58.992158 
L 103.850981 64.777796 
L 99.372976 70.859692 
L 95.289725 77.213356 
L 91.617668 83.813203 
L 88.371593 90.63266 
L 85.564569 97.644265 
L 83.207901 104.819786 
L 81.311077 112.130329 
L 79.881735 119.546459 
L 78.925631 127.038311 
L 78.446615 134.57572 
L 78.446615 142.128334 
L 78.925631 149.665743 
L 79.881735 157.157596 
L 81.311077 164.573725 
L 83.207901 171.884268 
L 85.564569 179.059789 
L 88.371593 186.071395 
L 91.617668 192.890851 
L 95.289725 199.490698 
L 99.372976 205.844362 
L 103.850981 211.926258 
L 108.705709 217.711897 
L 113.917609 223.177981 
L 119.465698 228.302501 
L 125.327633 233.064822 
L 131.479811 237.445769 
L 137.89746 241.4277 
L 144.554737 244.994581 
L 151.424837 248.13205 
L 158.480096 250.827475 
L 165.692105 253.07 
L 173.031823 254.850596 
L 180.469696 256.162094 
L 187.975775 256.999212 
L 195.519836 257.35858 
L 203.071499 257.23875 
L 210.600359 256.640206 
L 218.076099 255.565357 
L 225.468617 254.018531 
L 232.748146 252.005957 
L 239.885373 249.535739 
L 246.851559 246.617823 
L 253.618655 243.263959 
L 260.159411 239.487652 
L 266.44749 235.304107 
L 272.457573 230.73017 
L 278.165458 225.784259 
L 283.548163 220.48629 
L 288.584012 214.857595 
L 293.252729 208.920839 
L 297.535513 202.699927 
L 301.415121 196.219909 
L 304.875929 189.506877 
L 307.904003 182.587863 
L 310.487149 175.490727 
L 312.614967 168.244046 
L 314.278887 160.877001 
L 315.472211 153.419255 
L 316.190132 145.900839 
L 316.429761 138.352027 
L 316.429761 138.352027 
" style="fill:none;stroke:#000000;stroke-linecap:square;"/>
   </g>
   <g id="line2d_16">
    <path clip-path="url(#pe99ac8cf0d)" d="M 324.218082 143.827045 
L 323.467848 135.665754 
L 322.982495 127.903008 
L 321.80719 120.088028 
L 319.748181 113.055511 
L 317.345787 106.016588 
L 314.522438 98.935336 
L 311.149132 91.922987 
L 307.163247 84.889841 
L 302.488344 77.825234 
L 298.729497 71.119398 
L 293.520344 64.776696 
L 288.087524 58.097666 
L 282.381204 52.328465 
L 276.192721 47.67653 
L 269.592286 43.29141 
L 262.810015 39.264739 
L 255.818185 34.646826 
L 248.835965 30.545185 
L 241.83286 27.707415 
L 234.739021 25.46874 
L 227.411122 23.370811 
L 219.405058 21.591398 
L 210.916861 20.67395 
L 202.571527 19.628716 
L 194.734847 19.344034 
L 186.649594 19.296 
L 178.724613 19.532864 
L 171.192946 20.618851 
L 163.52817 22.413063 
L 156.014844 24.617421 
L 148.445448 27.313526 
L 141.552695 30.155174 
L 135.269223 33.177797 
L 128.658374 36.902453 
L 121.818796 41.449849 
L 116.012739 46.302757 
L 110.44207 51.818328 
L 105.253862 57.620653 
L 100.176355 63.314644 
L 94.871471 69.564491 
L 90.426269 76.046319 
L 86.585236 82.672969 
L 83.34221 89.312157 
L 80.908909 96.036986 
L 78.689883 103.105111 
L 76.771935 110.324205 
L 75.092614 117.777594 
L 74.072587 125.662319 
L 74.286904 132.97302 
L 74.560181 140.955563 
L 75.53555 149.169425 
L 76.951735 157.064545 
L 78.099571 165.074511 
L 80.847507 172.405485 
L 83.893621 179.656875 
L 87.032774 186.705866 
L 90.445853 193.232419 
L 94.234827 199.551554 
L 99.358263 205.791023 
L 105.335379 211.754395 
L 110.317475 218.215655 
L 114.874708 224.698336 
L 120.11883 229.838381 
L 125.791791 234.697354 
L 133.044447 239.6519 
L 139.883613 243.919688 
L 146.474761 248.297944 
L 153.365004 251.715188 
L 160.757384 253.980002 
L 168.246893 256.23685 
L 175.772931 257.943971 
L 183.517115 259.769889 
L 191.371093 260.763737 
L 199.616505 261.216 
L 207.678918 261.161661 
L 215.435692 260.950239 
L 223.173656 260.051304 
L 230.930861 258.721982 
L 238.594875 256.372051 
L 245.911038 254.096265 
L 253.01846 251.722521 
L 259.70466 248.263322 
L 266.385665 244.644444 
L 272.826064 241.217978 
L 279.589241 237.085095 
L 286.256271 231.92171 
L 291.680053 227.224515 
L 297.183413 222.04259 
L 302.425865 215.658428 
L 306.980899 208.514915 
L 310.359992 201.931621 
L 314.237856 195.036191 
L 317.316547 188.299648 
L 319.225272 181.506513 
L 320.825399 173.687883 
L 321.987859 166.000783 
L 322.638781 159.087461 
L 323.202536 151.761517 
L 324.218082 143.827045 
L 324.218082 143.827045 
" style="fill:none;stroke:#ff0000;stroke-linecap:square;"/>
   </g>
   <g id="line2d_17">
    <path clip-path="url(#pe99ac8cf0d)" d="M 209.31038 138.352027 
L 209.307653 138.097237 
L 209.299472 137.842563 
L 209.285841 137.588123 
L 209.266766 137.334034 
L 209.242256 137.08041 
L 209.212323 136.82737 
L 209.176979 136.575028 
L 209.136242 136.323501 
L 209.09013 136.072903 
L 209.038663 135.82335 
L 208.981866 135.574956 
L 208.919765 135.327835 
L 208.852388 135.082099 
L 208.779766 134.837863 
L 208.701932 134.595237 
L 208.618922 134.354333 
L 208.530774 134.115261 
L 208.437529 133.87813 
L 208.339228 133.64305 
L 208.235918 133.410129 
L 208.127645 133.179472 
L 208.01446 132.951186 
L 207.896413 132.725375 
L 207.773559 132.502143 
L 207.645955 132.281593 
L 207.513659 132.063824 
L 207.376731 131.848937 
L 207.235235 131.637031 
L 207.089234 131.428202 
L 206.938797 131.222547 
L 206.783992 131.020159 
L 206.624889 130.821132 
L 206.461563 130.625556 
L 206.294087 130.433521 
L 206.122539 130.245115 
L 205.946997 130.060425 
L 205.767541 129.879535 
L 205.584254 129.702528 
L 205.39722 129.529486 
L 205.206525 129.360486 
L 205.012255 129.195608 
L 204.814501 129.034926 
L 204.613352 128.878515 
L 204.4089 128.726445 
L 204.20124 128.578787 
L 203.990467 128.435608 
L 203.776678 128.296974 
L 203.559969 128.162948 
L 203.340441 128.033593 
" style="fill:none;stroke:#0000ff;stroke-linecap:square;stroke-width:1.5;"/>
   </g>
   <g id="patch_7">
    <path d="M 61.565312 273.312 
L 61.565312 7.2 
" style="fill:none;stroke:#000000;stroke-linecap:square;stroke-linejoin:miter;stroke-width:0.8;"/>
   </g>
   <g id="patch_8">
    <path d="M 336.725357 273.312 
L 336.725357 7.2 
" style="fill:none;stroke:#000000;stroke-linecap:square;stroke-linejoin:miter;stroke-width:0.8;"/>
   </g>
   <g id="patch_9">
    <path d="M 61.565313 273.312 
L 336.725357 273.312 
" style="fill:none;stroke:#000000;stroke-linecap:square;stroke-linejoin:miter;stroke-width:0.8;"/>
   </g>
   <g id="patch_10">
    <path d="M 61.565313 7.2 
L 336.725357 7.2 
" style="fill:none;stroke:#000000;stroke-linecap:square;stroke-linejoin:miter;stroke-width:0.8;"/>
   </g>
   <g id="text_17">
    <!-- $\mathbf{e}_1$ -->
    <defs>
     <path d="M 62.984375 27.484375 
L 62.984375 22.515625 
L 22.125 22.515625 
Q 22.75 16.359375 26.5625 13.28125 
Q 30.375 10.203125 37.203125 10.203125 
Q 42.71875 10.203125 48.5 11.84375 
Q 54.296875 13.484375 60.40625 16.796875 
L 60.40625 3.328125 
Q 54.203125 0.984375 48 -0.21875 
Q 41.796875 -1.421875 35.59375 -1.421875 
Q 20.75 -1.421875 12.515625 6.125 
Q 4.296875 13.671875 4.296875 27.296875 
Q 4.296875 40.671875 12.375 48.328125 
Q 20.453125 56 34.625 56 
Q 47.515625 56 55.25 48.234375 
Q 62.984375 40.484375 62.984375 27.484375 
z
M 45.015625 33.296875 
Q 45.015625 38.28125 42.109375 41.328125 
Q 39.203125 44.390625 34.515625 44.390625 
Q 29.4375 44.390625 26.265625 41.53125 
Q 23.09375 38.671875 22.3125 33.296875 
z
" id="DejaVuSans-Bold-101"/>
    </defs>
    <g transform="translate(236.836532 33.414579)scale(0.1 -0.1)">
     <use xlink:href="#DejaVuSans-Bold-101"/>
     <use transform="translate(68.779297 -16.40625)scale(0.7)" xlink:href="#DejaVuSans-49"/>
    </g>
   </g>
   <g id="text_18">
    <!-- a -->
    <defs>
     <path d="M 34.28125 27.484375 
Q 23.390625 27.484375 19.1875 25 
Q 14.984375 22.515625 14.984375 16.5 
Q 14.984375 11.71875 18.140625 8.90625 
Q 21.296875 6.109375 26.703125 6.109375 
Q 34.1875 6.109375 38.703125 11.40625 
Q 43.21875 16.703125 43.21875 25.484375 
L 43.21875 27.484375 
z
M 52.203125 31.203125 
L 52.203125 0 
L 43.21875 0 
L 43.21875 8.296875 
Q 40.140625 3.328125 35.546875 0.953125 
Q 30.953125 -1.421875 24.3125 -1.421875 
Q 15.921875 -1.421875 10.953125 3.296875 
Q 6 8.015625 6 15.921875 
Q 6 25.140625 12.171875 29.828125 
Q 18.359375 34.515625 30.609375 34.515625 
L 43.21875 34.515625 
L 43.21875 35.40625 
Q 43.21875 41.609375 39.140625 45 
Q 35.0625 48.390625 27.6875 48.390625 
Q 23 48.390625 18.546875 47.265625 
Q 14.109375 46.140625 10.015625 43.890625 
L 10.015625 52.203125 
Q 14.9375 54.109375 19.578125 55.046875 
Q 24.21875 56 28.609375 56 
Q 40.484375 56 46.34375 49.84375 
Q 52.203125 43.703125 52.203125 31.203125 
z
" id="DejaVuSans-97"/>
    </defs>
    <g transform="translate(219.077615 79.055676)scale(0.1 -0.1)">
     <use xlink:href="#DejaVuSans-97"/>
    </g>
   </g>
   <g id="text_19">
    <!-- $\mathbf{e}_2$ -->
    <g transform="translate(86.232199 89.178939)scale(0.1 -0.1)">
     <use xlink:href="#DejaVuSans-Bold-101"/>
     <use transform="translate(68.779297 -16.40625)scale(0.7)" xlink:href="#DejaVuSans-50"/>
    </g>
   </g>
   <g id="text_20">
    <!-- b -->
    <defs>
     <path d="M 48.6875 27.296875 
Q 48.6875 37.203125 44.609375 42.84375 
Q 40.53125 48.484375 33.40625 48.484375 
Q 26.265625 48.484375 22.1875 42.84375 
Q 18.109375 37.203125 18.109375 27.296875 
Q 18.109375 17.390625 22.1875 11.75 
Q 26.265625 6.109375 33.40625 6.109375 
Q 40.53125 6.109375 44.609375 11.75 
Q 48.6875 17.390625 48.6875 27.296875 
z
M 18.109375 46.390625 
Q 20.953125 51.265625 25.265625 53.625 
Q 29.59375 56 35.59375 56 
Q 45.5625 56 51.78125 48.09375 
Q 58.015625 40.1875 58.015625 27.296875 
Q 58.015625 14.40625 51.78125 6.484375 
Q 45.5625 -1.421875 35.59375 -1.421875 
Q 29.59375 -1.421875 25.265625 0.953125 
Q 20.953125 3.328125 18.109375 8.203125 
L 18.109375 0 
L 9.078125 0 
L 9.078125 75.984375 
L 18.109375 75.984375 
z
" id="DejaVuSans-98"/>
    </defs>
    <g transform="translate(131.873295 112.888932)scale(0.1 -0.1)">
     <use xlink:href="#DejaVuSans-98"/>
    </g>
   </g>
   <g id="text_21">
    <!-- $\mathbf{e}^{\prime}_1$ -->
    <g transform="translate(290.58485 130.647849)scale(0.1 -0.1)">
     <use transform="translate(0 0.584375)" xlink:href="#DejaVuSans-Bold-101"/>
     <use transform="translate(68.779297 38.865625)scale(0.7)" xlink:href="#Cmsy10-48"/>
     <use transform="translate(68.779297 -26.759375)scale(0.7)" xlink:href="#DejaVuSans-49"/>
    </g>
   </g>
   <g id="text_22">
    <!-- $\mathbf{e}^{\prime}_2$ -->
    <g transform="translate(177.514392 29.479545)scale(0.1 -0.1)">
     <use transform="translate(0 0.584375)" xlink:href="#DejaVuSans-Bold-101"/>
     <use transform="translate(68.779297 38.865625)scale(0.7)" xlink:href="#Cmsy10-48"/>
     <use transform="translate(68.779297 -26.759375)scale(0.7)" xlink:href="#DejaVuSans-50"/>
    </g>
   </g>
   <g id="text_23">
    <!-- $\phi$ -->
    <defs>
     <path d="M 46.734375 75.984375 
L 42.78125 55.8125 
Q 52.546875 55.8125 57.5625 48.34375 
Q 62.75 40.71875 60.15625 27.296875 
Q 57.515625 13.875 49.359375 6.25 
Q 41.453125 -1.21875 31.6875 -1.21875 
L 27.875 -20.796875 
L 18.953125 -20.796875 
L 22.75 -1.21875 
Q 13.03125 -1.21875 7.953125 6.25 
Q 2.78125 13.875 5.421875 27.296875 
Q 8.015625 40.71875 16.15625 48.34375 
Q 24.125 55.8125 33.84375 55.8125 
L 37.796875 75.984375 
z
M 33.25 6.78125 
Q 38.765625 6.78125 43.5 11.8125 
Q 48.6875 17.4375 50.6875 27.296875 
Q 52.640625 37.0625 49.515625 42.78125 
Q 46.734375 47.796875 41.21875 47.796875 
z
M 24.3125 6.78125 
L 32.28125 47.796875 
Q 26.8125 47.796875 22.078125 42.78125 
Q 16.75 37.0625 14.890625 27.296875 
Q 13.03125 17.4375 16.0625 11.8125 
Q 18.796875 6.78125 24.3125 6.78125 
z
" id="DejaVuSans-Oblique-981"/>
    </defs>
    <g transform="translate(210.285878 133.281832)scale(0.1 -0.1)">
     <use transform="translate(0 0.015625)" xlink:href="#DejaVuSans-Oblique-981"/>
    </g>
   </g>
   <g id="legend_1">
    <g id="patch_11">
     <path d="M 142.146116 222.962125 
L 256.144554 222.962125 
Q 258.144554 222.962125 258.144554 220.962125 
L 258.144554 192.605875 
Q 258.144554 190.605875 256.144554 190.605875 
L 142.146116 190.605875 
Q 140.146116 190.605875 140.146116 192.605875 
L 140.146116 220.962125 
Q 140.146116 222.962125 142.146116 222.962125 
z
" style="fill:#ffffff;opacity:0.2;stroke:#cccccc;stroke-linejoin:miter;"/>
    </g>
    <g id="line2d_18">
     <path d="M 144.146116 198.704312 
L 164.146116 198.704312 
" style="fill:none;stroke:#000000;stroke-linecap:square;"/>
    </g>
    <g id="line2d_19"/>
    <g id="text_24">
     <!-- undeformed -->
     <defs>
      <path d="M 8.5 21.578125 
L 8.5 54.6875 
L 17.484375 54.6875 
L 17.484375 21.921875 
Q 17.484375 14.15625 20.5 10.265625 
Q 23.53125 6.390625 29.59375 6.390625 
Q 36.859375 6.390625 41.078125 11.03125 
Q 45.3125 15.671875 45.3125 23.6875 
L 45.3125 54.6875 
L 54.296875 54.6875 
L 54.296875 0 
L 45.3125 0 
L 45.3125 8.40625 
Q 42.046875 3.421875 37.71875 1 
Q 33.40625 -1.421875 27.6875 -1.421875 
Q 18.265625 -1.421875 13.375 4.4375 
Q 8.5 10.296875 8.5 21.578125 
z
M 31.109375 56 
z
" id="DejaVuSans-117"/>
      <path d="M 54.890625 33.015625 
L 54.890625 0 
L 45.90625 0 
L 45.90625 32.71875 
Q 45.90625 40.484375 42.875 44.328125 
Q 39.84375 48.1875 33.796875 48.1875 
Q 26.515625 48.1875 22.3125 43.546875 
Q 18.109375 38.921875 18.109375 30.90625 
L 18.109375 0 
L 9.078125 0 
L 9.078125 54.6875 
L 18.109375 54.6875 
L 18.109375 46.1875 
Q 21.34375 51.125 25.703125 53.5625 
Q 30.078125 56 35.796875 56 
Q 45.21875 56 50.046875 50.171875 
Q 54.890625 44.34375 54.890625 33.015625 
z
" id="DejaVuSans-110"/>
      <path d="M 45.40625 46.390625 
L 45.40625 75.984375 
L 54.390625 75.984375 
L 54.390625 0 
L 45.40625 0 
L 45.40625 8.203125 
Q 42.578125 3.328125 38.25 0.953125 
Q 33.9375 -1.421875 27.875 -1.421875 
Q 17.96875 -1.421875 11.734375 6.484375 
Q 5.515625 14.40625 5.515625 27.296875 
Q 5.515625 40.1875 11.734375 48.09375 
Q 17.96875 56 27.875 56 
Q 33.9375 56 38.25 53.625 
Q 42.578125 51.265625 45.40625 46.390625 
z
M 14.796875 27.296875 
Q 14.796875 17.390625 18.875 11.75 
Q 22.953125 6.109375 30.078125 6.109375 
Q 37.203125 6.109375 41.296875 11.75 
Q 45.40625 17.390625 45.40625 27.296875 
Q 45.40625 37.203125 41.296875 42.84375 
Q 37.203125 48.484375 30.078125 48.484375 
Q 22.953125 48.484375 18.875 42.84375 
Q 14.796875 37.203125 14.796875 27.296875 
z
" id="DejaVuSans-100"/>
      <path d="M 56.203125 29.59375 
L 56.203125 25.203125 
L 14.890625 25.203125 
Q 15.484375 15.921875 20.484375 11.0625 
Q 25.484375 6.203125 34.421875 6.203125 
Q 39.59375 6.203125 44.453125 7.46875 
Q 49.3125 8.734375 54.109375 11.28125 
L 54.109375 2.78125 
Q 49.265625 0.734375 44.1875 -0.34375 
Q 39.109375 -1.421875 33.890625 -1.421875 
Q 20.796875 -1.421875 13.15625 6.1875 
Q 5.515625 13.8125 5.515625 26.8125 
Q 5.515625 40.234375 12.765625 48.109375 
Q 20.015625 56 32.328125 56 
Q 43.359375 56 49.78125 48.890625 
Q 56.203125 41.796875 56.203125 29.59375 
z
M 47.21875 32.234375 
Q 47.125 39.59375 43.09375 43.984375 
Q 39.0625 48.390625 32.421875 48.390625 
Q 24.90625 48.390625 20.390625 44.140625 
Q 15.875 39.890625 15.1875 32.171875 
z
" id="DejaVuSans-101"/>
      <path d="M 37.109375 75.984375 
L 37.109375 68.5 
L 28.515625 68.5 
Q 23.6875 68.5 21.796875 66.546875 
Q 19.921875 64.59375 19.921875 59.515625 
L 19.921875 54.6875 
L 34.71875 54.6875 
L 34.71875 47.703125 
L 19.921875 47.703125 
L 19.921875 0 
L 10.890625 0 
L 10.890625 47.703125 
L 2.296875 47.703125 
L 2.296875 54.6875 
L 10.890625 54.6875 
L 10.890625 58.5 
Q 10.890625 67.625 15.140625 71.796875 
Q 19.390625 75.984375 28.609375 75.984375 
z
" id="DejaVuSans-102"/>
      <path d="M 30.609375 48.390625 
Q 23.390625 48.390625 19.1875 42.75 
Q 14.984375 37.109375 14.984375 27.296875 
Q 14.984375 17.484375 19.15625 11.84375 
Q 23.34375 6.203125 30.609375 6.203125 
Q 37.796875 6.203125 41.984375 11.859375 
Q 46.1875 17.53125 46.1875 27.296875 
Q 46.1875 37.015625 41.984375 42.703125 
Q 37.796875 48.390625 30.609375 48.390625 
z
M 30.609375 56 
Q 42.328125 56 49.015625 48.375 
Q 55.71875 40.765625 55.71875 27.296875 
Q 55.71875 13.875 49.015625 6.21875 
Q 42.328125 -1.421875 30.609375 -1.421875 
Q 18.84375 -1.421875 12.171875 6.21875 
Q 5.515625 13.875 5.515625 27.296875 
Q 5.515625 40.765625 12.171875 48.375 
Q 18.84375 56 30.609375 56 
z
" id="DejaVuSans-111"/>
      <path d="M 41.109375 46.296875 
Q 39.59375 47.171875 37.8125 47.578125 
Q 36.03125 48 33.890625 48 
Q 26.265625 48 22.1875 43.046875 
Q 18.109375 38.09375 18.109375 28.8125 
L 18.109375 0 
L 9.078125 0 
L 9.078125 54.6875 
L 18.109375 54.6875 
L 18.109375 46.1875 
Q 20.953125 51.171875 25.484375 53.578125 
Q 30.03125 56 36.53125 56 
Q 37.453125 56 38.578125 55.875 
Q 39.703125 55.765625 41.0625 55.515625 
z
" id="DejaVuSans-114"/>
     </defs>
     <g transform="translate(172.146116 202.204312)scale(0.1 -0.1)">
      <use xlink:href="#DejaVuSans-117"/>
      <use x="63.378906" xlink:href="#DejaVuSans-110"/>
      <use x="126.757812" xlink:href="#DejaVuSans-100"/>
      <use x="190.234375" xlink:href="#DejaVuSans-101"/>
      <use x="251.757812" xlink:href="#DejaVuSans-102"/>
      <use x="286.962891" xlink:href="#DejaVuSans-111"/>
      <use x="348.144531" xlink:href="#DejaVuSans-114"/>
      <use x="389.242188" xlink:href="#DejaVuSans-109"/>
      <use x="486.654297" xlink:href="#DejaVuSans-101"/>
      <use x="548.177734" xlink:href="#DejaVuSans-100"/>
     </g>
    </g>
    <g id="line2d_20">
     <path d="M 144.146116 213.382437 
L 164.146116 213.382437 
" style="fill:none;stroke:#ff0000;stroke-linecap:square;"/>
    </g>
    <g id="line2d_21"/>
    <g id="text_25">
     <!-- data (deformed) -->
     <defs>
      <path d="M 18.3125 70.21875 
L 18.3125 54.6875 
L 36.8125 54.6875 
L 36.8125 47.703125 
L 18.3125 47.703125 
L 18.3125 18.015625 
Q 18.3125 11.328125 20.140625 9.421875 
Q 21.96875 7.515625 27.59375 7.515625 
L 36.8125 7.515625 
L 36.8125 0 
L 27.59375 0 
Q 17.1875 0 13.234375 3.875 
Q 9.28125 7.765625 9.28125 18.015625 
L 9.28125 47.703125 
L 2.6875 47.703125 
L 2.6875 54.6875 
L 9.28125 54.6875 
L 9.28125 70.21875 
z
" id="DejaVuSans-116"/>
      <path d="M 31 75.875 
Q 24.46875 64.65625 21.28125 53.65625 
Q 18.109375 42.671875 18.109375 31.390625 
Q 18.109375 20.125 21.3125 9.0625 
Q 24.515625 -2 31 -13.1875 
L 23.1875 -13.1875 
Q 15.875 -1.703125 12.234375 9.375 
Q 8.59375 20.453125 8.59375 31.390625 
Q 8.59375 42.28125 12.203125 53.3125 
Q 15.828125 64.359375 23.1875 75.875 
z
" id="DejaVuSans-40"/>
      <path d="M 8.015625 75.875 
L 15.828125 75.875 
Q 23.140625 64.359375 26.78125 53.3125 
Q 30.421875 42.28125 30.421875 31.390625 
Q 30.421875 20.453125 26.78125 9.375 
Q 23.140625 -1.703125 15.828125 -13.1875 
L 8.015625 -13.1875 
Q 14.5 -2 17.703125 9.0625 
Q 20.90625 20.125 20.90625 31.390625 
Q 20.90625 42.671875 17.703125 53.65625 
Q 14.5 64.65625 8.015625 75.875 
z
" id="DejaVuSans-41"/>
     </defs>
     <g transform="translate(172.146116 216.882437)scale(0.1 -0.1)">
      <use xlink:href="#DejaVuSans-100"/>
      <use x="63.476562" xlink:href="#DejaVuSans-97"/>
      <use x="124.755859" xlink:href="#DejaVuSans-116"/>
      <use x="163.964844" xlink:href="#DejaVuSans-97"/>
      <use x="225.244141" xlink:href="#DejaVuSans-32"/>
      <use x="257.03125" xlink:href="#DejaVuSans-40"/>
      <use x="296.044922" xlink:href="#DejaVuSans-100"/>
      <use x="359.521484" xlink:href="#DejaVuSans-101"/>
      <use x="421.044922" xlink:href="#DejaVuSans-102"/>
      <use x="456.25" xlink:href="#DejaVuSans-111"/>
      <use x="517.431641" xlink:href="#DejaVuSans-114"/>
      <use x="558.529297" xlink:href="#DejaVuSans-109"/>
      <use x="655.941406" xlink:href="#DejaVuSans-101"/>
      <use x="717.464844" xlink:href="#DejaVuSans-100"/>
      <use x="780.941406" xlink:href="#DejaVuSans-41"/>
     </g>
    </g>
   </g>
  </g>
 </g>
 <defs>
  <clipPath id="pe99ac8cf0d">
   <rect height="266.112" width="275.160045" x="61.565312" y="7.2"/>
  </clipPath>
 </defs>
</svg>
