<?xml version="1.0" encoding="utf-8" standalone="no"?>
<!DOCTYPE svg PUBLIC "-//W3C//DTD SVG 1.1//EN"
  "http://www.w3.org/Graphics/SVG/1.1/DTD/svg11.dtd">
<!-- Created with matplotlib (https://matplotlib.org/) -->
<svg height="317.155571pt" version="1.1" viewBox="0 0 329.8445 317.155571" width="329.8445pt" xmlns="http://www.w3.org/2000/svg" xmlns:xlink="http://www.w3.org/1999/xlink">
 <defs>
  <style type="text/css">
*{stroke-linecap:butt;stroke-linejoin:round;}
  </style>
 </defs>
 <g id="figure_1">
  <g id="patch_1">
   <path d="M 0 317.155571 
L 329.8445 317.155571 
L 329.8445 0 
L 0 0 
z
" style="fill:#ffffff;"/>
  </g>
  <g id="axes_1">
   <g id="patch_2">
    <path d="M 56.5325 275.728071 
L 322.6445 275.728071 
L 322.6445 9.616071 
L 56.5325 9.616071 
z
" style="fill:#ffffff;"/>
   </g>
   <g id="matplotlib.axis_1">
    <g id="xtick_1">
     <g id="line2d_1">
      <path clip-path="url(#pfa6bc38b2e)" d="M 68.6285 275.728071 
L 68.6285 9.616071 
" style="fill:none;stroke:#b0b0b0;stroke-linecap:square;stroke-width:0.8;"/>
     </g>
     <g id="line2d_2">
      <defs>
       <path d="M 0 0 
L 0 3.5 
" id="ma2ddc5851c" style="stroke:#000000;stroke-width:0.8;"/>
      </defs>
      <g>
       <use style="stroke:#000000;stroke-width:0.8;" x="68.6285" xlink:href="#ma2ddc5851c" y="275.728071"/>
      </g>
     </g>
     <g id="text_1">
      <!-- 0 -->
      <defs>
       <path d="M 31.78125 66.40625 
Q 24.171875 66.40625 20.328125 58.90625 
Q 16.5 51.421875 16.5 36.375 
Q 16.5 21.390625 20.328125 13.890625 
Q 24.171875 6.390625 31.78125 6.390625 
Q 39.453125 6.390625 43.28125 13.890625 
Q 47.125 21.390625 47.125 36.375 
Q 47.125 51.421875 43.28125 58.90625 
Q 39.453125 66.40625 31.78125 66.40625 
z
M 31.78125 74.21875 
Q 44.046875 74.21875 50.515625 64.515625 
Q 56.984375 54.828125 56.984375 36.375 
Q 56.984375 17.96875 50.515625 8.265625 
Q 44.046875 -1.421875 31.78125 -1.421875 
Q 19.53125 -1.421875 13.0625 8.265625 
Q 6.59375 17.96875 6.59375 36.375 
Q 6.59375 54.828125 13.0625 64.515625 
Q 19.53125 74.21875 31.78125 74.21875 
z
" id="DejaVuSans-48"/>
      </defs>
      <g transform="translate(64.811 291.846196)scale(0.12 -0.12)">
       <use xlink:href="#DejaVuSans-48"/>
      </g>
     </g>
    </g>
    <g id="xtick_2">
     <g id="line2d_3">
      <path clip-path="url(#pfa6bc38b2e)" d="M 135.8285 275.728071 
L 135.8285 9.616071 
" style="fill:none;stroke:#b0b0b0;stroke-linecap:square;stroke-width:0.8;"/>
     </g>
     <g id="line2d_4">
      <g>
       <use style="stroke:#000000;stroke-width:0.8;" x="135.8285" xlink:href="#ma2ddc5851c" y="275.728071"/>
      </g>
     </g>
     <g id="text_2">
      <!-- 100 -->
      <defs>
       <path d="M 12.40625 8.296875 
L 28.515625 8.296875 
L 28.515625 63.921875 
L 10.984375 60.40625 
L 10.984375 69.390625 
L 28.421875 72.90625 
L 38.28125 72.90625 
L 38.28125 8.296875 
L 54.390625 8.296875 
L 54.390625 0 
L 12.40625 0 
z
" id="DejaVuSans-49"/>
      </defs>
      <g transform="translate(124.376 291.846196)scale(0.12 -0.12)">
       <use xlink:href="#DejaVuSans-49"/>
       <use x="63.623047" xlink:href="#DejaVuSans-48"/>
       <use x="127.246094" xlink:href="#DejaVuSans-48"/>
      </g>
     </g>
    </g>
    <g id="xtick_3">
     <g id="line2d_5">
      <path clip-path="url(#pfa6bc38b2e)" d="M 203.0285 275.728071 
L 203.0285 9.616071 
" style="fill:none;stroke:#b0b0b0;stroke-linecap:square;stroke-width:0.8;"/>
     </g>
     <g id="line2d_6">
      <g>
       <use style="stroke:#000000;stroke-width:0.8;" x="203.0285" xlink:href="#ma2ddc5851c" y="275.728071"/>
      </g>
     </g>
     <g id="text_3">
      <!-- 200 -->
      <defs>
       <path d="M 19.1875 8.296875 
L 53.609375 8.296875 
L 53.609375 0 
L 7.328125 0 
L 7.328125 8.296875 
Q 12.9375 14.109375 22.625 23.890625 
Q 32.328125 33.6875 34.8125 36.53125 
Q 39.546875 41.84375 41.421875 45.53125 
Q 43.3125 49.21875 43.3125 52.78125 
Q 43.3125 58.59375 39.234375 62.25 
Q 35.15625 65.921875 28.609375 65.921875 
Q 23.96875 65.921875 18.8125 64.3125 
Q 13.671875 62.703125 7.8125 59.421875 
L 7.8125 69.390625 
Q 13.765625 71.78125 18.9375 73 
Q 24.125 74.21875 28.421875 74.21875 
Q 39.75 74.21875 46.484375 68.546875 
Q 53.21875 62.890625 53.21875 53.421875 
Q 53.21875 48.921875 51.53125 44.890625 
Q 49.859375 40.875 45.40625 35.40625 
Q 44.1875 33.984375 37.640625 27.21875 
Q 31.109375 20.453125 19.1875 8.296875 
z
" id="DejaVuSans-50"/>
      </defs>
      <g transform="translate(191.576 291.846196)scale(0.12 -0.12)">
       <use xlink:href="#DejaVuSans-50"/>
       <use x="63.623047" xlink:href="#DejaVuSans-48"/>
       <use x="127.246094" xlink:href="#DejaVuSans-48"/>
      </g>
     </g>
    </g>
    <g id="xtick_4">
     <g id="line2d_7">
      <path clip-path="url(#pfa6bc38b2e)" d="M 270.2285 275.728071 
L 270.2285 9.616071 
" style="fill:none;stroke:#b0b0b0;stroke-linecap:square;stroke-width:0.8;"/>
     </g>
     <g id="line2d_8">
      <g>
       <use style="stroke:#000000;stroke-width:0.8;" x="270.2285" xlink:href="#ma2ddc5851c" y="275.728071"/>
      </g>
     </g>
     <g id="text_4">
      <!-- 300 -->
      <defs>
       <path d="M 40.578125 39.3125 
Q 47.65625 37.796875 51.625 33 
Q 55.609375 28.21875 55.609375 21.1875 
Q 55.609375 10.40625 48.1875 4.484375 
Q 40.765625 -1.421875 27.09375 -1.421875 
Q 22.515625 -1.421875 17.65625 -0.515625 
Q 12.796875 0.390625 7.625 2.203125 
L 7.625 11.71875 
Q 11.71875 9.328125 16.59375 8.109375 
Q 21.484375 6.890625 26.8125 6.890625 
Q 36.078125 6.890625 40.9375 10.546875 
Q 45.796875 14.203125 45.796875 21.1875 
Q 45.796875 27.640625 41.28125 31.265625 
Q 36.765625 34.90625 28.71875 34.90625 
L 20.21875 34.90625 
L 20.21875 43.015625 
L 29.109375 43.015625 
Q 36.375 43.015625 40.234375 45.921875 
Q 44.09375 48.828125 44.09375 54.296875 
Q 44.09375 59.90625 40.109375 62.90625 
Q 36.140625 65.921875 28.71875 65.921875 
Q 24.65625 65.921875 20.015625 65.03125 
Q 15.375 64.15625 9.8125 62.3125 
L 9.8125 71.09375 
Q 15.4375 72.65625 20.34375 73.4375 
Q 25.25 74.21875 29.59375 74.21875 
Q 40.828125 74.21875 47.359375 69.109375 
Q 53.90625 64.015625 53.90625 55.328125 
Q 53.90625 49.265625 50.4375 45.09375 
Q 46.96875 40.921875 40.578125 39.3125 
z
" id="DejaVuSans-51"/>
      </defs>
      <g transform="translate(258.776 291.846196)scale(0.12 -0.12)">
       <use xlink:href="#DejaVuSans-51"/>
       <use x="63.623047" xlink:href="#DejaVuSans-48"/>
       <use x="127.246094" xlink:href="#DejaVuSans-48"/>
      </g>
     </g>
    </g>
    <g id="text_5">
     <!-- $\theta^{\prime}$ [°] -->
     <defs>
      <path d="M 45.515625 34.671875 
L 14.453125 34.671875 
Q 12.359375 20.0625 14.5 13.875 
Q 17.1875 6.25 24.46875 6.25 
Q 31.78125 6.25 37.359375 13.921875 
Q 42.234375 20.65625 45.515625 34.671875 
z
M 47.015625 42.96875 
Q 48.34375 56.84375 46.625 61.71875 
Q 43.953125 69.4375 36.765625 69.4375 
Q 29.296875 69.4375 23.828125 61.8125 
Q 19.53125 55.671875 16.15625 42.96875 
z
M 38.1875 76.765625 
Q 49.90625 76.765625 54.59375 66.40625 
Q 59.28125 56.109375 55.71875 37.84375 
Q 52.203125 19.625 43.453125 9.28125 
Q 34.765625 -1.125 23.046875 -1.125 
Q 11.28125 -1.125 6.640625 9.28125 
Q 2 19.625 5.515625 37.84375 
Q 9.078125 56.109375 17.71875 66.40625 
Q 26.421875 76.765625 38.1875 76.765625 
z
" id="DejaVuSans-Oblique-952"/>
      <path d="M 3.515625 5.421875 
Q 2.875 5.609375 2.875 6.390625 
L 15.09375 51.8125 
Q 15.671875 53.65625 17.078125 54.78125 
Q 18.5 55.90625 20.3125 55.90625 
Q 22.65625 55.90625 24.4375 54.359375 
Q 26.21875 52.828125 26.21875 50.484375 
Q 26.21875 49.46875 25.6875 48.1875 
L 7.625 4.984375 
Q 7.28125 4.296875 6.6875 4.296875 
Q 6.15625 4.296875 5 4.78125 
Q 3.859375 5.28125 3.515625 5.421875 
z
" id="Cmsy10-48"/>
      <path id="DejaVuSans-32"/>
      <path d="M 8.59375 75.984375 
L 29.296875 75.984375 
L 29.296875 69 
L 17.578125 69 
L 17.578125 -6.203125 
L 29.296875 -6.203125 
L 29.296875 -13.1875 
L 8.59375 -13.1875 
z
" id="DejaVuSans-91"/>
      <path d="M 25 67.921875 
Q 21.09375 67.921875 18.40625 65.203125 
Q 15.71875 62.5 15.71875 58.59375 
Q 15.71875 54.734375 18.40625 52.078125 
Q 21.09375 49.421875 25 49.421875 
Q 28.90625 49.421875 31.59375 52.078125 
Q 34.28125 54.734375 34.28125 58.59375 
Q 34.28125 62.453125 31.5625 65.1875 
Q 28.859375 67.921875 25 67.921875 
z
M 25 74.21875 
Q 28.125 74.21875 31 73.015625 
Q 33.890625 71.828125 35.984375 69.578125 
Q 38.234375 67.390625 39.359375 64.59375 
Q 40.484375 61.8125 40.484375 58.59375 
Q 40.484375 52.15625 35.96875 47.6875 
Q 31.453125 43.21875 24.90625 43.21875 
Q 18.3125 43.21875 13.90625 47.609375 
Q 9.515625 52 9.515625 58.59375 
Q 9.515625 65.140625 14 69.671875 
Q 18.5 74.21875 25 74.21875 
z
" id="DejaVuSans-176"/>
      <path d="M 30.421875 75.984375 
L 30.421875 -13.1875 
L 9.71875 -13.1875 
L 9.71875 -6.203125 
L 21.390625 -6.203125 
L 21.390625 69 
L 9.71875 69 
L 9.71875 75.984375 
z
" id="DejaVuSans-93"/>
     </defs>
     <g transform="translate(174.5285 307.459946)scale(0.12 -0.12)">
      <use transform="translate(0 0.584375)" xlink:href="#DejaVuSans-Oblique-952"/>
      <use transform="translate(68.738724 38.865625)scale(0.7)" xlink:href="#Cmsy10-48"/>
      <use transform="translate(90.716263 0.584375)" xlink:href="#DejaVuSans-32"/>
      <use transform="translate(122.503372 0.584375)" xlink:href="#DejaVuSans-91"/>
      <use transform="translate(161.517044 0.584375)" xlink:href="#DejaVuSans-176"/>
      <use transform="translate(211.517044 0.584375)" xlink:href="#DejaVuSans-93"/>
     </g>
    </g>
   </g>
   <g id="matplotlib.axis_2">
    <g id="ytick_1">
     <g id="line2d_9">
      <path clip-path="url(#pfa6bc38b2e)" d="M 56.5325 239.339761 
L 322.6445 239.339761 
" style="fill:none;stroke:#b0b0b0;stroke-linecap:square;stroke-width:0.8;"/>
     </g>
     <g id="line2d_10">
      <defs>
       <path d="M 0 0 
L -3.5 0 
" id="m33a557fc34" style="stroke:#000000;stroke-width:0.8;"/>
      </defs>
      <g>
       <use style="stroke:#000000;stroke-width:0.8;" x="56.5325" xlink:href="#m33a557fc34" y="239.339761"/>
      </g>
     </g>
     <g id="text_6">
      <!-- 1.00 -->
      <defs>
       <path d="M 10.6875 12.40625 
L 21 12.40625 
L 21 0 
L 10.6875 0 
z
" id="DejaVuSans-46"/>
      </defs>
      <g transform="translate(22.81375 243.898823)scale(0.12 -0.12)">
       <use xlink:href="#DejaVuSans-49"/>
       <use x="63.623047" xlink:href="#DejaVuSans-46"/>
       <use x="95.410156" xlink:href="#DejaVuSans-48"/>
       <use x="159.033203" xlink:href="#DejaVuSans-48"/>
      </g>
     </g>
    </g>
    <g id="ytick_2">
     <g id="line2d_11">
      <path clip-path="url(#pfa6bc38b2e)" d="M 56.5325 193.823621 
L 322.6445 193.823621 
" style="fill:none;stroke:#b0b0b0;stroke-linecap:square;stroke-width:0.8;"/>
     </g>
     <g id="line2d_12">
      <g>
       <use style="stroke:#000000;stroke-width:0.8;" x="56.5325" xlink:href="#m33a557fc34" y="193.823621"/>
      </g>
     </g>
     <g id="text_7">
      <!-- 1.02 -->
      <g transform="translate(22.81375 198.382684)scale(0.12 -0.12)">
       <use xlink:href="#DejaVuSans-49"/>
       <use x="63.623047" xlink:href="#DejaVuSans-46"/>
       <use x="95.410156" xlink:href="#DejaVuSans-48"/>
       <use x="159.033203" xlink:href="#DejaVuSans-50"/>
      </g>
     </g>
    </g>
    <g id="ytick_3">
     <g id="line2d_13">
      <path clip-path="url(#pfa6bc38b2e)" d="M 56.5325 148.307481 
L 322.6445 148.307481 
" style="fill:none;stroke:#b0b0b0;stroke-linecap:square;stroke-width:0.8;"/>
     </g>
     <g id="line2d_14">
      <g>
       <use style="stroke:#000000;stroke-width:0.8;" x="56.5325" xlink:href="#m33a557fc34" y="148.307481"/>
      </g>
     </g>
     <g id="text_8">
      <!-- 1.04 -->
      <defs>
       <path d="M 37.796875 64.3125 
L 12.890625 25.390625 
L 37.796875 25.390625 
z
M 35.203125 72.90625 
L 47.609375 72.90625 
L 47.609375 25.390625 
L 58.015625 25.390625 
L 58.015625 17.1875 
L 47.609375 17.1875 
L 47.609375 0 
L 37.796875 0 
L 37.796875 17.1875 
L 4.890625 17.1875 
L 4.890625 26.703125 
z
" id="DejaVuSans-52"/>
      </defs>
      <g transform="translate(22.81375 152.866544)scale(0.12 -0.12)">
       <use xlink:href="#DejaVuSans-49"/>
       <use x="63.623047" xlink:href="#DejaVuSans-46"/>
       <use x="95.410156" xlink:href="#DejaVuSans-48"/>
       <use x="159.033203" xlink:href="#DejaVuSans-52"/>
      </g>
     </g>
    </g>
    <g id="ytick_4">
     <g id="line2d_15">
      <path clip-path="url(#pfa6bc38b2e)" d="M 56.5325 102.791342 
L 322.6445 102.791342 
" style="fill:none;stroke:#b0b0b0;stroke-linecap:square;stroke-width:0.8;"/>
     </g>
     <g id="line2d_16">
      <g>
       <use style="stroke:#000000;stroke-width:0.8;" x="56.5325" xlink:href="#m33a557fc34" y="102.791342"/>
      </g>
     </g>
     <g id="text_9">
      <!-- 1.06 -->
      <defs>
       <path d="M 33.015625 40.375 
Q 26.375 40.375 22.484375 35.828125 
Q 18.609375 31.296875 18.609375 23.390625 
Q 18.609375 15.53125 22.484375 10.953125 
Q 26.375 6.390625 33.015625 6.390625 
Q 39.65625 6.390625 43.53125 10.953125 
Q 47.40625 15.53125 47.40625 23.390625 
Q 47.40625 31.296875 43.53125 35.828125 
Q 39.65625 40.375 33.015625 40.375 
z
M 52.59375 71.296875 
L 52.59375 62.3125 
Q 48.875 64.0625 45.09375 64.984375 
Q 41.3125 65.921875 37.59375 65.921875 
Q 27.828125 65.921875 22.671875 59.328125 
Q 17.53125 52.734375 16.796875 39.40625 
Q 19.671875 43.65625 24.015625 45.921875 
Q 28.375 48.1875 33.59375 48.1875 
Q 44.578125 48.1875 50.953125 41.515625 
Q 57.328125 34.859375 57.328125 23.390625 
Q 57.328125 12.15625 50.6875 5.359375 
Q 44.046875 -1.421875 33.015625 -1.421875 
Q 20.359375 -1.421875 13.671875 8.265625 
Q 6.984375 17.96875 6.984375 36.375 
Q 6.984375 53.65625 15.1875 63.9375 
Q 23.390625 74.21875 37.203125 74.21875 
Q 40.921875 74.21875 44.703125 73.484375 
Q 48.484375 72.75 52.59375 71.296875 
z
" id="DejaVuSans-54"/>
      </defs>
      <g transform="translate(22.81375 107.350404)scale(0.12 -0.12)">
       <use xlink:href="#DejaVuSans-49"/>
       <use x="63.623047" xlink:href="#DejaVuSans-46"/>
       <use x="95.410156" xlink:href="#DejaVuSans-48"/>
       <use x="159.033203" xlink:href="#DejaVuSans-54"/>
      </g>
     </g>
    </g>
    <g id="ytick_5">
     <g id="line2d_17">
      <path clip-path="url(#pfa6bc38b2e)" d="M 56.5325 57.275202 
L 322.6445 57.275202 
" style="fill:none;stroke:#b0b0b0;stroke-linecap:square;stroke-width:0.8;"/>
     </g>
     <g id="line2d_18">
      <g>
       <use style="stroke:#000000;stroke-width:0.8;" x="56.5325" xlink:href="#m33a557fc34" y="57.275202"/>
      </g>
     </g>
     <g id="text_10">
      <!-- 1.08 -->
      <defs>
       <path d="M 31.78125 34.625 
Q 24.75 34.625 20.71875 30.859375 
Q 16.703125 27.09375 16.703125 20.515625 
Q 16.703125 13.921875 20.71875 10.15625 
Q 24.75 6.390625 31.78125 6.390625 
Q 38.8125 6.390625 42.859375 10.171875 
Q 46.921875 13.96875 46.921875 20.515625 
Q 46.921875 27.09375 42.890625 30.859375 
Q 38.875 34.625 31.78125 34.625 
z
M 21.921875 38.8125 
Q 15.578125 40.375 12.03125 44.71875 
Q 8.5 49.078125 8.5 55.328125 
Q 8.5 64.0625 14.71875 69.140625 
Q 20.953125 74.21875 31.78125 74.21875 
Q 42.671875 74.21875 48.875 69.140625 
Q 55.078125 64.0625 55.078125 55.328125 
Q 55.078125 49.078125 51.53125 44.71875 
Q 48 40.375 41.703125 38.8125 
Q 48.828125 37.15625 52.796875 32.3125 
Q 56.78125 27.484375 56.78125 20.515625 
Q 56.78125 9.90625 50.3125 4.234375 
Q 43.84375 -1.421875 31.78125 -1.421875 
Q 19.734375 -1.421875 13.25 4.234375 
Q 6.78125 9.90625 6.78125 20.515625 
Q 6.78125 27.484375 10.78125 32.3125 
Q 14.796875 37.15625 21.921875 38.8125 
z
M 18.3125 54.390625 
Q 18.3125 48.734375 21.84375 45.5625 
Q 25.390625 42.390625 31.78125 42.390625 
Q 38.140625 42.390625 41.71875 45.5625 
Q 45.3125 48.734375 45.3125 54.390625 
Q 45.3125 60.0625 41.71875 63.234375 
Q 38.140625 66.40625 31.78125 66.40625 
Q 25.390625 66.40625 21.84375 63.234375 
Q 18.3125 60.0625 18.3125 54.390625 
z
" id="DejaVuSans-56"/>
      </defs>
      <g transform="translate(22.81375 61.834265)scale(0.12 -0.12)">
       <use xlink:href="#DejaVuSans-49"/>
       <use x="63.623047" xlink:href="#DejaVuSans-46"/>
       <use x="95.410156" xlink:href="#DejaVuSans-48"/>
       <use x="159.033203" xlink:href="#DejaVuSans-56"/>
      </g>
     </g>
    </g>
    <g id="ytick_6">
     <g id="line2d_19">
      <path clip-path="url(#pfa6bc38b2e)" d="M 56.5325 11.759063 
L 322.6445 11.759063 
" style="fill:none;stroke:#b0b0b0;stroke-linecap:square;stroke-width:0.8;"/>
     </g>
     <g id="line2d_20">
      <g>
       <use style="stroke:#000000;stroke-width:0.8;" x="56.5325" xlink:href="#m33a557fc34" y="11.759063"/>
      </g>
     </g>
     <g id="text_11">
      <!-- 1.10 -->
      <g transform="translate(22.81375 16.318125)scale(0.12 -0.12)">
       <use xlink:href="#DejaVuSans-49"/>
       <use x="63.623047" xlink:href="#DejaVuSans-46"/>
       <use x="95.410156" xlink:href="#DejaVuSans-49"/>
       <use x="159.033203" xlink:href="#DejaVuSans-48"/>
      </g>
     </g>
    </g>
    <g id="text_12">
     <!-- $r_{\mathrm{deformation}}$ [mm] -->
     <defs>
      <path d="M 44.578125 46.390625 
Q 43.21875 47.125 41.453125 47.515625 
Q 39.703125 47.90625 37.703125 47.90625 
Q 30.515625 47.90625 25.140625 42.453125 
Q 19.78125 37.015625 18.015625 27.875 
L 12.5 0 
L 3.515625 0 
L 14.203125 54.6875 
L 23.1875 54.6875 
L 21.484375 46.1875 
Q 25.046875 50.921875 30 53.453125 
Q 34.96875 56 40.578125 56 
Q 42.046875 56 43.453125 55.828125 
Q 44.875 55.671875 46.296875 55.28125 
z
" id="DejaVuSans-Oblique-114"/>
      <path d="M 45.40625 46.390625 
L 45.40625 75.984375 
L 54.390625 75.984375 
L 54.390625 0 
L 45.40625 0 
L 45.40625 8.203125 
Q 42.578125 3.328125 38.25 0.953125 
Q 33.9375 -1.421875 27.875 -1.421875 
Q 17.96875 -1.421875 11.734375 6.484375 
Q 5.515625 14.40625 5.515625 27.296875 
Q 5.515625 40.1875 11.734375 48.09375 
Q 17.96875 56 27.875 56 
Q 33.9375 56 38.25 53.625 
Q 42.578125 51.265625 45.40625 46.390625 
z
M 14.796875 27.296875 
Q 14.796875 17.390625 18.875 11.75 
Q 22.953125 6.109375 30.078125 6.109375 
Q 37.203125 6.109375 41.296875 11.75 
Q 45.40625 17.390625 45.40625 27.296875 
Q 45.40625 37.203125 41.296875 42.84375 
Q 37.203125 48.484375 30.078125 48.484375 
Q 22.953125 48.484375 18.875 42.84375 
Q 14.796875 37.203125 14.796875 27.296875 
z
" id="DejaVuSans-100"/>
      <path d="M 56.203125 29.59375 
L 56.203125 25.203125 
L 14.890625 25.203125 
Q 15.484375 15.921875 20.484375 11.0625 
Q 25.484375 6.203125 34.421875 6.203125 
Q 39.59375 6.203125 44.453125 7.46875 
Q 49.3125 8.734375 54.109375 11.28125 
L 54.109375 2.78125 
Q 49.265625 0.734375 44.1875 -0.34375 
Q 39.109375 -1.421875 33.890625 -1.421875 
Q 20.796875 -1.421875 13.15625 6.1875 
Q 5.515625 13.8125 5.515625 26.8125 
Q 5.515625 40.234375 12.765625 48.109375 
Q 20.015625 56 32.328125 56 
Q 43.359375 56 49.78125 48.890625 
Q 56.203125 41.796875 56.203125 29.59375 
z
M 47.21875 32.234375 
Q 47.125 39.59375 43.09375 43.984375 
Q 39.0625 48.390625 32.421875 48.390625 
Q 24.90625 48.390625 20.390625 44.140625 
Q 15.875 39.890625 15.1875 32.171875 
z
" id="DejaVuSans-101"/>
      <path d="M 37.109375 75.984375 
L 37.109375 68.5 
L 28.515625 68.5 
Q 23.6875 68.5 21.796875 66.546875 
Q 19.921875 64.59375 19.921875 59.515625 
L 19.921875 54.6875 
L 34.71875 54.6875 
L 34.71875 47.703125 
L 19.921875 47.703125 
L 19.921875 0 
L 10.890625 0 
L 10.890625 47.703125 
L 2.296875 47.703125 
L 2.296875 54.6875 
L 10.890625 54.6875 
L 10.890625 58.5 
Q 10.890625 67.625 15.140625 71.796875 
Q 19.390625 75.984375 28.609375 75.984375 
z
" id="DejaVuSans-102"/>
      <path d="M 30.609375 48.390625 
Q 23.390625 48.390625 19.1875 42.75 
Q 14.984375 37.109375 14.984375 27.296875 
Q 14.984375 17.484375 19.15625 11.84375 
Q 23.34375 6.203125 30.609375 6.203125 
Q 37.796875 6.203125 41.984375 11.859375 
Q 46.1875 17.53125 46.1875 27.296875 
Q 46.1875 37.015625 41.984375 42.703125 
Q 37.796875 48.390625 30.609375 48.390625 
z
M 30.609375 56 
Q 42.328125 56 49.015625 48.375 
Q 55.71875 40.765625 55.71875 27.296875 
Q 55.71875 13.875 49.015625 6.21875 
Q 42.328125 -1.421875 30.609375 -1.421875 
Q 18.84375 -1.421875 12.171875 6.21875 
Q 5.515625 13.875 5.515625 27.296875 
Q 5.515625 40.765625 12.171875 48.375 
Q 18.84375 56 30.609375 56 
z
" id="DejaVuSans-111"/>
      <path d="M 41.109375 46.296875 
Q 39.59375 47.171875 37.8125 47.578125 
Q 36.03125 48 33.890625 48 
Q 26.265625 48 22.1875 43.046875 
Q 18.109375 38.09375 18.109375 28.8125 
L 18.109375 0 
L 9.078125 0 
L 9.078125 54.6875 
L 18.109375 54.6875 
L 18.109375 46.1875 
Q 20.953125 51.171875 25.484375 53.578125 
Q 30.03125 56 36.53125 56 
Q 37.453125 56 38.578125 55.875 
Q 39.703125 55.765625 41.0625 55.515625 
z
" id="DejaVuSans-114"/>
      <path d="M 52 44.1875 
Q 55.375 50.25 60.0625 53.125 
Q 64.75 56 71.09375 56 
Q 79.640625 56 84.28125 50.015625 
Q 88.921875 44.046875 88.921875 33.015625 
L 88.921875 0 
L 79.890625 0 
L 79.890625 32.71875 
Q 79.890625 40.578125 77.09375 44.375 
Q 74.3125 48.1875 68.609375 48.1875 
Q 61.625 48.1875 57.5625 43.546875 
Q 53.515625 38.921875 53.515625 30.90625 
L 53.515625 0 
L 44.484375 0 
L 44.484375 32.71875 
Q 44.484375 40.625 41.703125 44.40625 
Q 38.921875 48.1875 33.109375 48.1875 
Q 26.21875 48.1875 22.15625 43.53125 
Q 18.109375 38.875 18.109375 30.90625 
L 18.109375 0 
L 9.078125 0 
L 9.078125 54.6875 
L 18.109375 54.6875 
L 18.109375 46.1875 
Q 21.1875 51.21875 25.484375 53.609375 
Q 29.78125 56 35.6875 56 
Q 41.65625 56 45.828125 52.96875 
Q 50 49.953125 52 44.1875 
z
" id="DejaVuSans-109"/>
      <path d="M 34.28125 27.484375 
Q 23.390625 27.484375 19.1875 25 
Q 14.984375 22.515625 14.984375 16.5 
Q 14.984375 11.71875 18.140625 8.90625 
Q 21.296875 6.109375 26.703125 6.109375 
Q 34.1875 6.109375 38.703125 11.40625 
Q 43.21875 16.703125 43.21875 25.484375 
L 43.21875 27.484375 
z
M 52.203125 31.203125 
L 52.203125 0 
L 43.21875 0 
L 43.21875 8.296875 
Q 40.140625 3.328125 35.546875 0.953125 
Q 30.953125 -1.421875 24.3125 -1.421875 
Q 15.921875 -1.421875 10.953125 3.296875 
Q 6 8.015625 6 15.921875 
Q 6 25.140625 12.171875 29.828125 
Q 18.359375 34.515625 30.609375 34.515625 
L 43.21875 34.515625 
L 43.21875 35.40625 
Q 43.21875 41.609375 39.140625 45 
Q 35.0625 48.390625 27.6875 48.390625 
Q 23 48.390625 18.546875 47.265625 
Q 14.109375 46.140625 10.015625 43.890625 
L 10.015625 52.203125 
Q 14.9375 54.109375 19.578125 55.046875 
Q 24.21875 56 28.609375 56 
Q 40.484375 56 46.34375 49.84375 
Q 52.203125 43.703125 52.203125 31.203125 
z
" id="DejaVuSans-97"/>
      <path d="M 18.3125 70.21875 
L 18.3125 54.6875 
L 36.8125 54.6875 
L 36.8125 47.703125 
L 18.3125 47.703125 
L 18.3125 18.015625 
Q 18.3125 11.328125 20.140625 9.421875 
Q 21.96875 7.515625 27.59375 7.515625 
L 36.8125 7.515625 
L 36.8125 0 
L 27.59375 0 
Q 17.1875 0 13.234375 3.875 
Q 9.28125 7.765625 9.28125 18.015625 
L 9.28125 47.703125 
L 2.6875 47.703125 
L 2.6875 54.6875 
L 9.28125 54.6875 
L 9.28125 70.21875 
z
" id="DejaVuSans-116"/>
      <path d="M 9.421875 54.6875 
L 18.40625 54.6875 
L 18.40625 0 
L 9.421875 0 
z
M 9.421875 75.984375 
L 18.40625 75.984375 
L 18.40625 64.59375 
L 9.421875 64.59375 
z
" id="DejaVuSans-105"/>
      <path d="M 54.890625 33.015625 
L 54.890625 0 
L 45.90625 0 
L 45.90625 32.71875 
Q 45.90625 40.484375 42.875 44.328125 
Q 39.84375 48.1875 33.796875 48.1875 
Q 26.515625 48.1875 22.3125 43.546875 
Q 18.109375 38.921875 18.109375 30.90625 
L 18.109375 0 
L 9.078125 0 
L 9.078125 54.6875 
L 18.109375 54.6875 
L 18.109375 46.1875 
Q 21.34375 51.125 25.703125 53.5625 
Q 30.078125 56 35.796875 56 
Q 45.21875 56 50.046875 50.171875 
Q 54.890625 44.34375 54.890625 33.015625 
z
" id="DejaVuSans-110"/>
     </defs>
     <g transform="translate(16.318125 189.352071)rotate(-90)scale(0.12 -0.12)">
      <use transform="translate(0 0.015625)" xlink:href="#DejaVuSans-Oblique-114"/>
      <use transform="translate(41.113281 -16.390625)scale(0.7)" xlink:href="#DejaVuSans-100"/>
      <use transform="translate(85.546875 -16.390625)scale(0.7)" xlink:href="#DejaVuSans-101"/>
      <use transform="translate(128.613281 -16.390625)scale(0.7)" xlink:href="#DejaVuSans-102"/>
      <use transform="translate(153.256836 -16.390625)scale(0.7)" xlink:href="#DejaVuSans-111"/>
      <use transform="translate(196.083984 -16.390625)scale(0.7)" xlink:href="#DejaVuSans-114"/>
      <use transform="translate(224.863281 -16.390625)scale(0.7)" xlink:href="#DejaVuSans-109"/>
      <use transform="translate(293.051758 -16.390625)scale(0.7)" xlink:href="#DejaVuSans-97"/>
      <use transform="translate(335.947266 -16.390625)scale(0.7)" xlink:href="#DejaVuSans-116"/>
      <use transform="translate(363.393555 -16.390625)scale(0.7)" xlink:href="#DejaVuSans-105"/>
      <use transform="translate(382.841797 -16.390625)scale(0.7)" xlink:href="#DejaVuSans-111"/>
      <use transform="translate(425.668945 -16.390625)scale(0.7)" xlink:href="#DejaVuSans-110"/>
      <use transform="translate(472.768555 0.015625)" xlink:href="#DejaVuSans-32"/>
      <use transform="translate(504.555664 0.015625)" xlink:href="#DejaVuSans-91"/>
      <use transform="translate(543.569336 0.015625)" xlink:href="#DejaVuSans-109"/>
      <use transform="translate(640.981445 0.015625)" xlink:href="#DejaVuSans-109"/>
      <use transform="translate(738.393555 0.015625)" xlink:href="#DejaVuSans-93"/>
     </g>
    </g>
   </g>
   <g id="line2d_21">
    <path clip-path="url(#pfa6bc38b2e)" d="M 68.6285 90.417237 
L 71.072136 100.15375 
L 73.515773 110.500574 
L 75.959409 121.326348 
L 78.403045 132.492369 
L 80.846682 143.854409 
L 83.290318 155.264707 
L 85.733955 166.574103 
L 88.177591 177.634302 
L 90.621227 188.300236 
L 93.064864 198.43247 
L 95.5085 207.899626 
L 97.952136 216.580741 
L 100.395773 224.367525 
L 102.839409 231.166432 
L 105.283045 236.900491 
L 107.726682 241.510827 
L 110.170318 244.957822 
L 112.613955 247.221868 
L 115.057591 248.303686 
L 117.501227 248.224191 
L 119.944864 247.023906 
L 122.3885 244.761951 
L 124.832136 241.51464 
L 127.275773 237.373731 
L 129.719409 232.444392 
L 132.163045 226.842953 
L 134.606682 220.694506 
L 137.050318 214.130413 
L 139.493955 207.285804 
L 141.937591 200.297102 
L 144.381227 193.299637 
L 146.824864 186.425372 
L 149.2685 179.800796 
L 151.712136 173.544982 
L 154.155773 167.767845 
L 156.599409 162.568591 
L 159.043045 158.034383 
L 161.486682 154.239206 
L 163.930318 151.242943 
L 166.373955 149.090647 
L 168.817591 147.812018 
L 171.261227 147.421079 
L 173.704864 147.916037 
L 176.1485 149.279343 
L 178.592136 151.477947 
L 181.035773 154.463738 
L 183.479409 158.174185 
L 185.923045 162.533175 
L 188.366682 167.452043 
L 190.810318 172.830808 
L 193.253955 178.559605 
L 195.697591 184.520311 
L 198.141227 190.588359 
L 200.584864 196.634723 
L 203.0285 202.528065 
L 205.472136 208.137001 
L 207.915773 213.33247 
L 210.359409 217.990149 
L 212.803045 221.992877 
L 215.246682 225.233019 
L 217.690318 227.614723 
L 220.133955 229.055988 
L 222.577591 229.490505 
L 225.021227 228.869187 
L 227.464864 227.161351 
L 229.9085 224.355512 
L 232.352136 220.459754 
L 234.795773 215.501673 
L 237.239409 209.52789 
L 239.683045 202.603167 
L 242.126682 194.809136 
L 244.570318 186.242722 
L 247.013955 177.014274 
L 249.457591 167.245504 
L 251.901227 157.067259 
L 254.344864 146.61722 
L 256.7885 136.037555 
L 259.232136 125.472603 
L 261.675773 115.066607 
L 264.119409 104.961555 
L 266.563045 95.295145 
L 269.006682 86.198893 
L 271.450318 77.796407 
L 273.893955 70.201826 
L 276.337591 63.518441 
L 278.781227 57.837483 
L 281.224864 53.237088 
L 283.6685 49.781438 
L 286.112136 47.520059 
L 288.555773 46.48729 
L 290.999409 46.701909 
L 293.443045 48.166919 
L 295.886682 50.869484 
L 298.330318 54.781029 
L 300.773955 59.857496 
L 303.217591 66.039754 
L 305.661227 73.25418 
L 308.104864 81.413406 
L 310.5485 90.417237 
" style="fill:none;stroke:#0000ff;stroke-linecap:square;stroke-width:2;"/>
   </g>
   <g id="line2d_22">
    <defs>
     <path d="M 0 1 
C 0.265203 1 0.51958 0.894634 0.707107 0.707107 
C 0.894634 0.51958 1 0.265203 1 0 
C 1 -0.265203 0.894634 -0.51958 0.707107 -0.707107 
C 0.51958 -0.894634 0.265203 -1 0 -1 
C -0.265203 -1 -0.51958 -0.894634 -0.707107 -0.707107 
C -0.894634 -0.51958 -1 -0.265203 -1 0 
C -1 0.265203 -0.894634 0.51958 -0.707107 0.707107 
C -0.51958 0.894634 -0.265203 1 0 1 
z
" id="m8005406299" style="stroke:#ff0000;"/>
    </defs>
    <g clip-path="url(#pfa6bc38b2e)">
     <use style="fill:#ff0000;stroke:#ff0000;" x="68.6285" xlink:href="#m8005406299" y="88.160625"/>
     <use style="fill:#ff0000;stroke:#ff0000;" x="71.072136" xlink:href="#m8005406299" y="104.217512"/>
     <use style="fill:#ff0000;stroke:#ff0000;" x="73.515773" xlink:href="#m8005406299" y="105.747015"/>
     <use style="fill:#ff0000;stroke:#ff0000;" x="75.959409" xlink:href="#m8005406299" y="111.018529"/>
     <use style="fill:#ff0000;stroke:#ff0000;" x="78.403045" xlink:href="#m8005406299" y="126.404492"/>
     <use style="fill:#ff0000;stroke:#ff0000;" x="80.846682" xlink:href="#m8005406299" y="139.940796"/>
     <use style="fill:#ff0000;stroke:#ff0000;" x="83.290318" xlink:href="#m8005406299" y="152.378825"/>
     <use style="fill:#ff0000;stroke:#ff0000;" x="85.733955" xlink:href="#m8005406299" y="166.094798"/>
     <use style="fill:#ff0000;stroke:#ff0000;" x="88.177591" xlink:href="#m8005406299" y="180.79289"/>
     <use style="fill:#ff0000;stroke:#ff0000;" x="90.621227" xlink:href="#m8005406299" y="196.432789"/>
     <use style="fill:#ff0000;stroke:#ff0000;" x="93.064864" xlink:href="#m8005406299" y="190.063249"/>
     <use style="fill:#ff0000;stroke:#ff0000;" x="95.5085" xlink:href="#m8005406299" y="200.729985"/>
     <use style="fill:#ff0000;stroke:#ff0000;" x="97.952136" xlink:href="#m8005406299" y="199.732682"/>
     <use style="fill:#ff0000;stroke:#ff0000;" x="100.395773" xlink:href="#m8005406299" y="203.133054"/>
     <use style="fill:#ff0000;stroke:#ff0000;" x="102.839409" xlink:href="#m8005406299" y="218.317902"/>
     <use style="fill:#ff0000;stroke:#ff0000;" x="105.283045" xlink:href="#m8005406299" y="232.84798"/>
     <use style="fill:#ff0000;stroke:#ff0000;" x="107.726682" xlink:href="#m8005406299" y="245.005037"/>
     <use style="fill:#ff0000;stroke:#ff0000;" x="110.170318" xlink:href="#m8005406299" y="239.310338"/>
     <use style="fill:#ff0000;stroke:#ff0000;" x="112.613955" xlink:href="#m8005406299" y="231.241136"/>
     <use style="fill:#ff0000;stroke:#ff0000;" x="115.057591" xlink:href="#m8005406299" y="235.354875"/>
     <use style="fill:#ff0000;stroke:#ff0000;" x="117.501227" xlink:href="#m8005406299" y="241.742837"/>
     <use style="fill:#ff0000;stroke:#ff0000;" x="119.944864" xlink:href="#m8005406299" y="242.979159"/>
     <use style="fill:#ff0000;stroke:#ff0000;" x="122.3885" xlink:href="#m8005406299" y="243.296869"/>
     <use style="fill:#ff0000;stroke:#ff0000;" x="124.832136" xlink:href="#m8005406299" y="250.251068"/>
     <use style="fill:#ff0000;stroke:#ff0000;" x="127.275773" xlink:href="#m8005406299" y="242.896258"/>
     <use style="fill:#ff0000;stroke:#ff0000;" x="129.719409" xlink:href="#m8005406299" y="239.024609"/>
     <use style="fill:#ff0000;stroke:#ff0000;" x="132.163045" xlink:href="#m8005406299" y="229.404268"/>
     <use style="fill:#ff0000;stroke:#ff0000;" x="134.606682" xlink:href="#m8005406299" y="215.29316"/>
     <use style="fill:#ff0000;stroke:#ff0000;" x="137.050318" xlink:href="#m8005406299" y="208.842336"/>
     <use style="fill:#ff0000;stroke:#ff0000;" x="139.493955" xlink:href="#m8005406299" y="205.566326"/>
     <use style="fill:#ff0000;stroke:#ff0000;" x="141.937591" xlink:href="#m8005406299" y="200.879719"/>
     <use style="fill:#ff0000;stroke:#ff0000;" x="144.381227" xlink:href="#m8005406299" y="194.732164"/>
     <use style="fill:#ff0000;stroke:#ff0000;" x="146.824864" xlink:href="#m8005406299" y="186.906837"/>
     <use style="fill:#ff0000;stroke:#ff0000;" x="149.2685" xlink:href="#m8005406299" y="179.344221"/>
     <use style="fill:#ff0000;stroke:#ff0000;" x="151.712136" xlink:href="#m8005406299" y="171.867728"/>
     <use style="fill:#ff0000;stroke:#ff0000;" x="154.155773" xlink:href="#m8005406299" y="165.227654"/>
     <use style="fill:#ff0000;stroke:#ff0000;" x="156.599409" xlink:href="#m8005406299" y="165.655594"/>
     <use style="fill:#ff0000;stroke:#ff0000;" x="159.043045" xlink:href="#m8005406299" y="169.32315"/>
     <use style="fill:#ff0000;stroke:#ff0000;" x="161.486682" xlink:href="#m8005406299" y="172.536907"/>
     <use style="fill:#ff0000;stroke:#ff0000;" x="163.930318" xlink:href="#m8005406299" y="166.717716"/>
     <use style="fill:#ff0000;stroke:#ff0000;" x="166.373955" xlink:href="#m8005406299" y="154.228868"/>
     <use style="fill:#ff0000;stroke:#ff0000;" x="168.817591" xlink:href="#m8005406299" y="147.916773"/>
     <use style="fill:#ff0000;stroke:#ff0000;" x="171.261227" xlink:href="#m8005406299" y="143.692384"/>
     <use style="fill:#ff0000;stroke:#ff0000;" x="173.704864" xlink:href="#m8005406299" y="141.067348"/>
     <use style="fill:#ff0000;stroke:#ff0000;" x="176.1485" xlink:href="#m8005406299" y="145.175901"/>
     <use style="fill:#ff0000;stroke:#ff0000;" x="178.592136" xlink:href="#m8005406299" y="147.202594"/>
     <use style="fill:#ff0000;stroke:#ff0000;" x="181.035773" xlink:href="#m8005406299" y="147.026311"/>
     <use style="fill:#ff0000;stroke:#ff0000;" x="183.479409" xlink:href="#m8005406299" y="143.497846"/>
     <use style="fill:#ff0000;stroke:#ff0000;" x="185.923045" xlink:href="#m8005406299" y="144.400453"/>
     <use style="fill:#ff0000;stroke:#ff0000;" x="188.366682" xlink:href="#m8005406299" y="158.702168"/>
     <use style="fill:#ff0000;stroke:#ff0000;" x="190.810318" xlink:href="#m8005406299" y="165.645697"/>
     <use style="fill:#ff0000;stroke:#ff0000;" x="193.253955" xlink:href="#m8005406299" y="175.66166"/>
     <use style="fill:#ff0000;stroke:#ff0000;" x="195.697591" xlink:href="#m8005406299" y="184.276026"/>
     <use style="fill:#ff0000;stroke:#ff0000;" x="198.141227" xlink:href="#m8005406299" y="177.328105"/>
     <use style="fill:#ff0000;stroke:#ff0000;" x="200.584864" xlink:href="#m8005406299" y="193.22502"/>
     <use style="fill:#ff0000;stroke:#ff0000;" x="203.0285" xlink:href="#m8005406299" y="205.411636"/>
     <use style="fill:#ff0000;stroke:#ff0000;" x="205.472136" xlink:href="#m8005406299" y="211.023705"/>
     <use style="fill:#ff0000;stroke:#ff0000;" x="207.915773" xlink:href="#m8005406299" y="216.427245"/>
     <use style="fill:#ff0000;stroke:#ff0000;" x="210.359409" xlink:href="#m8005406299" y="221.416832"/>
     <use style="fill:#ff0000;stroke:#ff0000;" x="212.803045" xlink:href="#m8005406299" y="239.686156"/>
     <use style="fill:#ff0000;stroke:#ff0000;" x="215.246682" xlink:href="#m8005406299" y="263.632071"/>
     <use style="fill:#ff0000;stroke:#ff0000;" x="217.690318" xlink:href="#m8005406299" y="255.715029"/>
     <use style="fill:#ff0000;stroke:#ff0000;" x="220.133955" xlink:href="#m8005406299" y="231.213969"/>
     <use style="fill:#ff0000;stroke:#ff0000;" x="222.577591" xlink:href="#m8005406299" y="225.144047"/>
     <use style="fill:#ff0000;stroke:#ff0000;" x="225.021227" xlink:href="#m8005406299" y="219.727593"/>
     <use style="fill:#ff0000;stroke:#ff0000;" x="227.464864" xlink:href="#m8005406299" y="220.283175"/>
     <use style="fill:#ff0000;stroke:#ff0000;" x="229.9085" xlink:href="#m8005406299" y="216.363201"/>
     <use style="fill:#ff0000;stroke:#ff0000;" x="232.352136" xlink:href="#m8005406299" y="198.2469"/>
     <use style="fill:#ff0000;stroke:#ff0000;" x="234.795773" xlink:href="#m8005406299" y="189.687013"/>
     <use style="fill:#ff0000;stroke:#ff0000;" x="237.239409" xlink:href="#m8005406299" y="195.818781"/>
     <use style="fill:#ff0000;stroke:#ff0000;" x="239.683045" xlink:href="#m8005406299" y="193.132471"/>
     <use style="fill:#ff0000;stroke:#ff0000;" x="242.126682" xlink:href="#m8005406299" y="191.314259"/>
     <use style="fill:#ff0000;stroke:#ff0000;" x="244.570318" xlink:href="#m8005406299" y="178.375086"/>
     <use style="fill:#ff0000;stroke:#ff0000;" x="247.013955" xlink:href="#m8005406299" y="171.671498"/>
     <use style="fill:#ff0000;stroke:#ff0000;" x="249.457591" xlink:href="#m8005406299" y="165.48919"/>
     <use style="fill:#ff0000;stroke:#ff0000;" x="251.901227" xlink:href="#m8005406299" y="158.709984"/>
     <use style="fill:#ff0000;stroke:#ff0000;" x="254.344864" xlink:href="#m8005406299" y="145.742354"/>
     <use style="fill:#ff0000;stroke:#ff0000;" x="256.7885" xlink:href="#m8005406299" y="136.558894"/>
     <use style="fill:#ff0000;stroke:#ff0000;" x="259.232136" xlink:href="#m8005406299" y="125.967181"/>
     <use style="fill:#ff0000;stroke:#ff0000;" x="261.675773" xlink:href="#m8005406299" y="125.020653"/>
     <use style="fill:#ff0000;stroke:#ff0000;" x="264.119409" xlink:href="#m8005406299" y="115.541307"/>
     <use style="fill:#ff0000;stroke:#ff0000;" x="266.563045" xlink:href="#m8005406299" y="100.647134"/>
     <use style="fill:#ff0000;stroke:#ff0000;" x="269.006682" xlink:href="#m8005406299" y="99.438215"/>
     <use style="fill:#ff0000;stroke:#ff0000;" x="271.450318" xlink:href="#m8005406299" y="92.288053"/>
     <use style="fill:#ff0000;stroke:#ff0000;" x="273.893955" xlink:href="#m8005406299" y="76.24838"/>
     <use style="fill:#ff0000;stroke:#ff0000;" x="276.337591" xlink:href="#m8005406299" y="58.869679"/>
     <use style="fill:#ff0000;stroke:#ff0000;" x="278.781227" xlink:href="#m8005406299" y="47.929698"/>
     <use style="fill:#ff0000;stroke:#ff0000;" x="281.224864" xlink:href="#m8005406299" y="37.856033"/>
     <use style="fill:#ff0000;stroke:#ff0000;" x="283.6685" xlink:href="#m8005406299" y="25.071115"/>
     <use style="fill:#ff0000;stroke:#ff0000;" x="286.112136" xlink:href="#m8005406299" y="21.712071"/>
     <use style="fill:#ff0000;stroke:#ff0000;" x="288.555773" xlink:href="#m8005406299" y="27.288962"/>
     <use style="fill:#ff0000;stroke:#ff0000;" x="290.999409" xlink:href="#m8005406299" y="36.751627"/>
     <use style="fill:#ff0000;stroke:#ff0000;" x="293.443045" xlink:href="#m8005406299" y="32.198147"/>
     <use style="fill:#ff0000;stroke:#ff0000;" x="295.886682" xlink:href="#m8005406299" y="31.42422"/>
     <use style="fill:#ff0000;stroke:#ff0000;" x="298.330318" xlink:href="#m8005406299" y="44.047163"/>
     <use style="fill:#ff0000;stroke:#ff0000;" x="300.773955" xlink:href="#m8005406299" y="60.471559"/>
     <use style="fill:#ff0000;stroke:#ff0000;" x="303.217591" xlink:href="#m8005406299" y="75.10303"/>
     <use style="fill:#ff0000;stroke:#ff0000;" x="305.661227" xlink:href="#m8005406299" y="88.014914"/>
     <use style="fill:#ff0000;stroke:#ff0000;" x="308.104864" xlink:href="#m8005406299" y="96.210287"/>
     <use style="fill:#ff0000;stroke:#ff0000;" x="310.5485" xlink:href="#m8005406299" y="88.160625"/>
    </g>
   </g>
   <g id="patch_3">
    <path d="M 56.5325 275.728071 
L 56.5325 9.616071 
" style="fill:none;stroke:#000000;stroke-linecap:square;stroke-linejoin:miter;stroke-width:0.8;"/>
   </g>
   <g id="patch_4">
    <path d="M 322.6445 275.728071 
L 322.6445 9.616071 
" style="fill:none;stroke:#000000;stroke-linecap:square;stroke-linejoin:miter;stroke-width:0.8;"/>
   </g>
   <g id="patch_5">
    <path d="M 56.5325 275.728071 
L 322.6445 275.728071 
" style="fill:none;stroke:#000000;stroke-linecap:square;stroke-linejoin:miter;stroke-width:0.8;"/>
   </g>
   <g id="patch_6">
    <path d="M 56.5325 9.616071 
L 322.6445 9.616071 
" style="fill:none;stroke:#000000;stroke-linecap:square;stroke-linejoin:miter;stroke-width:0.8;"/>
   </g>
   <g id="legend_1">
    <g id="patch_7">
     <path d="M 64.9325 54.443571 
L 140.699375 54.443571 
Q 143.099375 54.443571 143.099375 52.043571 
L 143.099375 18.016071 
Q 143.099375 15.616071 140.699375 15.616071 
L 64.9325 15.616071 
Q 62.5325 15.616071 62.5325 18.016071 
L 62.5325 52.043571 
Q 62.5325 54.443571 64.9325 54.443571 
z
" style="fill:#ffffff;opacity:0.8;stroke:#cccccc;stroke-linejoin:miter;"/>
    </g>
    <g id="line2d_23">
     <path d="M 67.3325 25.334196 
L 91.3325 25.334196 
" style="fill:none;stroke:#0000ff;stroke-linecap:square;stroke-width:2;"/>
    </g>
    <g id="line2d_24"/>
    <g id="text_13">
     <!-- model -->
     <defs>
      <path d="M 9.421875 75.984375 
L 18.40625 75.984375 
L 18.40625 0 
L 9.421875 0 
z
" id="DejaVuSans-108"/>
     </defs>
     <g transform="translate(100.9325 29.534196)scale(0.12 -0.12)">
      <use xlink:href="#DejaVuSans-109"/>
      <use x="97.412109" xlink:href="#DejaVuSans-111"/>
      <use x="158.59375" xlink:href="#DejaVuSans-100"/>
      <use x="222.070312" xlink:href="#DejaVuSans-101"/>
      <use x="283.59375" xlink:href="#DejaVuSans-108"/>
     </g>
    </g>
    <g id="line2d_25"/>
    <g id="line2d_26">
     <g>
      <use style="fill:#ff0000;stroke:#ff0000;" x="79.3325" xlink:href="#m8005406299" y="42.947946"/>
     </g>
    </g>
    <g id="text_14">
     <!-- data -->
     <g transform="translate(100.9325 47.147946)scale(0.12 -0.12)">
      <use xlink:href="#DejaVuSans-100"/>
      <use x="63.476562" xlink:href="#DejaVuSans-97"/>
      <use x="124.755859" xlink:href="#DejaVuSans-116"/>
      <use x="163.964844" xlink:href="#DejaVuSans-97"/>
     </g>
    </g>
   </g>
  </g>
 </g>
 <defs>
  <clipPath id="pfa6bc38b2e">
   <rect height="266.112" width="266.112" x="56.5325" y="9.616071"/>
  </clipPath>
 </defs>
</svg>
